<?xml version="1.0" standalone="no"?>
<!DOCTYPE svg PUBLIC "-//W3C//DTD SVG 20010904//EN"
 "http://www.w3.org/TR/2001/REC-SVG-20010904/DTD/svg10.dtd">
<svg version="1.0" xmlns="http://www.w3.org/2000/svg"
 width="900.000000pt" height="900.000000pt" viewBox="0 0 900.000000 900.000000"
 preserveAspectRatio="xMidYMid meet">
<metadata>
Created by potrace 1.10, written by Peter Selinger 2001-2011
</metadata>
<g transform="translate(0.000000,900.000000) scale(0.100000,-0.100000)"
fill="#000000" stroke="none">
<path d="M7825 8084 c-27 -8 -88 -17 -135 -21 -47 -3 -94 -12 -105 -19 -11 -8
-36 -14 -57 -14 -21 0 -38 -4 -38 -10 0 -5 -10 -10 -23 -10 -13 0 -32 -7 -43
-15 -10 -8 -27 -15 -36 -15 -10 0 -22 -9 -28 -20 -11 -21 -44 -27 -55 -10 -10
17 -25 11 -25 -9 0 -11 -9 -23 -20 -26 -11 -3 -20 -11 -20 -16 0 -5 -9 -9 -19
-9 -11 0 -26 -7 -35 -15 -8 -8 -23 -15 -33 -15 -10 0 -30 -12 -45 -25 -28 -24
-36 -45 -18 -45 15 0 12 -27 -3 -33 -18 -7 -20 -87 -3 -87 8 0 19 7 26 15 7 8
18 15 25 15 7 0 18 7 25 15 7 8 23 15 35 15 12 0 28 7 35 15 7 8 23 15 35 15
12 0 28 7 35 15 7 8 23 15 36 15 14 0 32 4 42 9 39 21 121 44 182 50 36 4 74
12 85 18 11 6 102 13 210 16 105 2 202 10 217 16 34 13 58 5 58 -19 0 -27 -19
-30 -168 -30 -75 0 -154 -3 -175 -6 l-37 -7 25 -25 c24 -24 26 -24 59 -8 38
18 353 34 420 22 33 -6 37 -10 32 -29 -3 -11 0 -27 5 -34 17 -19 1 -35 -22
-23 -13 8 -25 7 -41 -2 -24 -12 -176 -14 -252 -2 -32 5 -36 8 -22 16 9 5 36 8
59 7 102 -6 197 1 197 14 0 20 -236 21 -266 2 -12 -8 -30 -11 -41 -9 -11 3
-35 -1 -54 -9 l-34 -14 53 -7 c77 -10 63 -30 -23 -34 -69 -3 -106 10 -65 23
16 5 20 12 16 28 -3 12 -6 25 -6 30 0 4 -10 7 -21 7 -12 0 -28 8 -35 18 -11
14 -16 15 -34 4 -15 -9 -26 -10 -41 -2 -26 14 -71 9 -77 -8 -3 -11 6 -12 42
-7 39 6 46 5 46 -9 0 -9 -8 -19 -17 -22 -70 -22 -86 -45 -52 -73 21 -18 41
-20 179 -20 85 0 159 4 165 8 14 12 124 21 130 11 7 -11 -20 -20 -65 -20 -44
0 -61 -15 -27 -24 38 -10 112 -7 163 8 96 28 274 32 274 7 0 -11 -106 -51
-135 -51 -12 0 -36 -7 -51 -15 -16 -8 -46 -15 -67 -15 -21 0 -48 -5 -59 -11
-12 -6 -75 -15 -142 -20 -143 -9 -273 -26 -301 -38 -81 -36 -376 -42 -410 -10
-20 20 20 29 97 23 76 -6 137 1 123 14 -4 4 -78 7 -165 7 -138 0 -160 2 -178
18 -17 16 -20 16 -25 2 -8 -20 -67 -21 -67 0 0 10 10 15 30 15 17 0 30 4 30 9
0 18 32 20 67 6 28 -12 81 -15 242 -14 113 0 229 5 256 10 28 6 95 14 150 19
55 4 102 9 105 9 3 1 -2 6 -10 11 -21 13 -172 13 -207 -1 -33 -13 -533 -19
-533 -7 0 4 7 8 15 8 8 0 24 9 35 20 11 11 30 20 43 20 12 0 31 7 41 15 11 8
30 15 42 15 12 0 24 7 28 15 3 10 19 15 44 15 21 0 43 5 50 12 6 6 30 14 53
17 24 3 44 12 47 19 6 19 -104 17 -112 -3 -3 -9 -19 -15 -41 -15 -19 0 -43 -4
-53 -10 -9 -5 -43 -21 -74 -35 -32 -15 -60 -30 -63 -36 -4 -5 -16 -9 -27 -9
-12 0 -29 -6 -37 -14 -24 -21 -74 -23 -104 -3 -28 18 -77 23 -77 7 0 -5 9 -14
21 -20 20 -11 20 -12 -6 -36 -14 -13 -37 -24 -51 -24 -17 0 -24 -5 -24 -19 0
-11 -7 -27 -16 -36 -35 -34 11 -60 59 -33 12 7 54 13 92 14 39 1 83 3 99 5 37
5 47 -18 12 -27 -38 -9 -21 -24 27 -23 39 1 64 -3 185 -29 47 -10 130 -5 149
10 6 5 53 13 105 17 116 11 232 29 278 44 19 6 78 11 131 11 54 1 102 6 110
12 8 6 38 14 68 17 29 4 58 11 65 16 6 5 29 12 51 16 41 7 89 25 137 51 14 7
44 14 66 14 39 0 69 19 44 28 -17 5 -15 22 3 22 8 0 15 -4 15 -10 0 -17 110
-12 116 5 9 23 61 19 74 -6 8 -15 8 -24 0 -34 -6 -8 -10 -29 -9 -47 2 -20 -4
-44 -14 -58 -20 -28 -22 -53 -6 -78 9 -15 8 -23 -7 -40 -10 -12 -24 -22 -30
-22 -6 0 -17 -7 -24 -15 -7 -8 -25 -15 -41 -15 -15 0 -31 -4 -34 -10 -3 -5
-15 -10 -25 -10 -10 0 -25 -6 -32 -14 -8 -7 -24 -17 -36 -20 -12 -4 -22 -12
-22 -17 0 -5 -11 -9 -24 -9 -14 0 -31 -6 -39 -14 -8 -8 -31 -18 -51 -21 -20
-4 -36 -11 -36 -16 0 -5 -12 -9 -27 -9 -16 0 -41 -7 -57 -15 -29 -16 -120 -20
-646 -30 -219 -4 -436 -19 -452 -32 -7 -6 -79 -14 -160 -18 l-148 -7 0 28 c0
16 7 49 16 73 8 25 14 57 12 72 -1 14 3 33 9 41 7 8 14 30 15 49 3 28 0 34
-17 34 -15 0 -20 -7 -20 -26 0 -14 -5 -32 -12 -40 -6 -8 -15 -28 -19 -44 -4
-17 -10 -34 -14 -40 -4 -5 -13 -45 -20 -87 -15 -86 -31 -100 -81 -71 -23 14
-30 14 -44 3 -24 -20 -15 -54 15 -58 66 -6 147 -26 170 -41 22 -14 68 -16 379
-15 265 1 359 5 377 15 18 9 30 10 49 1 34 -16 98 -15 162 2 34 9 65 11 95 6
23 -5 75 -4 113 0 39 5 93 10 121 10 29 0 65 7 80 15 16 8 37 15 46 15 9 0 21
7 26 16 6 10 16 13 33 9 24 -6 24 -7 24 -124 0 -71 5 -128 12 -142 6 -13 13
-63 16 -111 2 -47 9 -93 15 -101 6 -7 15 -47 18 -88 4 -41 11 -80 17 -87 6 -7
10 -35 8 -61 -1 -26 5 -68 12 -92 26 -78 29 -101 28 -230 -1 -101 2 -129 14
-139 9 -8 15 -29 15 -56 0 -23 5 -46 10 -49 6 -4 10 13 10 44 0 28 -4 51 -10
51 -6 0 -10 33 -10 80 0 62 3 82 15 86 17 7 22 109 5 119 -5 3 -10 23 -10 43
0 21 -7 47 -14 58 -9 12 -19 67 -25 135 -10 110 -23 170 -44 196 -5 7 -11 56
-13 108 -2 53 -9 105 -14 116 -6 11 -15 68 -19 127 -9 121 -11 115 71 157 56
28 65 35 129 96 26 25 59 51 72 58 13 7 27 26 33 44 6 22 17 33 37 38 55 15
60 26 54 114 -3 44 -1 91 3 105 8 24 8 23 9 -8 1 -25 7 -35 27 -42 22 -9 25
-14 19 -38 -3 -15 -16 -35 -28 -44 -20 -16 -21 -17 -4 -24 25 -9 57 27 57 66
0 17 9 39 20 50 11 11 20 30 20 41 0 18 -5 21 -30 17 -33 -5 -35 1 -18 48 6
17 8 39 4 49 -6 17 -7 17 -26 0 -11 -10 -20 -14 -20 -8 0 5 -9 20 -20 33 -11
13 -20 29 -20 37 0 18 59 17 66 -2 4 -8 10 -12 15 -9 12 7 11 81 -1 89 -5 3
-10 1 -10 -4 0 -6 -12 -11 -27 -11 -29 0 -103 30 -103 41 0 4 -15 11 -32 15
-18 3 -42 13 -54 21 -16 10 -58 13 -165 13 -79 -1 -162 3 -184 9 -52 14 -258
14 -310 0 -22 -5 -116 -13 -210 -16 -93 -3 -175 -10 -182 -15 -6 -5 -45 -13
-85 -18 -94 -11 -168 -29 -168 -41 0 -6 -8 -8 -18 -5 -12 4 -27 -3 -42 -19
-14 -15 -35 -25 -51 -25 -15 0 -29 -4 -31 -9 -4 -12 -88 -25 -88 -13 0 16 81
82 100 82 10 0 20 7 24 15 3 8 14 15 24 15 11 0 25 7 32 15 7 8 23 15 36 15
12 0 26 5 29 10 3 6 16 10 27 10 11 0 35 9 53 20 18 11 54 23 81 26 27 3 63
12 79 19 29 13 294 49 345 47 14 0 40 -4 57 -7 50 -11 65 -1 51 30 -10 23 -17
25 -73 25 -35 0 -75 2 -91 4 -16 3 -51 -2 -79 -10z m395 -194 c0 -12 -28 -20
-46 -13 -15 6 -15 7 1 19 17 13 45 9 45 -6z m110 -14 c23 -13 177 -14 253 -1
43 7 77 -4 77 -26 0 -14 7 -19 27 -19 43 0 93 -22 93 -41 0 -10 -4 -20 -9 -23
-6 -4 -275 -46 -295 -46 -2 0 -2 -10 2 -22 5 -19 2 -20 -19 -13 -13 5 -52 8
-86 7 -50 -1 -63 1 -63 13 0 9 12 20 26 25 21 8 25 15 22 42 -2 23 -10 36 -27
45 -26 12 -53 52 -45 65 7 11 15 10 44 -6z m350 -548 c0 -7 -18 -23 -40 -36
-22 -12 -40 -27 -40 -32 0 -9 -130 -100 -144 -100 -4 0 -14 -7 -22 -15 -22
-22 -31 -19 -48 17 -21 41 -20 48 5 48 30 0 179 67 179 81 0 4 14 12 30 18 17
5 30 15 30 20 0 6 11 11 25 11 14 0 25 -6 25 -12z m-326 -144 c14 -5 14 -9 1
-33 -21 -42 -36 -50 -100 -52 -33 -1 -71 -7 -85 -14 -17 -8 -109 -13 -298 -14
-151 -1 -283 -6 -294 -10 -11 -4 -49 -4 -85 1 -39 4 -73 4 -83 -2 -10 -5 -126
-10 -258 -11 l-241 -2 -41 33 c-42 34 -47 52 -7 31 27 -14 282 -10 447 9 58 6
202 13 320 15 546 11 609 15 656 40 32 16 44 18 68 9z"/>
<path d="M7548 7533 c12 -2 30 -2 40 0 9 3 -1 5 -23 4 -22 0 -30 -2 -17 -4z"/>
<path d="M8834 7338 c-9 -72 -11 -96 -22 -228 -4 -52 -11 -95 -16 -95 -18 0
-26 60 -20 141 4 45 4 102 0 127 l-7 45 -24 -24 c-24 -24 -25 -31 -25 -138 0
-92 -3 -115 -15 -120 -10 -3 -15 -19 -15 -43 0 -21 -7 -51 -15 -67 -21 -40
-21 -259 0 -309 10 -24 15 -70 15 -132 0 -53 5 -106 11 -117 7 -13 15 -150 21
-362 5 -187 12 -397 14 -466 4 -113 2 -128 -16 -152 -14 -19 -16 -29 -9 -34
15 -9 6 -209 -10 -227 -5 -7 -12 -70 -14 -140 -2 -82 -7 -131 -15 -139 -7 -7
-12 -18 -12 -25 0 -7 -4 -13 -9 -13 -19 0 -21 -38 -7 -105 10 -49 15 -146 15
-339 1 -149 4 -309 6 -356 3 -47 2 -177 -2 -290 l-8 -205 -27 -3 c-23 -3 -28
-8 -28 -29 0 -23 3 -25 31 -19 l31 6 -4 -167 c-2 -127 0 -167 10 -170 6 -3 12
-9 12 -15 0 -6 -6 -6 -15 2 -12 10 -16 8 -25 -15 -5 -14 -10 -32 -10 -38 0
-21 -65 -107 -80 -107 -13 0 -15 28 -11 210 2 135 -1 210 -7 210 -5 0 -12 -7
-16 -15 -7 -21 -9 -401 -2 -414 4 -5 1 -22 -6 -38 -14 -31 -17 -36 -54 -77
-14 -16 -37 -47 -52 -70 -29 -45 -33 -50 -62 -85 -11 -13 -20 -30 -20 -37 0
-7 -4 -14 -8 -16 -5 -1 -37 -51 -73 -110 -62 -106 -65 -108 -100 -108 -20 0
-42 7 -49 15 -10 12 -16 13 -27 3 -8 -7 -65 -14 -133 -18 -64 -3 -124 -11
-131 -17 -8 -6 -48 -13 -89 -16 -41 -2 -88 -8 -104 -12 l-28 -8 4 49 c3 30 15
65 31 91 15 24 27 50 27 58 0 9 7 18 15 21 8 4 15 12 15 20 0 7 6 17 13 21 8
4 17 16 20 26 4 10 11 15 17 12 15 -9 12 -51 -5 -65 -19 -16 -17 -91 3 -98 8
-2 12 11 12 46 0 35 4 52 15 56 10 3 15 19 15 47 0 25 7 50 16 60 21 23 11 49
-18 49 -25 -1 -88 -76 -88 -105 0 -8 -6 -15 -14 -15 -17 0 -29 31 -20 53 3 9
-1 24 -11 33 -17 18 -17 45 1 51 6 2 14 -6 17 -19 5 -18 9 -20 18 -11 10 10 9
21 -1 53 -14 42 -6 68 11 37 15 -26 29 -11 29 31 0 20 6 49 14 64 30 57 44 84
62 123 10 22 31 56 46 76 15 20 28 41 28 47 0 5 7 12 15 16 17 6 21 36 5 36
-5 0 -10 7 -10 15 0 8 7 15 15 15 10 0 15 10 15 30 0 31 16 41 26 15 4 -8 10
-12 15 -9 12 7 11 44 -1 44 -5 0 -10 9 -10 20 0 11 5 20 10 20 6 0 10 9 10 19
0 11 6 26 13 33 18 18 57 96 57 113 0 8 4 15 9 15 5 0 12 13 16 30 4 16 11 30
15 30 5 0 12 16 16 35 3 19 10 35 14 35 4 0 11 12 14 28 4 15 13 41 21 57 32
70 45 104 45 119 0 9 5 16 10 16 6 0 10 14 10 30 0 18 6 33 15 36 8 4 15 14
15 23 0 9 9 33 20 54 11 20 20 46 20 56 0 11 4 21 10 23 5 2 12 22 15 46 3 24
12 53 20 65 19 27 19 81 0 97 -15 12 -55 5 -55 -10 0 -5 -6 -15 -14 -23 -23
-23 -76 -126 -76 -148 0 -11 -7 -22 -15 -25 -8 -4 -15 -18 -15 -33 0 -14 -7
-39 -16 -56 -23 -44 -28 -119 -9 -135 19 -16 19 -47 0 -66 -8 -9 -15 -24 -15
-35 0 -11 -7 -27 -15 -35 -8 -9 -15 -26 -15 -40 0 -13 -4 -24 -9 -24 -5 0 -13
-10 -16 -22 -15 -52 -184 -401 -197 -406 -5 -2 -8 -9 -8 -15 0 -10 -86 -187
-110 -227 -5 -8 -11 -22 -14 -30 -4 -8 -17 -35 -31 -59 -14 -24 -25 -50 -25
-58 0 -7 -7 -16 -15 -19 -8 -4 -15 -12 -15 -20 0 -8 -9 -31 -20 -51 -11 -21
-20 -46 -20 -55 0 -10 -4 -18 -10 -18 -5 0 -12 -16 -16 -35 -3 -19 -10 -38
-15 -41 -5 -3 -9 -12 -9 -20 0 -8 -9 -35 -21 -60 -22 -49 -22 -89 -1 -89 24 0
77 115 80 169 3 77 33 93 37 21 1 -20 5 -39 9 -42 12 -13 6 -31 -13 -36 -13
-3 -22 -17 -26 -43 -4 -22 -13 -48 -20 -59 -7 -11 -20 -45 -28 -76 -15 -51
-20 -57 -49 -63 -17 -3 -79 -3 -137 0 -91 6 -108 4 -120 -10 -22 -26 -343 -23
-504 5 -67 11 -128 26 -136 32 -8 7 -43 12 -79 12 -43 0 -67 4 -69 13 -7 18
280 16 432 -3 66 -8 147 -15 181 -15 37 0 68 -6 80 -15 26 -20 94 -20 94 0 0
9 -9 15 -23 15 -12 0 -33 8 -47 17 -22 15 -60 22 -240 39 -30 3 -151 6 -269 7
-164 2 -215 -1 -218 -11 -3 -6 -22 -15 -44 -18 -21 -4 -39 -10 -39 -15 0 -17
-51 -9 -73 12 -31 29 -114 69 -144 69 -13 0 -31 7 -39 15 -9 8 -31 15 -50 15
-20 0 -42 7 -50 15 -9 8 -24 15 -35 15 -11 0 -27 7 -35 15 -11 11 -37 15 -90
15 -42 0 -84 5 -94 10 -11 6 -54 13 -97 17 -43 3 -81 11 -85 17 -4 6 -40 12
-80 14 -40 2 -77 8 -82 13 -6 5 -33 9 -62 9 -45 0 -52 3 -57 22 -4 13 0 33 8
45 8 12 15 29 15 37 0 8 11 26 24 40 16 19 27 47 35 101 7 41 17 77 22 80 5 4
9 52 9 108 0 105 20 213 43 232 24 20 47 74 47 109 0 23 5 39 15 42 8 4 15 18
15 34 0 16 8 36 17 46 13 12 17 31 16 63 -1 26 4 56 12 67 8 12 19 59 24 104
6 45 13 85 16 89 2 5 5 68 6 140 0 74 5 133 10 137 6 3 14 16 20 27 5 12 14
29 20 38 10 13 8 20 -9 37 -17 17 -34 22 -74 22 -45 0 -57 4 -85 32 -20 20
-44 32 -60 33 -40 0 -39 25 1 65 20 19 36 40 36 47 0 14 33 77 42 81 4 2 17
24 29 50 12 26 25 54 30 62 5 8 12 22 16 30 4 8 13 21 20 28 7 7 13 24 13 36
0 13 7 29 15 36 8 7 15 21 15 32 0 11 7 26 15 34 8 9 15 23 15 32 0 9 14 32
30 51 17 18 30 39 30 47 0 7 4 14 8 16 11 4 52 85 52 102 0 16 29 74 48 94 6
7 12 24 12 37 0 13 8 38 17 57 9 18 22 45 30 60 7 14 13 42 13 61 0 19 7 48
15 63 8 16 15 36 15 45 0 9 7 22 15 29 8 7 15 20 15 29 0 9 7 25 15 35 8 11
15 29 15 40 0 12 7 30 15 40 8 11 15 30 15 43 0 13 4 23 9 23 5 0 13 10 16 23
10 32 68 150 83 165 6 7 12 19 12 26 0 8 7 19 15 26 8 7 15 19 15 27 0 8 7 21
15 29 8 9 15 27 15 42 0 15 7 36 15 46 8 11 15 30 15 42 0 20 45 114 76 159 8
11 14 29 14 41 0 12 7 27 15 34 8 7 15 21 15 32 0 11 7 26 15 34 8 9 15 26 15
39 0 13 5 27 11 30 5 4 14 17 20 28 5 12 13 29 18 37 17 28 41 88 41 103 0 17
28 74 48 95 6 7 12 23 12 35 0 12 7 31 15 41 8 11 15 28 15 38 0 10 4 18 8 18
10 0 42 65 42 85 0 8 -7 15 -15 15 -8 0 -15 -4 -15 -10 0 -5 -7 -10 -15 -10
-9 0 -18 -12 -21 -30 -4 -16 -13 -35 -20 -41 -8 -6 -14 -19 -14 -29 0 -10 -7
-23 -15 -30 -8 -7 -15 -20 -15 -30 0 -9 -13 -42 -30 -73 -16 -31 -30 -70 -30
-86 0 -16 -7 -34 -15 -41 -8 -7 -15 -21 -15 -31 0 -11 -4 -19 -9 -19 -5 0 -13
-10 -17 -22 -3 -12 -13 -28 -20 -36 -8 -7 -14 -19 -14 -27 0 -7 -7 -26 -15
-41 -8 -16 -15 -36 -15 -45 0 -9 -7 -22 -15 -29 -8 -7 -15 -21 -15 -32 0 -11
-7 -26 -15 -34 -8 -9 -15 -24 -15 -34 0 -10 -7 -20 -15 -24 -8 -3 -15 -15 -15
-26 0 -12 -7 -28 -15 -36 -8 -9 -15 -26 -15 -39 0 -12 -7 -36 -15 -51 -8 -16
-15 -41 -15 -56 0 -16 -4 -28 -9 -28 -5 0 -13 -10 -17 -22 -4 -13 -10 -25 -15
-28 -13 -9 -109 -199 -109 -216 0 -8 -7 -22 -15 -30 -8 -9 -15 -24 -15 -33 0
-10 -7 -24 -15 -31 -8 -7 -15 -24 -15 -39 0 -14 -7 -35 -15 -45 -8 -11 -15
-27 -15 -37 0 -9 -7 -22 -15 -29 -8 -7 -15 -23 -15 -35 0 -13 -5 -25 -12 -27
-6 -2 -13 -31 -16 -63 -3 -33 -11 -65 -18 -73 -8 -7 -14 -21 -14 -30 0 -9 -7
-26 -15 -36 -8 -11 -15 -28 -15 -38 0 -10 -13 -43 -30 -73 -16 -30 -30 -61
-30 -68 0 -19 -36 -85 -65 -120 -14 -17 -25 -36 -25 -43 0 -6 -7 -14 -15 -18
-8 -3 -15 -16 -15 -29 0 -14 -7 -30 -15 -37 -8 -7 -15 -23 -15 -36 0 -13 -4
-24 -10 -24 -5 0 -13 -12 -16 -27 -4 -16 -20 -47 -35 -71 -16 -24 -29 -52 -29
-63 0 -10 -4 -19 -9 -19 -5 0 -13 -10 -17 -22 -4 -13 -10 -25 -14 -28 -4 -3
-18 -27 -31 -55 -50 -103 -86 -143 -104 -115 -3 6 -14 10 -24 10 -10 0 -24 6
-30 14 -7 8 -28 17 -49 21 -20 4 -40 12 -44 18 -3 6 -32 12 -63 13 -32 1 -62
7 -68 13 -17 17 -247 14 -289 -3 -25 -11 -85 -16 -217 -17 -136 -2 -184 -6
-192 -16 -7 -8 -34 -13 -70 -13 -32 0 -61 -4 -64 -10 -3 -5 -16 -10 -28 -10
-12 0 -39 -9 -60 -20 -20 -11 -48 -20 -61 -20 -13 0 -26 -7 -30 -15 -3 -9 -18
-15 -39 -15 -19 0 -40 -7 -47 -15 -7 -8 -24 -15 -39 -15 -14 0 -35 -7 -45 -15
-11 -8 -27 -15 -35 -15 -26 0 -100 -41 -120 -66 -12 -16 -25 -22 -35 -18 -22
8 -56 -23 -56 -50 0 -12 -6 -30 -13 -41 -19 -28 -20 -141 -2 -175 10 -20 14
-60 13 -137 0 -60 4 -118 9 -129 6 -10 13 -53 16 -94 4 -59 2 -79 -10 -92 -14
-16 -14 -21 1 -52 21 -46 21 -269 0 -287 -19 -16 -18 -59 1 -59 8 0 15 -7 15
-15 0 -20 -17 -19 -29 2 -8 16 -12 15 -37 -10 -15 -15 -38 -30 -52 -34 -37 -9
-67 -42 -55 -61 13 -22 -7 -60 -35 -67 -15 -4 -42 3 -70 16 -46 23 -97 36
-180 46 -52 6 -59 20 -37 67 10 20 21 73 25 119 10 97 27 193 39 216 5 9 9 35
8 58 0 24 5 48 10 55 6 7 13 27 17 43 4 17 17 37 29 47 18 14 19 18 7 33 -7 9
-18 14 -24 12 -7 -3 -11 29 -12 100 l-2 105 -41 42 c-22 23 -41 47 -41 53 0 6
-7 16 -16 23 -9 9 -14 26 -12 47 4 42 21 44 28 3 8 -48 25 -31 25 25 0 28 5
57 10 66 19 31 133 149 144 149 6 0 17 15 25 34 8 19 25 47 39 63 14 15 44 51
67 78 111 132 151 176 232 257 49 48 88 91 88 96 0 22 212 222 235 222 31 0
12 -30 -75 -116 -99 -97 -135 -146 -126 -170 5 -13 10 -13 38 2 36 19 78 54
78 67 0 17 92 127 106 127 8 0 17 7 21 16 4 12 14 6 44 -28 29 -33 39 -52 39
-79 0 -46 -7 -52 -36 -32 -20 13 -24 23 -24 69 0 30 -4 54 -9 54 -23 0 -29
-121 -7 -139 8 -7 22 -27 31 -46 9 -19 22 -35 30 -35 37 0 65 163 30 176 -9 4
-15 19 -15 40 0 29 3 34 24 34 19 0 27 -8 36 -34 9 -28 19 -36 59 -49 70 -22
91 -14 91 35 0 36 -21 83 -45 101 -5 4 -32 5 -60 2 -88 -10 -152 24 -67 36 23
3 48 11 54 17 7 7 23 12 35 12 32 0 155 122 147 144 -8 22 -36 20 -81 -4 -21
-11 -43 -20 -49 -20 -6 0 -24 -13 -40 -30 -16 -16 -37 -30 -46 -30 -29 0 -30
-20 -2 -30 34 -13 19 -33 -22 -28 -27 3 -29 6 -31 51 -1 27 -6 54 -11 60 -5 7
-12 32 -16 55 -4 24 -13 51 -21 59 -8 8 -15 25 -15 38 0 13 -5 27 -10 30 -5 3
-10 14 -10 24 0 9 -6 25 -13 35 -17 23 -43 12 -63 -26 -8 -16 -30 -36 -48 -43
-19 -8 -44 -27 -58 -42 -13 -15 -43 -45 -67 -66 -34 -31 -45 -36 -57 -26 -15
13 -10 50 12 86 21 33 18 96 -6 118 -32 29 -51 13 -49 -42 1 -42 -16 -140 -27
-152 -2 -2 -10 2 -19 9 -19 16 -45 6 -45 -18 0 -11 -11 -31 -25 -46 -19 -20
-30 -25 -49 -20 -16 4 -34 0 -48 -10 -12 -9 -29 -16 -38 -16 -8 0 -30 -9 -49
-21 -31 -19 -32 -21 -17 -38 16 -18 16 -20 -9 -47 -25 -27 -25 -29 -8 -41 28
-21 48 -11 51 24 2 21 9 33 23 36 10 3 19 11 19 19 0 11 13 13 63 10 59 -4 97
-22 97 -45 0 -5 -8 -16 -17 -23 -17 -12 -17 -14 1 -27 13 -10 15 -16 7 -21 -6
-4 -14 0 -17 8 -9 25 -28 19 -62 -19 -40 -43 -42 -84 -7 -129 14 -18 25 -38
25 -44 0 -7 9 -12 19 -12 20 0 35 25 25 41 -3 6 1 21 10 34 9 13 16 42 16 64
0 38 2 41 53 66 30 14 61 23 69 20 10 -4 19 -24 23 -54 9 -64 -8 -93 -116
-203 -48 -47 -104 -108 -125 -134 -21 -27 -46 -55 -54 -64 -44 -48 -88 -100
-110 -130 -13 -19 -40 -53 -60 -74 -19 -22 -45 -50 -57 -64 -12 -13 -37 -44
-55 -68 -18 -24 -39 -46 -47 -49 -16 -7 -57 32 -62 60 -3 16 -13 20 -54 23
-103 5 -135 27 -135 92 0 22 -5 49 -12 60 -15 24 -6 34 25 26 20 -5 26 -14 32
-52 4 -26 11 -58 16 -72 9 -23 13 -24 64 -19 48 5 56 3 65 -14 8 -14 21 -19
50 -19 37 0 40 2 40 28 0 15 19 56 43 92 23 36 56 90 72 120 17 30 45 64 62
75 28 17 32 26 33 63 0 23 -4 42 -9 42 -10 0 -124 -60 -131 -69 -12 -16 -79
-51 -98 -51 -11 0 -27 11 -35 24 -9 13 -37 34 -63 48 -62 32 -67 48 -16 48 23
0 45 6 52 15 7 8 19 15 27 15 27 0 73 56 73 89 0 41 -19 50 -42 18 -11 -15
-26 -27 -34 -27 -8 0 -17 -8 -21 -17 -17 -49 -63 -69 -82 -36 -7 13 -5 26 7
46 14 23 21 27 44 21 30 -6 39 11 17 33 -8 8 1 23 33 57 61 64 68 73 68 90 0
8 9 18 20 21 19 6 28 39 13 48 -5 3 -39 0 -76 -7 l-69 -11 -37 -70 c-38 -71
-53 -82 -97 -71 -19 5 -24 13 -24 39 0 26 -8 38 -40 62 l-40 29 24 21 c44 38
67 89 60 134 -10 62 -41 57 -114 -18 -57 -57 -60 -59 -109 -58 l-51 1 0 70 c0
71 -11 109 -24 87 -4 -6 -7 -50 -7 -98 1 -112 -6 -153 -25 -146 -8 3 -35 -13
-63 -38 -27 -24 -63 -56 -81 -71 -17 -15 -29 -32 -25 -38 7 -12 52 -14 57 -2
8 18 70 52 95 52 18 0 36 10 54 31 18 21 33 30 43 26 13 -5 15 -11 7 -25 -6
-11 -8 -36 -4 -56 4 -27 1 -42 -12 -56 -10 -11 -14 -26 -10 -39 7 -24 -11 -64
-28 -58 -7 2 -15 21 -18 41 -5 30 -2 40 12 49 25 16 25 53 0 60 -11 2 -24 0
-29 -5 -5 -5 -18 -11 -28 -12 -13 -2 -22 -15 -28 -44 -9 -37 -13 -42 -37 -42
-15 0 -31 -4 -34 -10 -3 -5 -28 -10 -54 -10 -26 0 -56 -7 -67 -15 -22 -16 -70
-20 -79 -5 -3 5 1 26 10 46 19 46 19 104 0 130 -8 10 -15 29 -15 41 0 12 -4
25 -10 28 -13 8 -13 48 2 79 9 21 8 29 -5 43 -8 10 -17 29 -19 43 -2 19 -10
26 -32 28 -19 2 -32 -2 -38 -12 -5 -9 -17 -16 -27 -16 -11 0 -21 -7 -25 -15
-3 -8 -12 -15 -19 -15 -8 0 -20 -7 -27 -15 -7 -8 -19 -15 -28 -15 -8 0 -23 -7
-33 -16 -27 -24 -39 -8 -39 51 0 53 1 56 41 80 22 15 48 29 57 33 32 12 71 62
78 99 8 50 30 83 54 83 21 0 35 -16 21 -24 -5 -4 -8 -38 -7 -76 3 -61 0 -72
-16 -81 -25 -13 -14 -29 21 -29 22 0 33 7 46 33 30 57 40 71 79 109 32 32 41
36 57 27 31 -16 23 -89 -11 -106 -29 -14 -90 -72 -90 -84 0 -5 15 -9 34 -9 28
0 36 5 46 31 12 29 15 30 54 23 23 -3 44 -12 49 -18 7 -12 27 9 27 30 0 15 79
64 85 53 10 -15 34 -10 52 11 34 39 73 11 87 -63 15 -81 76 -48 79 44 2 44 -2
58 -20 76 -17 17 -21 29 -16 58 5 30 2 39 -17 52 -31 22 -49 69 -43 115 7 52
-10 50 -70 -7 -49 -46 -73 -53 -108 -34 -28 15 -73 -3 -107 -41 -17 -19 -36
-30 -53 -30 -16 0 -33 -9 -43 -22 l-15 -23 -19 22 c-16 18 -28 21 -78 20 -37
-2 -69 -9 -85 -20 -23 -15 -26 -23 -22 -55 4 -30 0 -41 -19 -58 -19 -18 -31
-20 -73 -15 l-50 6 -3 103 -3 103 28 -3 c22 -2 29 -9 33 -33 6 -37 36 -42 32
-5 -1 14 -9 30 -17 36 -20 15 -19 27 4 48 27 24 41 12 41 -35 0 -28 4 -39 15
-39 8 0 15 5 15 10 0 6 11 22 25 36 19 19 23 29 15 39 -6 7 -9 43 -8 81 2 83
-11 107 -81 152 -27 18 -52 32 -56 32 -16 0 -44 -48 -45 -76 0 -17 -7 -37 -15
-44 -10 -9 -15 -32 -15 -76 0 -34 -5 -66 -10 -69 -8 -5 -7 -11 1 -21 10 -12 3
-24 -41 -64 -54 -51 -70 -60 -70 -37 0 19 53 67 73 67 9 0 17 7 17 15 0 45
-93 -12 -135 -82 -25 -43 -15 -63 33 -63 35 0 44 6 76 45 21 25 42 45 47 45 5
0 9 -34 9 -75 0 -85 -8 -103 -77 -173 -24 -24 -43 -51 -43 -61 0 -29 -22 -41
-72 -41 -44 0 -48 2 -48 24 0 13 -6 37 -14 53 -34 66 -76 161 -76 170 0 17
-46 53 -67 53 -11 0 -26 -7 -33 -15 -7 -9 -29 -15 -54 -15 -29 0 -49 -7 -67
-22 -14 -13 -33 -28 -44 -34 -10 -5 -37 -37 -60 -70 -29 -41 -48 -58 -60 -56
-39 7 -145 -75 -210 -163 l-20 -28 -60 52 c-69 58 -94 63 -140 23 -17 -15 -47
-35 -64 -44 -21 -12 -31 -24 -29 -35 5 -29 41 -26 78 7 33 30 73 39 85 20 3
-5 17 -10 31 -10 26 0 79 -49 90 -84 7 -20 -10 -36 -40 -36 -10 0 -38 -13 -63
-30 -24 -16 -53 -30 -64 -30 -14 0 -19 -7 -19 -30 0 -16 5 -30 10 -30 6 0 19
-9 31 -21 l21 -21 -34 -28 c-24 -21 -30 -31 -22 -40 8 -8 14 -7 23 4 8 9 23
13 39 10 15 -2 34 0 42 5 12 8 12 14 1 34 -10 20 -11 29 -1 48 7 13 19 28 26
32 19 11 18 37 -1 37 -8 0 -15 -7 -15 -15 0 -8 -7 -15 -15 -15 -8 0 -15 7 -15
15 0 8 6 15 14 15 8 0 17 8 21 18 6 16 7 16 19 0 18 -24 23 -23 63 12 21 19
45 30 63 30 31 0 41 17 15 26 -8 4 -15 12 -15 20 0 8 -7 14 -15 14 -20 0 -20
49 0 56 8 4 15 12 15 19 0 6 30 40 66 74 47 45 69 60 77 52 7 -7 5 -12 -6 -17
-9 -3 -17 -12 -17 -20 0 -8 -6 -14 -14 -14 -8 0 -16 -7 -20 -15 -3 -8 -10 -15
-16 -15 -14 0 -40 -25 -40 -39 0 -5 -7 -14 -16 -19 -9 -5 -14 -18 -12 -33 4
-29 21 -32 26 -5 3 15 52 68 97 104 10 9 55 -38 55 -57 0 -6 6 -11 14 -11 10
0 15 22 18 84 5 75 9 90 39 130 18 25 36 46 41 46 4 0 8 -18 8 -40 0 -22 4
-40 10 -40 13 0 21 37 18 80 -2 26 1 35 15 38 15 3 17 -5 17 -57 0 -48 -3 -61
-15 -61 -22 0 -19 -45 5 -61 22 -15 25 -40 14 -106 -7 -48 4 -55 35 -24 40 40
46 63 48 201 1 74 3 141 3 148 0 6 7 12 15 12 10 0 15 -11 16 -32 1 -18 5 -46
9 -63 l7 -30 12 30 c13 29 13 30 23 8 8 -17 7 -31 -6 -58 -15 -31 -15 -38 -2
-63 8 -15 17 -35 20 -44 9 -31 28 -20 24 14 -2 25 1 34 15 36 12 3 17 -3 17
-20 0 -13 7 -32 15 -42 17 -23 20 -56 5 -56 -6 0 -19 9 -31 21 -14 14 -28 19
-44 15 -19 -5 -25 -1 -34 24 -13 39 -31 39 -31 0 0 -34 21 -73 60 -110 48 -45
80 -193 45 -206 -8 -4 -15 -12 -15 -20 0 -7 -7 -17 -16 -22 -22 -12 -27 -98
-7 -135 13 -26 13 -31 -4 -49 -18 -20 -18 -20 -40 7 -13 14 -23 39 -23 55 0
29 -6 38 -44 64 -26 17 -12 37 22 30 30 -5 58 8 48 24 -4 6 -20 7 -42 2 -20
-5 -42 -6 -49 -4 -6 3 -18 -2 -25 -11 -16 -20 -56 -19 -64 1 -7 19 -26 9 -26
-14 0 -10 -27 -46 -60 -80 -33 -35 -60 -72 -60 -83 0 -23 18 -25 26 -4 4 8 12
15 19 15 7 0 16 11 19 25 4 14 11 25 16 25 6 0 10 -11 10 -25 0 -16 -6 -25
-15 -25 -8 0 -15 -8 -15 -18 0 -22 -42 -47 -64 -39 -12 5 -13 -1 -9 -27 3 -20
1 -36 -6 -40 -19 -12 -12 -54 10 -67 19 -10 25 -7 45 17 13 16 23 35 24 42 0
22 28 24 48 4 14 -14 28 -18 47 -15 34 7 42 28 19 54 -22 25 -9 52 27 57 13 2
28 10 32 18 15 26 53 17 67 -15 6 -16 20 -37 31 -47 18 -16 19 -15 28 9 9 22
38 47 55 47 3 0 6 -17 6 -37 0 -47 11 -66 34 -57 15 6 17 2 11 -32 -10 -56
-26 -70 -56 -51 -34 22 -200 38 -242 23 -18 -6 -33 -15 -32 -21 0 -10 62 -45
80 -45 6 0 18 -9 28 -20 9 -11 26 -20 37 -20 11 0 20 -4 20 -10 0 -5 11 -10
24 -10 14 0 27 -4 30 -9 8 -12 88 -51 106 -51 7 0 19 8 27 18 12 15 13 14 8
-15 -6 -29 -4 -33 14 -33 11 0 23 -5 26 -11 4 -5 17 -15 28 -20 12 -5 36 -18
52 -29 17 -11 40 -24 53 -30 29 -13 28 -28 -3 -42 -19 -8 -31 -8 -50 0 -14 7
-33 12 -42 12 -9 0 -21 7 -27 15 -8 10 -39 16 -99 20 -49 3 -97 10 -107 15
-10 6 -44 10 -74 10 -47 0 -59 4 -81 27 -14 15 -25 34 -25 41 0 15 -47 59 -73
68 -18 6 -56 -29 -57 -52 0 -6 -7 -17 -15 -24 -17 -14 -20 -66 -5 -75 18 -11
11 -35 -14 -44 -26 -11 -116 -96 -116 -111 0 -5 9 -19 20 -30 20 -20 20 -20
66 15 25 19 54 35 64 35 9 0 23 7 30 15 7 8 21 15 32 15 11 0 31 9 46 20 30
24 42 14 42 -38 0 -26 4 -33 18 -30 13 2 17 13 17 45 0 56 28 87 70 78 16 -4
79 -10 138 -13 103 -7 126 -15 127 -43 0 -8 -53 -19 -91 -19 -15 0 -30 -4 -33
-9 -3 -5 -26 -12 -51 -15 -24 -4 -47 -11 -50 -15 -2 -5 -20 -12 -39 -15 -19
-4 -39 -13 -46 -21 -7 -8 -25 -15 -40 -15 -15 0 -33 -7 -40 -15 -7 -9 -30 -15
-54 -15 -22 0 -50 -7 -60 -15 -11 -8 -36 -15 -57 -15 -20 0 -42 -7 -49 -15 -7
-8 -21 -15 -31 -15 -11 0 -49 -28 -85 -63 l-66 -62 6 -50 c5 -42 2 -54 -13
-67 -10 -9 -21 -22 -23 -29 -6 -18 -25 -4 -54 42 -23 37 -87 85 -174 133 -19
10 -59 35 -88 55 -30 20 -73 47 -97 61 -24 14 -57 36 -74 50 -16 14 -45 36
-63 50 -18 13 -47 39 -64 57 -20 20 -43 33 -65 35 -32 3 -34 5 -35 42 0 43
-14 55 -34 31 -16 -20 -56 -19 -64 1 -3 8 -11 12 -17 9 -8 -5 -8 -10 0 -18 20
-20 12 -37 -19 -37 -16 0 -30 -4 -30 -10 0 -5 -12 -13 -27 -16 -15 -4 -37 -19
-49 -33 -20 -22 -23 -37 -24 -100 l0 -74 26 39 c14 21 37 50 49 64 13 14 25
41 27 60 3 31 6 35 35 38 36 4 41 -7 19 -41 -11 -17 -16 -79 -21 -258 l-7
-237 30 -55 c16 -30 33 -76 36 -101 4 -25 14 -58 22 -74 7 -15 14 -32 14 -37
0 -6 14 -25 30 -43 37 -41 40 -66 7 -57 -12 4 -27 13 -32 20 -6 7 -27 21 -47
32 -20 11 -52 37 -70 58 -18 20 -52 50 -75 67 l-43 29 0 -24 c0 -14 7 -28 17
-32 17 -6 17 -7 1 -19 -26 -19 -22 -36 7 -36 27 0 74 -26 88 -47 4 -7 16 -13
26 -13 10 0 24 -7 31 -15 7 -8 17 -15 22 -15 6 0 27 -14 48 -30 21 -17 42 -30
47 -30 6 0 32 -21 59 -46 27 -26 64 -54 82 -64 18 -10 43 -28 55 -41 23 -24
51 -40 142 -80 28 -12 52 -25 55 -28 9 -12 131 -71 146 -71 16 0 60 -29 104
-70 33 -29 38 -33 112 -84 l58 -39 0 -72 c0 -42 5 -76 12 -83 8 -8 13 -55 14
-137 1 -69 6 -131 12 -138 15 -19 40 -117 47 -181 3 -33 10 -65 16 -72 6 -7
13 -43 15 -79 2 -37 11 -76 19 -88 9 -14 15 -45 15 -85 0 -38 6 -75 16 -94 11
-22 15 -46 11 -77 -6 -49 9 -193 22 -226 14 -33 11 -107 -5 -141 -18 -37 -12
-54 16 -54 26 0 33 -29 36 -140 1 -52 3 -98 3 -103 1 -4 12 -12 26 -17 15 -6
25 -17 25 -30 0 -30 23 -24 43 11 21 37 22 49 3 49 -17 0 -25 58 -22 150 l2
65 35 -3 c63 -5 78 -60 29 -108 -38 -37 -42 -95 -8 -112 l23 -11 -23 -7 c-44
-13 -16 -29 60 -34 41 -3 81 -10 89 -17 19 -16 118 -29 194 -26 33 1 140 4
238 6 113 3 183 9 190 16 6 6 25 11 43 11 17 0 37 7 44 15 7 8 25 15 40 15 25
0 136 50 183 82 57 39 97 99 97 145 0 34 39 83 66 83 16 0 24 7 26 22 2 12 9
23 16 26 16 5 16 -40 0 -56 -7 -7 -15 -41 -19 -77 -4 -40 -13 -73 -24 -85 -11
-12 -14 -26 -10 -39 19 -61 75 30 75 123 0 30 5 58 10 61 6 3 10 40 10 81 0
41 4 82 10 92 5 9 17 53 25 97 28 139 32 153 49 170 10 11 13 22 8 31 -9 16 5
89 33 184 10 30 21 89 25 130 4 41 13 88 19 103 6 16 11 45 11 67 0 21 7 51
15 66 10 19 15 58 15 117 0 71 3 87 15 87 8 0 15 -4 15 -9 0 -12 98 -61 123
-61 12 0 31 -7 41 -15 11 -8 31 -15 45 -15 14 0 35 -7 45 -15 11 -8 39 -15 62
-15 23 0 44 -5 46 -12 2 -6 32 -13 69 -16 35 -2 69 -8 74 -12 6 -4 30 -10 55
-14 24 -4 49 -11 55 -16 6 -5 31 -10 55 -12 40 -3 45 -6 48 -30 3 -22 9 -27
34 -30 l31 -3 -2 -130 c-1 -132 12 -204 39 -213 17 -6 31 19 24 41 -4 11 4 28
20 44 25 24 27 25 44 9 13 -11 37 -16 80 -16 38 0 64 -5 69 -12 9 -15 69 -48
86 -48 7 0 26 -7 42 -16 17 -8 53 -18 80 -21 28 -3 56 -11 64 -17 19 -15 329
-15 339 0 4 6 22 15 40 19 18 4 45 13 60 21 15 8 33 14 40 14 6 0 12 4 12 8 0
4 12 13 28 19 15 7 36 18 47 25 11 7 21 13 22 13 7 0 11 53 4 64 -7 11 -15 11
-45 0 -49 -18 -55 -6 -17 33 17 17 31 38 31 45 0 8 6 16 14 19 20 8 29 34 17
48 -17 20 -1 56 25 56 13 0 27 7 32 16 11 20 32 10 32 -16 0 -10 7 -20 15 -24
17 -6 20 -41 5 -51 -5 -3 -12 6 -16 20 -3 14 -12 25 -20 25 -21 0 -19 -86 2
-94 9 -4 14 -13 10 -21 -7 -20 3 -45 19 -45 15 0 25 22 25 55 0 13 5 27 10 30
6 3 10 17 10 31 0 14 8 39 17 57 13 25 16 56 15 138 -2 87 1 108 13 113 11 4
15 23 15 76 0 50 4 76 15 86 9 10 15 34 15 65 0 41 3 49 18 49 26 0 33 9 21
29 -7 11 -4 32 9 71 19 53 20 55 53 52 19 -2 53 -12 76 -23 23 -10 64 -19 91
-19 27 0 63 -7 78 -15 16 -8 52 -15 80 -15 27 0 55 -5 61 -11 5 -5 52 -12 104
-15 87 -5 117 -13 191 -51 14 -7 40 -13 56 -13 17 0 32 -5 34 -10 2 -6 21 -13
43 -17 22 -3 46 -12 53 -20 7 -7 20 -13 28 -13 9 0 22 -6 29 -13 40 -35 52
-41 94 -48 25 -3 58 -2 74 4 37 13 134 3 172 -17 17 -9 37 -16 46 -16 9 0 19
-3 23 -7 15 -16 114 -35 221 -44 107 -9 298 -2 540 21 55 5 132 9 171 10 40 0
88 7 107 15 26 11 74 15 173 15 90 0 156 5 195 15 42 11 98 15 197 13 l137 -3
5 -30 c11 -68 79 -116 94 -67 3 10 26 38 51 62 l44 43 19 -23 20 -24 55 38
c47 32 87 83 87 110 0 10 32 41 61 60 33 21 44 63 19 76 -13 7 -21 32 -29 97
-18 134 -31 405 -20 425 14 27 11 43 -13 53 -25 11 -25 9 -18 200 2 54 -1 87
-10 102 -11 18 -11 25 1 45 12 19 14 45 7 153 -9 147 -1 405 13 420 14 14 11
63 -5 88 -9 15 -15 69 -19 167 -3 80 -11 168 -17 195 -10 42 -10 64 4 129 9
47 16 129 17 205 0 69 4 162 10 206 5 44 13 145 18 225 5 80 14 158 20 173 15
38 14 133 -1 160 -8 14 -13 84 -15 192 -5 348 -22 545 -50 576 -10 13 -12 35
-7 95 5 61 2 89 -11 124 -25 68 -32 225 -11 274 9 21 16 61 16 88 0 35 4 48
12 46 17 -6 28 -83 27 -188 -1 -166 0 -216 5 -330 6 -136 13 -184 32 -226 10
-23 14 -87 16 -240 2 -135 7 -207 13 -204 11 5 12 437 2 500 -3 19 -2 50 3 67
5 22 3 56 -6 100 -19 90 -17 415 2 452 9 16 14 60 14 111 0 59 5 92 15 106 8
12 17 58 21 103 4 45 11 84 16 87 14 9 -2 24 -26 24 -21 0 -24 -6 -32 -62z
m-6745 -1644 c25 -21 31 -34 31 -64 0 -58 -16 -57 -45 4 -14 30 -32 57 -40 60
-8 3 -15 10 -15 16 0 19 38 10 69 -16z m-50 -70 c26 -44 26 -45 -5 -67 l-25
-18 -20 46 c-11 26 -18 53 -15 61 10 26 43 15 65 -22z m628 -152 c6 -4 18 -27
26 -51 18 -50 6 -91 -24 -91 -10 0 -22 -7 -27 -17 -7 -12 -17 -14 -42 -9 -24
4 -38 2 -51 -10 -19 -17 -39 -12 -39 11 0 7 7 15 15 19 8 3 15 12 15 19 0 8
-7 20 -15 27 -19 15 -20 69 -2 76 8 3 25 1 38 -5 27 -10 57 1 72 26 9 15 17
16 34 5z m-187 -86 c0 -51 -22 -63 -65 -36 -34 21 -39 40 -11 40 8 0 24 9 37
19 30 24 39 19 39 -23z m-210 -17 c0 -5 -7 -9 -15 -9 -15 0 -20 12 -9 23 8 8
24 -1 24 -14z m51 -52 c-1 -12 -15 -9 -19 4 -3 6 1 10 8 8 6 -3 11 -8 11 -12z
m435 -24 c14 -15 23 -33 22 -42 -4 -20 -28 -26 -28 -7 0 9 -8 20 -17 23 -21 8
-33 23 -33 41 0 21 30 13 56 -15z m-276 -9 c0 -31 -23 -28 -28 4 -2 15 2 22
12 22 11 0 16 -9 16 -26z m-1000 1 c0 -8 -4 -15 -10 -15 -5 0 -10 7 -10 15 0
8 5 15 10 15 6 0 10 -7 10 -15z m2530 -116 c0 -114 2 -134 18 -145 16 -12 15
-13 -8 -23 -40 -18 -60 -33 -120 -93 -31 -32 -60 -55 -63 -51 -4 3 -7 23 -7
43 0 20 -5 41 -12 48 -8 8 -8 15 0 24 7 9 7 19 2 28 -15 23 -12 34 15 74 31
46 31 56 1 56 -22 0 -23 2 -13 25 15 31 33 32 41 3 4 -18 8 -20 18 -10 10 10
10 17 0 32 -7 11 -8 20 -3 20 5 0 11 -5 13 -12 6 -16 28 -1 28 19 0 19 60 91
78 92 9 1 12 -31 12 -130z m85 21 c3 -19 10 -43 16 -52 16 -30 10 -53 -22 -81
-17 -15 -34 -27 -38 -27 -9 0 -13 219 -4 233 9 15 42 -34 48 -73z m-2606 3
c-1 -27 -4 -59 -8 -72 -5 -21 -8 -22 -19 -9 -17 21 -5 128 14 128 10 0 14 -14
13 -47z m541 16 c-17 -11 -33 -26 -37 -35 -5 -12 -9 -8 -17 17 l-11 34 40 5
c55 8 62 1 25 -21z m-95 -30 c0 -19 -6 -25 -27 -27 -32 -4 -36 10 -10 37 22
25 37 21 37 -10z m1793 -46 c16 -9 35 -26 42 -37 11 -17 10 -22 -9 -34 -11 -8
-21 -24 -21 -37 0 -36 -10 -35 -51 3 -43 40 -50 73 -22 104 20 22 24 22 61 1z
m-1788 -97 c3 -43 2 -83 -1 -88 -11 -17 -78 41 -99 85 -21 43 -19 57 9 57 10
0 24 7 31 15 7 9 23 15 34 13 19 -3 22 -11 26 -82z m2393 77 c9 -8 -40 -53
-58 -53 -25 0 -27 20 -2 29 14 6 28 15 32 20 7 12 19 14 28 4z m-1440 -29 c10
-10 -66 -104 -85 -104 -10 0 -18 3 -18 6 0 16 26 52 54 76 33 29 39 32 49 22z
m-1098 -34 c6 -9 -21 -71 -35 -80 -5 -3 -31 -3 -59 -2 -35 3 -51 8 -51 18 0 8
10 14 23 14 13 0 36 14 52 30 29 30 58 39 70 20z m375 -10 c0 -11 -2 -20 -4
-20 -2 0 -11 -3 -19 -6 -15 -5 -31 21 -21 37 11 18 44 10 44 -11z m40 -107 c0
-39 7 -72 25 -107 19 -40 22 -59 17 -86 -10 -43 -42 -55 -42 -16 0 17 -10 33
-30 48 -33 24 -37 35 -16 52 19 15 27 48 16 66 -7 12 -12 12 -22 2 -6 -6 -22
-12 -35 -12 -13 0 -26 -8 -30 -17 -4 -10 -12 -22 -20 -26 -7 -4 -13 -17 -13
-27 0 -11 -7 -20 -15 -20 -9 0 -15 9 -15 25 0 19 -5 25 -21 25 -29 0 -59 18
-59 36 0 24 31 64 50 64 10 0 23 7 30 15 7 8 22 15 34 15 12 0 28 6 34 12 10
10 17 10 32 0 27 -16 47 -15 54 4 12 31 26 2 26 -53z m510 58 c0 -14 64 -51
89 -51 19 0 90 -65 91 -82 0 -5 -9 -8 -20 -8 -11 0 -20 4 -20 9 0 5 -15 15
-34 21 -19 6 -45 21 -59 34 -18 17 -37 23 -66 23 -54 0 -60 8 -31 38 23 25 50
33 50 16z m-939 -62 c15 -15 19 -28 14 -49 -3 -16 -2 -31 4 -35 16 -9 13 -25
-5 -25 -8 0 -27 -13 -41 -30 -26 -32 -53 -40 -53 -16 0 8 3 16 8 18 4 2 18 18
31 36 16 24 20 37 12 45 -7 7 -12 6 -17 -6 -10 -27 -31 -19 -38 14 -7 36 -2
47 28 59 31 13 34 12 57 -11z m111 -6 c10 -9 18 -29 18 -44 0 -21 12 -40 45
-71 49 -46 54 -62 28 -90 -21 -24 -39 -23 -46 3 -8 29 -31 19 -38 -17 -7 -29
-7 -29 -8 -3 0 15 -8 46 -16 70 -9 24 -13 56 -9 72 4 18 0 37 -11 53 -26 40 1
60 37 27z m1232 -65 c-52 -67 -111 -128 -125 -128 -5 0 -9 -11 -9 -24 0 -13
-6 -29 -13 -35 -8 -6 -22 -29 -32 -51 -21 -46 -40 -52 -49 -15 -4 14 -11 25
-16 25 -18 0 -70 -59 -70 -80 0 -21 -14 -27 -25 -10 -10 15 -35 12 -35 -5 0
-8 7 -15 16 -15 9 0 14 -6 11 -12 -2 -7 -13 -12 -24 -11 -17 2 -22 -5 -27 -47
-7 -49 -22 -73 -31 -48 -2 7 -6 41 -9 76 -2 35 -6 64 -8 65 -33 17 -44 29 -51
57 -11 43 0 49 62 36 36 -7 52 -16 60 -33 6 -13 15 -23 21 -23 11 0 11 -6 13
150 l2 115 24 -3 c14 -1 38 -13 55 -25 17 -13 39 -26 49 -30 9 -3 17 -13 17
-22 0 -26 47 -38 70 -18 11 10 20 21 20 26 0 10 42 71 53 75 4 2 7 10 7 17 0
21 71 78 82 67 7 -7 -6 -32 -38 -74z m1186 56 c14 -35 14 -34 -20 -34 -24 0
-33 6 -40 26 -14 35 -14 34 20 34 24 0 33 -6 40 -26z m-1560 -93 c0 -66 -4
-92 -15 -101 -8 -7 -15 -21 -15 -32 0 -11 -5 -18 -12 -16 -20 7 -21 38 -3 58
13 14 16 35 15 92 -3 91 -3 88 15 88 12 0 15 -17 15 -89z m870 50 c0 -31 -4
-41 -20 -46 -43 -14 -53 19 -17 59 30 35 37 33 37 -13z m5090 -36 c0 -8 -4
-15 -10 -15 -5 0 -10 7 -10 15 0 8 5 15 10 15 6 0 10 -7 10 -15z m-6592 -63
c2 -7 -6 -12 -17 -12 -21 0 -27 11 -14 24 9 9 26 2 31 -12z m-268 -54 c0 -31
4 -41 20 -45 24 -6 25 -11 3 -35 -13 -15 -14 -23 -5 -44 7 -13 12 -35 12 -48
0 -13 7 -37 15 -52 8 -16 15 -50 15 -75 0 -25 7 -54 15 -65 26 -34 18 -44 -35
-44 -27 0 -50 -5 -50 -10 0 -6 -12 -15 -26 -20 -25 -10 -25 -30 1 -30 26 0 65
-46 65 -77 0 -16 -3 -33 -6 -36 -4 -3 -27 14 -52 38 -25 25 -49 45 -54 45 -14
0 -9 44 8 68 8 12 21 22 28 22 21 0 76 31 76 42 0 17 -31 48 -47 48 -10 0 -13
-9 -11 -27 2 -22 -1 -28 -17 -28 -17 0 -20 6 -17 41 3 30 -1 43 -12 47 -21 8
-21 66 -1 81 13 9 14 23 9 69 -6 50 -10 58 -26 55 -11 -2 -27 -16 -36 -31 -16
-27 -16 -29 6 -47 23 -19 22 -40 0 -40 -21 0 -58 43 -58 67 0 13 5 32 12 42 9
14 8 23 -5 42 -28 39 -21 47 43 54 33 4 63 11 66 17 8 12 47 27 57 21 4 -2 7
-22 7 -45z m206 -38 c-6 -36 -4 -40 14 -40 11 0 20 7 20 15 0 10 10 15 30 15
20 0 30 5 30 15 0 19 19 19 58 -1 40 -19 45 -29 28 -44 -16 -12 -56 2 -56 20
0 6 -7 10 -15 10 -10 0 -15 -10 -15 -29 0 -17 -4 -32 -9 -35 -17 -11 13 -55
39 -58 29 -3 27 7 30 -199 1 -103 -2 -144 -14 -172 -8 -20 -19 -37 -23 -37 -4
1 -25 23 -47 51 -28 37 -36 53 -27 62 8 8 5 21 -13 51 -25 44 -42 120 -51 230
-4 46 -12 77 -25 94 -26 32 -25 57 2 76 39 28 51 21 44 -24z m514 10 c0 -11
-4 -20 -9 -20 -11 0 -22 26 -14 34 12 12 23 5 23 -14z m-48 -37 c25 -22 23
-49 -5 -67 -31 -21 -65 -10 -69 22 -5 40 -28 40 -28 0 0 -43 15 -58 57 -58 36
0 44 -18 18 -40 -8 -7 -15 -22 -15 -34 0 -27 -18 -46 -42 -46 -11 0 -18 7 -18
19 0 10 -7 24 -15 31 -8 7 -15 23 -15 37 0 13 -6 34 -14 46 -31 49 -29 63 11
85 47 25 110 28 135 5z m-552 -13 c0 -11 7 -23 15 -26 12 -5 15 -26 15 -98 0
-61 5 -100 15 -120 8 -15 15 -38 15 -49 0 -11 8 -29 17 -39 11 -12 13 -22 6
-29 -30 -30 -83 47 -83 120 0 26 -3 51 -7 55 -5 4 -9 26 -10 49 -1 23 -5 61
-8 85 -4 23 -5 49 -1 57 8 22 26 18 26 -5z m-460 -38 c0 -5 -9 -17 -20 -27
-23 -21 -47 -8 -37 19 7 16 57 23 57 8z m-102 -42 c-8 -29 -16 -40 -29 -40
-32 0 -19 67 15 73 11 2 22 5 22 6 1 0 -3 -17 -8 -39z m930 4 c12 -20 22 -44
22 -53 0 -10 7 -24 15 -31 8 -7 15 -19 15 -27 0 -8 9 -26 19 -40 21 -26 18
-50 -8 -69 -13 -10 -13 -17 -1 -54 11 -33 11 -46 2 -61 -19 -30 -14 -65 14
-99 22 -26 25 -35 16 -53 -6 -12 -12 -33 -14 -47 -3 -28 -23 -35 -60 -21 -25
9 -25 10 -27 151 -1 78 -5 148 -8 157 -3 8 -6 31 -7 52 -1 29 -5 37 -23 39
-18 3 -23 10 -23 34 0 36 19 34 38 -5 14 -30 42 -36 42 -10 0 9 -11 31 -25 49
-15 20 -25 46 -25 66 0 19 -5 39 -12 46 -9 9 -8 12 8 12 11 -1 29 -16 42 -36z
m262 -33 c0 -72 10 -91 26 -52 7 17 18 31 24 31 13 0 13 -137 0 -145 -15 -9
-2 -25 21 -25 16 0 19 -7 19 -53 0 -28 -5 -68 -11 -87 -6 -19 -14 -57 -17 -85
l-7 -49 -85 1 -85 1 3 81 c2 64 -1 81 -12 81 -22 0 -37 112 -17 124 12 8 21
-18 21 -64 0 -21 4 -42 10 -45 12 -7 19 23 22 95 l3 55 40 0 c34 0 40 3 43 22
3 20 0 22 -27 17 -29 -6 -31 -4 -31 21 0 39 32 125 47 125 9 0 13 -16 13 -49z
m-335 11 c0 -18 -20 -15 -23 4 -3 10 1 15 10 12 7 -3 13 -10 13 -16z m615 -1
c0 -22 -21 -33 -40 -21 -18 11 -4 40 20 40 13 0 20 -7 20 -19z m160 -10 c16
-16 36 -31 45 -34 24 -10 18 -32 -12 -44 l-28 -10 28 -11 c30 -13 28 -32 -4
-32 -11 0 -22 -7 -25 -15 -6 -15 -74 -22 -74 -7 0 4 13 18 29 32 27 23 29 29
23 65 -7 36 -10 40 -40 43 -19 2 -32 9 -32 17 0 12 11 17 53 24 5 0 21 -12 37
-28z m221 -108 c-33 -49 -69 -107 -81 -130 -25 -48 -23 -47 -49 -31 -15 9 -28
9 -59 -1 -35 -12 -42 -11 -66 4 -41 27 -31 58 24 79 8 3 24 11 35 18 11 6 25
14 32 17 7 3 45 29 85 56 144 99 152 98 79 -12z m-421 48 c0 -10 -7 -21 -15
-25 -8 -3 -15 -12 -15 -21 0 -8 -7 -15 -15 -15 -7 0 -19 -8 -25 -17 -9 -15
-10 -11 -6 16 4 19 13 45 21 58 19 28 55 31 55 4z m66 -5 c4 -17 -4 -37 -28
-72 -19 -27 -49 -80 -67 -119 -18 -38 -39 -83 -47 -98 -19 -38 -18 -96 1 -103
21 -8 19 -34 -2 -34 -43 1 -48 14 -45 122 3 83 7 106 21 119 10 9 24 32 31 50
8 19 20 38 27 42 7 4 13 13 13 18 0 6 6 17 13 24 6 8 23 28 37 45 29 36 38 37
46 6z m84 -6 c0 -37 -22 -40 -38 -5 -16 35 -16 35 13 35 21 0 25 -5 25 -30z
m142 -15 c0 -5 -5 -11 -11 -13 -6 -2 -11 4 -11 13 0 9 5 15 11 13 6 -2 11 -8
11 -13z m1888 0 c14 -8 45 -15 70 -15 25 0 56 -7 70 -15 14 -8 36 -14 48 -15
13 0 36 -6 50 -14 15 -8 35 -17 45 -20 9 -3 17 -10 17 -16 0 -19 -38 -13 -270
41 -25 6 -49 17 -53 25 -5 9 -25 14 -62 14 -51 0 -73 9 -58 24 12 12 118 5
143 -9z m-622 -27 c-3 -7 -11 -13 -18 -13 -7 0 -15 6 -17 13 -3 7 4 12 17 12
13 0 20 -5 18 -12z m62 2 c12 -8 11 -10 -7 -10 -13 0 -23 5 -23 10 0 13 11 13
30 0z m304 1 c4 -5 -8 -12 -25 -16 -33 -7 -45 -3 -34 14 8 13 52 14 59 2z
m-430 -30 c8 -12 -19 -21 -65 -21 -37 0 -48 8 -32 23 10 10 91 8 97 -2z m344
-7 c17 -12 51 -15 149 -15 103 -1 148 -6 233 -27 106 -26 130 -39 107 -57 -6
-6 -24 -33 -39 -60 -20 -38 -38 -55 -77 -75 -27 -14 -66 -43 -86 -63 -20 -20
-40 -37 -45 -37 -4 0 -18 -15 -29 -33 -27 -44 -61 -58 -145 -63 -42 -2 -73 -8
-77 -16 -6 -9 -48 -15 -131 -20 -68 -4 -171 -10 -229 -14 -75 -4 -108 -3 -113
5 -4 6 -36 11 -74 11 -37 1 -85 7 -107 15 -22 8 -48 15 -57 15 -20 0 -95 37
-104 51 -3 5 -34 9 -69 9 -57 0 -66 3 -81 25 -10 15 -13 32 -9 47 9 28 87 108
106 108 8 0 23 7 33 15 11 8 30 15 42 15 12 0 27 7 34 15 7 8 23 15 35 15 12
0 28 7 35 15 7 9 29 15 53 15 22 0 48 6 56 14 11 10 47 16 108 19 54 2 98 9
107 17 10 8 26 10 43 5 73 -18 92 -17 119 4 21 17 35 20 63 15 32 -6 35 -5 23
9 -8 9 -11 21 -7 27 10 16 107 12 133 -6z m-460 -26 c-6 -16 -32 -22 -64 -14
-37 10 -19 26 27 26 28 0 39 -4 37 -12z m-2591 -33 c19 -8 48 -15 64 -15 33 0
46 -15 29 -35 -7 -9 -8 -15 0 -20 18 -11 11 -35 -10 -35 -13 0 -20 7 -20 20 0
16 -5 19 -23 15 -15 -4 -28 -1 -36 9 -8 9 -24 16 -36 16 -12 0 -28 7 -35 15
-7 8 -23 15 -36 15 -24 0 -38 12 -27 24 12 12 93 6 130 -9z m673 -131 l0 -124
-26 0 c-24 0 -25 2 -20 38 3 20 11 78 17 129 7 51 16 90 21 87 4 -3 8 -61 8
-130z m2996 101 c8 -20 53 -19 75 1 18 16 49 13 49 -5 0 -5 -9 -11 -20 -14
-29 -8 -27 -55 2 -59 13 -2 24 -10 26 -19 3 -19 -44 -72 -58 -64 -15 9 -12 25
5 25 17 0 21 35 5 45 -6 3 -13 -2 -17 -12 -6 -18 -32 -46 -65 -71 -11 -9 -22
-10 -35 -3 -10 5 -26 12 -35 15 -10 3 -18 15 -18 26 0 24 -25 27 -34 4 -10
-25 20 -62 51 -66 36 -4 32 -21 -7 -31 -32 -8 -37 -16 -18 -35 9 -9 9 -12 0
-12 -7 0 -12 5 -12 10 0 15 -51 12 -80 -5 -14 -8 -41 -14 -61 -15 -20 0 -42
-7 -49 -15 -16 -19 -80 -20 -80 -1 0 7 8 17 18 20 39 15 62 32 68 48 3 9 29
28 59 42 51 25 115 87 115 113 0 7 9 31 21 53 18 35 25 40 55 40 22 0 37 -6
40 -15z m-3296 -55 c19 -24 44 -43 59 -46 15 -3 35 -18 45 -33 10 -15 28 -32
39 -37 29 -13 44 -41 30 -55 -13 -13 -83 5 -83 22 0 5 -7 9 -15 9 -8 0 -15 6
-15 14 0 7 -8 16 -17 20 -10 3 -31 15 -48 25 -16 11 -49 30 -72 42 -24 13 -43
28 -43 35 0 6 -9 14 -21 17 -39 10 -8 27 51 27 56 0 59 -1 90 -40z m6256 4
c-9 -13 -16 -34 -16 -47 0 -13 -7 -32 -15 -43 -8 -10 -15 -28 -15 -40 0 -11
-7 -29 -15 -40 -8 -10 -15 -28 -15 -40 0 -11 -7 -29 -15 -40 -8 -10 -15 -29
-15 -41 0 -27 -16 -38 -24 -17 -10 25 -7 79 5 91 6 6 14 26 19 44 14 53 36
109 48 121 7 7 12 17 12 24 0 17 43 63 53 57 4 -3 1 -16 -7 -29z m-5381 12
c14 -13 18 -29 16 -55 -1 -11 -5 -10 -19 5 -22 23 -33 50 -25 58 9 9 13 8 28
-8z m2635 -42 c0 -15 -6 -24 -15 -24 -15 0 -21 40 -9 53 12 11 24 -3 24 -29z
m95 26 c7 -11 -43 -46 -52 -36 -3 3 -2 6 4 6 6 0 13 9 16 20 5 21 22 26 32 10z
m-3155 -29 c0 -28 -11 -52 -21 -45 -16 9 -11 64 6 64 8 0 15 -9 15 -19z m416
-58 c3 -13 3 -31 -1 -40 -6 -15 -10 -13 -21 15 -19 44 -33 40 -31 -10 2 -33
-2 -43 -15 -46 -15 -3 -18 4 -18 38 0 27 5 43 15 46 8 4 15 16 15 28 0 13 3
26 7 30 9 9 41 -31 49 -61z m-1502 15 c7 -12 7 -21 0 -28 -14 -14 -60 22 -50
39 10 16 36 10 50 -11z m4120 -5 c14 -46 -2 -201 -24 -244 -6 -10 -10 -51 -10
-92 0 -41 -7 -94 -15 -117 -8 -23 -15 -62 -15 -86 0 -23 -5 -55 -11 -71 -10
-26 -28 -114 -49 -242 -5 -29 -13 -58 -19 -64 -6 -6 -11 -33 -11 -60 0 -26 -6
-58 -12 -70 -7 -12 -16 -74 -19 -137 -4 -79 -12 -125 -23 -147 -20 -37 -31
-42 -39 -14 -4 16 -18 19 -130 23 -70 3 -132 10 -139 16 -7 6 -57 12 -111 15
-57 3 -103 10 -112 17 -9 7 -32 14 -52 16 -20 1 -60 5 -87 8 -43 5 -47 4 -23
-5 15 -6 27 -14 27 -19 0 -4 23 -11 50 -15 28 -4 56 -12 63 -19 17 -18 127
-38 235 -43 101 -5 116 -14 90 -56 -22 -33 -30 -223 -11 -260 15 -29 10 -47
-12 -47 -7 0 -16 -7 -19 -16 -10 -25 -31 -10 -36 26 -6 39 -33 61 -52 42 -9
-9 -9 -15 0 -24 18 -18 14 -30 -8 -23 -17 5 -20 2 -20 -24 0 -36 -18 -41 -45
-11 -12 13 -19 39 -21 70 l-2 49 91 3 c127 4 114 22 -17 26 l-105 3 -28 37
c-15 20 -33 46 -39 57 -12 23 -70 32 -94 15 -13 -9 -13 -12 3 -21 17 -10 16
-12 -3 -39 -22 -31 -26 -50 -10 -50 17 0 50 34 50 52 0 26 13 22 37 -9 25 -35
33 -83 25 -148 -6 -41 -11 -50 -27 -51 -11 -1 -27 -4 -35 -7 -8 -3 -56 -8
-107 -10 -84 -5 -93 -4 -98 14 -4 10 -35 40 -70 66 -53 39 -62 50 -54 65 5 10
18 22 29 28 25 13 27 50 3 50 -9 0 -25 -8 -35 -17 -16 -14 -24 -15 -48 -6 -18
7 -32 7 -36 2 -8 -13 -42 -11 -47 4 -3 6 -6 2 -6 -10 -2 -42 -51 -40 -51 3 0
13 -4 24 -10 24 -20 0 -9 30 25 67 20 21 50 59 67 85 23 35 41 51 67 58 61 17
71 14 71 -23 0 -43 -10 -52 -28 -26 -19 28 -33 12 -35 -41 -1 -32 -6 -44 -19
-48 -10 -2 -18 -8 -18 -13 0 -5 -9 -9 -20 -9 -11 0 -20 -6 -20 -13 0 -7 9 -18
20 -25 26 -16 52 0 77 45 20 38 40 43 45 11 2 -15 10 -23 23 -23 11 0 24 -6
28 -12 4 -7 14 -13 20 -13 7 0 21 -10 31 -21 15 -18 26 -21 63 -16 25 2 52 12
62 21 15 16 14 18 -8 35 -24 18 -24 19 -4 25 12 4 24 13 27 21 3 8 12 15 19
15 8 0 20 6 26 14 8 10 5 21 -16 49 -16 20 -36 47 -45 61 -10 14 -30 26 -45
28 -24 3 -28 7 -25 30 2 17 -4 34 -17 47 -17 17 -29 20 -68 14 -27 -3 -55 -12
-64 -19 -8 -8 -28 -14 -43 -14 -14 0 -29 -7 -32 -15 -4 -8 -16 -15 -28 -15
-11 0 -30 -7 -40 -15 -11 -8 -27 -15 -37 -15 -9 0 -22 -7 -29 -15 -18 -21 -62
-19 -110 6 -31 17 -39 26 -35 40 5 14 -1 22 -19 31 -14 6 -26 15 -26 20 0 4
-9 8 -19 8 -11 0 -26 6 -33 14 -8 7 -33 17 -56 21 -55 9 -56 33 -2 69 22 14
50 41 61 59 27 41 95 92 134 101 16 4 47 21 69 37 32 23 50 29 92 29 29 0 56
5 59 10 3 6 21 10 39 10 19 0 39 7 46 15 7 8 19 15 26 15 32 0 213 149 214
175 0 13 78 95 109 115 13 8 41 32 64 53 38 35 41 43 42 90 l0 51 69 1 c43 1
72 7 74 13 2 7 16 12 30 13 15 0 50 14 77 30 28 16 57 32 65 36 8 3 36 26 62
50 39 35 54 43 86 43 23 0 45 6 52 15 7 8 20 15 29 15 26 0 93 73 85 93 -7 20
1 47 15 47 5 0 12 -8 15 -17z m3228 -11 c3 -9 1 -26 -3 -37 -6 -15 -8 -11 -8
18 -1 40 4 48 11 19z m-6752 -6 c0 -7 -9 -16 -20 -19 -19 -5 -28 12 -13 26 11
12 33 7 33 -7z m994 -9 c5 -23 -12 -67 -47 -117 -16 -24 -16 -25 3 -32 11 -4
20 -14 20 -23 0 -13 -11 -15 -67 -13 -39 2 -68 8 -70 15 -6 18 58 85 75 78 20
-8 32 12 32 56 0 55 42 83 54 36z m127 11 c1 -7 1 -17 0 -21 -1 -7 7 -19 37
-52 15 -16 16 -41 2 -50 -5 -3 -10 -26 -10 -51 0 -53 -13 -56 -74 -20 -23 13
-45 23 -51 22 -23 -3 -15 126 10 160 13 18 14 17 26 -9 15 -34 35 -30 31 6 -2
19 1 27 12 27 9 0 17 -6 17 -12z m-841 -34 c0 -8 -4 -12 -10 -9 -5 3 -10 13
-10 21 0 8 5 12 10 9 6 -3 10 -13 10 -21z m-220 1 c7 -8 18 -15 24 -15 6 0 16
-13 22 -29 10 -26 17 -29 70 -33 44 -4 63 -2 76 9 20 18 35 10 92 -54 29 -32
46 -43 68 -43 19 0 28 -4 26 -12 -7 -22 -137 -23 -175 -2 -18 9 -33 22 -33 27
0 22 -34 47 -65 47 -18 0 -38 7 -45 15 -7 8 -24 15 -39 15 -39 1 -85 42 -76
69 7 24 37 28 55 6z m3550 -21 c0 -15 -6 -24 -15 -24 -15 0 -21 40 -9 53 12
11 24 -3 24 -29z m-4161 -5 c27 -25 23 -43 -10 -47 -13 -2 -32 -10 -43 -18
-11 -8 -28 -14 -37 -14 -9 0 -22 -7 -29 -15 -7 -8 -21 -15 -31 -15 -11 0 -19
7 -19 15 0 8 6 15 13 15 14 0 87 68 87 81 0 6 13 12 41 18 3 0 15 -8 28 -20z
m1249 -82 l3 -37 -67 3 c-38 1 -69 -2 -71 -8 -8 -24 -21 -35 -43 -37 -22 -3
-25 1 -25 27 0 24 5 31 23 33 l22 3 -22 20 c-33 27 -14 34 89 34 l88 -1 3 -37z
m69 -7 c10 -38 9 -40 -13 -40 -19 0 -24 5 -24 24 0 29 9 56 19 56 4 0 12 -18
18 -40z m2840 23 c3 -9 1 -35 -5 -59 -6 -23 -15 -86 -18 -139 -6 -86 -15 -117
-31 -102 -3 3 -4 59 -4 124 1 87 6 122 16 133 8 9 15 26 15 38 0 26 18 29 27
5z m-5331 -39 c-6 -16 10 -28 19 -14 12 20 50 10 86 -23 19 -17 57 -50 84 -72
27 -22 57 -48 67 -57 10 -10 20 -18 22 -18 2 0 28 -16 58 -35 80 -52 89 -59
104 -73 7 -7 21 -16 31 -20 10 -4 53 -27 94 -51 53 -31 82 -56 97 -82 12 -21
35 -46 52 -56 25 -14 30 -24 30 -54 0 -20 7 -42 15 -49 8 -7 15 -29 15 -49 0
-21 7 -46 15 -57 8 -10 15 -35 15 -55 0 -48 27 -62 32 -17 2 17 9 33 16 36 17
5 15 -25 -5 -59 -16 -27 -16 -32 -1 -74 9 -25 13 -47 8 -50 -5 -3 -9 -18 -9
-33 0 -15 -2 -49 -5 -77 -3 -27 0 -113 8 -190 7 -77 11 -143 9 -147 -6 -12
-20 -10 -35 5 -7 7 -40 34 -73 60 -33 26 -85 67 -115 91 -30 25 -59 45 -64 46
-10 0 -35 22 -64 54 -47 53 -101 99 -145 122 -47 24 -50 25 -83 9 -19 -9 -34
-20 -34 -24 0 -5 24 -11 53 -14 59 -6 97 -23 130 -59 13 -14 36 -33 50 -43 15
-9 27 -24 27 -31 0 -16 -26 -19 -35 -4 -4 6 -21 17 -38 25 -18 8 -48 25 -67
37 -57 35 -113 67 -138 78 -24 10 -22 30 4 30 8 0 14 7 14 15 0 8 -9 15 -20
15 -11 0 -20 -7 -20 -15 0 -16 -18 -20 -35 -7 -21 15 -54 71 -46 76 5 4 21 -7
34 -24 28 -33 47 -39 47 -15 0 8 9 15 20 15 11 0 20 -7 20 -15 0 -9 9 -15 25
-15 32 0 32 18 1 30 -13 5 -27 14 -31 19 -3 6 -17 11 -29 11 -13 0 -29 7 -36
15 -7 8 -21 15 -31 15 -11 0 -19 4 -19 9 0 6 -20 29 -45 52 -25 24 -48 54 -52
68 -3 14 -12 35 -19 45 -8 11 -11 30 -8 42 4 14 -6 43 -27 80 -34 63 -35 70
-31 274 1 41 1 86 2 100 0 14 0 48 0 75 1 71 31 167 48 153 7 -6 11 -17 8 -24z
m1733 23 c13 -16 5 -27 -21 -27 -20 0 -21 1 -12 24 7 20 18 20 33 3z m1731
-12 c0 -8 -4 -15 -9 -15 -13 0 -22 16 -14 24 11 11 23 6 23 -9z m-1559 -31 c8
-8 21 -14 27 -14 7 0 12 -7 12 -15 0 -19 -41 -29 -83 -21 -32 7 -73 49 -63 65
8 13 88 1 107 -15z m-2058 9 c7 -7 -39 -53 -53 -53 -21 0 -21 24 1 41 25 20
41 23 52 12z m3767 -2 c0 -13 -56 -24 -72 -15 -8 5 -6 10 8 15 27 11 64 11 64
0z m1237 -5 c11 -10 -10 -26 -33 -26 -21 0 -24 -4 -19 -19 6 -19 2 -20 -67
-16 -64 4 -69 3 -40 -7 42 -14 36 -34 -9 -30 -19 1 -86 3 -150 4 l-116 1 21
21 c18 18 36 22 111 25 64 2 92 7 98 17 5 9 25 14 56 14 32 0 53 5 62 16 9 11
23 14 47 10 19 -3 37 -7 39 -10z m-3145 -5 c13 -5 35 -12 51 -15 19 -5 27 -13
27 -27 0 -17 -5 -20 -27 -15 -16 3 -64 8 -109 11 -65 6 -84 4 -96 -9 -8 -8
-37 -16 -63 -18 -28 -2 -50 -8 -53 -15 -6 -19 83 -17 101 1 18 19 132 25 148
9 9 -9 2 -13 -27 -18 -22 -3 -60 -13 -87 -21 -31 -11 -63 -14 -95 -10 -26 4
-82 10 -124 14 -42 4 -79 10 -83 14 -13 13 6 28 34 28 16 0 42 7 57 15 16 8
40 15 54 15 15 0 32 6 38 12 7 7 59 18 115 24 56 6 105 12 109 13 4 0 17 -3
30 -8z m1798 -22 c0 -5 -7 -9 -15 -9 -15 0 -20 12 -9 23 8 8 24 -1 24 -14z
m-1142 -77 c2 -29 -1 -52 -5 -52 -24 1 -63 53 -63 84 0 13 31 26 55 21 6 -1
11 -25 13 -53z m185 43 c28 -12 22 -37 -8 -29 l-24 6 19 -40 c18 -36 36 -52
61 -52 15 0 10 27 -6 34 -8 3 -15 12 -15 21 0 8 7 15 15 15 8 0 15 -7 15 -15
0 -8 7 -15 15 -15 18 0 20 21 4 37 -15 15 -3 32 29 44 22 9 29 6 44 -13 l18
-23 6 23 c4 12 14 22 25 22 21 0 34 -16 19 -25 -17 -10 -11 -22 12 -28 13 -4
29 0 38 8 22 20 40 18 68 -4 24 -21 29 -41 9 -41 -16 0 -47 -36 -47 -55 0 -7
-5 -17 -11 -20 -5 -4 -15 -19 -20 -33 l-10 -26 -40 42 c-21 24 -39 51 -39 60
-1 9 -10 28 -20 41 l-20 23 -25 -23 c-13 -13 -25 -32 -25 -43 0 -15 5 -17 28
-12 15 3 21 3 15 0 -7 -3 -13 -14 -13 -25 0 -10 -7 -19 -15 -19 -8 0 -15 9
-15 20 0 11 -7 20 -15 20 -8 0 -15 -7 -15 -15 0 -9 7 -18 15 -21 8 -4 15 -17
15 -30 0 -14 7 -27 15 -30 8 -4 15 -18 15 -33 0 -14 10 -42 21 -61 20 -32 22
-33 35 -15 25 34 8 135 -22 135 -17 0 -17 1 -4 35 11 29 30 25 30 -6 0 -10 4
-19 9 -19 6 0 16 -12 23 -27 22 -44 43 -51 73 -23 14 13 25 30 25 37 0 27 32
63 56 63 13 0 24 -5 24 -11 0 -7 7 -17 16 -23 19 -14 21 -93 4 -127 -23 -42
-92 -109 -114 -109 -11 0 -30 -7 -40 -15 -11 -8 -29 -15 -40 -15 -12 0 -30 -7
-40 -15 -11 -8 -34 -15 -51 -15 -18 0 -46 -7 -63 -16 -42 -21 -67 -15 -67 15
0 31 -17 37 -47 17 -16 -10 -64 -16 -163 -19 -77 -3 -164 -10 -194 -16 -63
-12 -71 -9 -71 27 -1 15 -12 45 -25 67 -38 61 -39 67 -22 80 12 9 14 19 7 48
-11 51 -30 74 -44 55 -6 -8 -19 -17 -29 -21 -20 -8 -14 -27 9 -27 9 0 14 -11
14 -35 0 -19 -4 -35 -9 -35 -13 0 -45 52 -47 75 0 11 -3 26 -5 34 -3 10 6 17
26 21 34 6 47 38 21 52 -20 11 -21 38 -1 38 8 0 15 -6 15 -12 0 -7 14 -22 30
-33 18 -12 30 -29 30 -42 0 -12 8 -27 19 -32 30 -16 35 -44 12 -63 -25 -20
-27 -44 -4 -52 11 -5 23 1 35 16 19 25 24 58 8 58 -5 0 -10 7 -10 15 0 26 20
17 66 -30 28 -29 44 -55 44 -70 0 -34 33 -33 48 0 9 20 19 25 51 25 48 0 72
23 41 40 -11 6 -30 8 -40 5 -26 -8 -25 6 1 29 17 14 23 15 30 5 4 -7 11 -10
15 -6 4 4 2 13 -4 19 -36 36 15 52 56 19 19 -17 22 -28 22 -100 0 -85 7 -96
42 -64 10 9 18 27 18 40 0 24 23 32 35 13 5 -8 11 -7 21 1 22 18 17 36 -16 59
-16 12 -30 26 -30 31 0 12 47 12 55 -1 14 -22 25 -8 25 33 0 50 -15 82 -26 54
-11 -28 -34 -20 -34 12 0 16 -6 31 -12 34 -7 2 -13 16 -13 32 0 15 -5 30 -12
32 -15 5 -43 -48 -43 -81 0 -14 -5 -37 -11 -53 l-10 -28 -19 25 c-29 38 -34
59 -16 79 9 10 16 31 16 47 0 21 8 33 28 45 27 17 91 19 125 4z m1127 0 c14
-8 36 -14 48 -15 13 0 38 -6 55 -14 18 -8 81 -16 146 -19 63 -3 119 -11 124
-16 7 -7 94 -11 247 -11 242 0 260 -3 260 -39 0 -9 -12 -24 -26 -34 -25 -18
-26 -18 -39 0 -11 14 -16 16 -26 6 -10 -10 -9 -16 5 -26 17 -13 17 -14 2 -20
-10 -4 -19 -1 -22 8 -8 19 -43 19 -50 0 -4 -8 -16 -15 -29 -15 -13 0 -25 -7
-29 -15 -3 -8 -17 -15 -31 -15 -14 0 -25 -4 -25 -10 0 -5 -7 -10 -15 -10 -8 0
-40 -13 -70 -30 -30 -16 -62 -30 -69 -30 -7 0 -19 -7 -26 -15 -7 -8 -18 -15
-26 -15 -7 0 -33 -13 -57 -30 -25 -16 -50 -30 -55 -30 -6 0 -15 -7 -19 -15 -5
-8 -31 -18 -58 -21 -28 -4 -53 -11 -56 -17 -4 -5 -30 -11 -57 -12 -28 -2 -55
-6 -60 -9 -29 -17 47 -109 99 -120 21 -4 29 -11 29 -26 0 -11 -7 -20 -16 -20
-47 0 -184 -98 -184 -132 0 -6 -11 -7 -26 -4 -20 5 -32 1 -52 -19 -20 -20 -23
-28 -13 -35 8 -4 10 -13 6 -20 -6 -10 -11 -9 -21 4 -9 13 -19 16 -35 11 -20
-7 -21 -5 -14 16 4 13 10 46 14 74 6 48 8 51 46 63 44 15 75 38 75 59 0 20
-54 16 -75 -7 -10 -11 -24 -20 -30 -20 -7 0 -15 -9 -18 -21 -3 -12 -11 -19
-18 -17 -22 7 -22 29 0 35 25 6 27 25 6 43 -11 9 -15 34 -15 100 0 49 -5 111
-12 139 -9 41 -9 56 2 76 11 21 11 27 -3 42 -11 13 -17 46 -20 126 l-4 107 28
0 c15 0 32 -6 36 -13 4 -8 26 -17 48 -20 22 -4 41 -11 43 -17 6 -16 62 -12 62
5 0 19 -62 45 -106 45 -24 0 -34 5 -34 15 0 20 124 20 160 0z m-1659 -25 c10
-6 19 -16 19 -23 0 -7 12 -26 28 -42 28 -30 52 -70 52 -86 0 -22 -42 -5 -79
31 -22 22 -44 40 -50 40 -5 0 -11 7 -15 15 -3 8 -10 15 -17 15 -14 0 -49 42
-42 52 6 12 81 10 104 -2z m145 -1 c4 -8 9 -8 17 0 6 6 23 11 38 11 22 0 34
-10 58 -46 17 -25 31 -49 31 -53 0 -5 7 -14 15 -21 22 -18 18 -45 -7 -63 -13
-8 -36 -26 -53 -41 -34 -30 -38 -30 -68 -15 -31 17 -37 28 -37 74 0 33 -8 48
-46 89 -24 27 -43 55 -40 63 6 16 82 18 92 2z m-284 -34 c7 -9 19 -22 26 -30
6 -7 12 -28 12 -45 0 -30 -1 -31 -34 -25 -28 6 -34 4 -39 -14 -3 -13 -13 -21
-27 -21 -17 0 -21 -5 -18 -27 3 -24 -1 -28 -27 -33 -25 -4 -33 -13 -50 -58
-14 -37 -27 -54 -42 -58 -31 -8 -29 -22 5 -35 15 -6 50 -28 79 -50 42 -32 60
-39 96 -39 27 0 49 -6 57 -15 10 -12 40 -15 146 -15 127 0 164 -9 112 -26 -13
-5 -139 -7 -280 -5 -201 2 -264 5 -285 16 -16 8 -53 15 -83 15 -30 1 -66 7
-80 15 -28 16 -86 20 -94 6 -11 -18 -90 -33 -119 -22 -44 17 -31 30 33 33 79
4 81 21 5 30 -106 11 -165 42 -165 87 0 10 -7 24 -15 31 -8 7 -15 25 -15 41 0
15 -7 32 -16 37 -12 7 -14 15 -8 33 4 13 8 33 8 44 1 15 9 21 35 23 19 2 44
10 55 18 11 8 36 14 56 14 19 0 53 5 75 11 21 6 100 12 175 13 84 0 142 5 151
12 8 6 31 14 51 18 20 4 50 13 65 21 38 20 138 20 155 0z m-635 -10 c3 -9 3
-18 1 -21 -8 -8 -58 15 -58 26 0 16 50 12 57 -5z m7234 -157 c-2 -10 -7 -18
-12 -18 -11 0 -12 141 -1 167 7 19 20 -117 13 -149z m-7347 146 c22 -8 2 -34
-26 -34 -16 0 -17 3 -8 20 12 22 12 22 34 14z m1826 -14 c0 -6 10 -15 23 -20
21 -8 21 -9 -5 -9 -16 -1 -28 1 -28 3 0 2 -3 11 -6 20 -3 9 -1 16 5 16 6 0 11
-5 11 -10z m-1932 -27 c2 -8 -5 -13 -16 -13 -11 0 -22 -7 -26 -15 -3 -8 -12
-15 -20 -15 -7 0 -42 -21 -76 -46 -44 -32 -65 -43 -73 -35 -7 7 -5 12 6 17 9
3 17 12 17 20 0 8 4 14 9 14 5 0 22 11 37 25 64 56 131 78 142 48z m-3 -83
c10 -16 -5 -50 -21 -50 -8 0 -14 3 -14 8 0 4 -3 17 -6 30 -5 17 -2 22 14 22
12 0 24 -5 27 -10z m4257 -52 c-2 -35 -11 -70 -18 -79 -8 -8 -14 -32 -14 -52
0 -46 -17 -48 -25 -4 -4 21 -1 48 9 72 9 20 16 50 16 65 0 37 9 60 24 60 9 0
11 -18 8 -62z m-839 40 c8 -23 -22 -66 -68 -97 -25 -17 -52 -31 -60 -31 -7 0
-15 -3 -17 -7 -6 -14 -67 -53 -81 -53 -8 0 -17 -9 -20 -21 -5 -17 -11 -19 -40
-14 -50 10 -53 -8 -6 -41 l40 -28 -37 -18 c-20 -10 -52 -20 -70 -24 -18 -3
-38 -12 -45 -20 -11 -14 -59 -20 -59 -8 0 4 11 17 25 30 29 27 32 42 9 51 -12
4 -29 -8 -58 -40 -43 -49 -90 -63 -102 -32 -4 8 -12 15 -18 15 -17 0 -58 45
-49 53 3 4 16 7 27 7 12 0 30 7 40 15 11 8 39 15 62 15 23 0 44 3 46 8 3 7 70
46 126 71 17 8 32 19 32 23 0 4 9 8 19 8 11 0 26 6 33 13 19 17 74 42 133 59
38 11 49 19 47 32 -3 15 2 17 27 11 27 -6 31 -4 31 14 0 23 25 29 33 9z
m-3483 -24 c0 -20 35 -79 67 -114 13 -14 23 -30 23 -37 0 -18 -55 -16 -70 1
-6 8 -23 16 -37 18 -33 4 -41 24 -13 31 35 9 22 27 -20 27 -35 0 -40 3 -40 23
1 13 13 30 33 44 39 26 57 28 57 7z m912 -31 c8 -10 18 -25 22 -33 3 -8 15
-28 26 -45 11 -16 23 -36 26 -42 3 -7 19 -13 36 -13 28 0 29 -1 26 -42 -3 -41
-4 -43 -33 -40 -16 2 -34 8 -39 13 -6 5 -22 9 -37 9 -15 0 -32 7 -39 15 -7 8
-20 15 -29 15 -22 0 -61 53 -61 82 0 42 12 68 30 68 10 0 23 7 30 15 16 19 24
19 42 -2z m-822 -17 c0 -14 -5 -28 -10 -31 -13 -8 -24 20 -16 40 9 24 26 17
26 -9z m7427 -73 c-2 -16 -4 -5 -4 22 0 28 2 40 4 28 2 -13 2 -35 0 -50z
m-7637 25 c-1 -25 -32 -68 -49 -68 -16 0 -14 30 3 36 8 3 11 15 8 30 -3 19 0
24 17 24 15 0 21 -6 21 -22z m80 -70 c16 -18 30 -36 30 -40 0 -14 -37 -8 -50
7 -7 8 -19 15 -26 15 -8 0 -14 10 -14 25 0 35 24 32 60 -7z m3400 12 c0 -17
-44 -54 -80 -67 l-32 -12 35 34 c20 19 41 35 47 35 5 0 10 5 10 10 0 6 5 10
10 10 6 0 10 -5 10 -10z m-1350 -22 c-1 -7 -7 -24 -15 -38 -8 -14 -14 -37 -15
-52 0 -15 -7 -45 -15 -65 -13 -34 -23 -105 -41 -306 -5 -44 -11 -60 -26 -68
-18 -10 -19 -11 -2 -23 17 -13 17 -29 -5 -111 -6 -22 -11 -67 -11 -100 0 -34
-4 -65 -9 -70 -10 -11 -28 -88 -40 -173 -4 -28 -12 -57 -19 -64 -7 -7 -12 -20
-12 -29 0 -9 -7 -22 -15 -29 -11 -9 -15 -34 -15 -94 0 -63 -4 -88 -20 -113
-22 -36 -55 -44 -74 -18 -6 9 -30 18 -53 20 -23 2 -53 11 -67 20 l-26 17 0
239 c0 132 -4 239 -8 239 -5 0 -14 -11 -20 -25 -19 -42 -32 -28 -32 35 0 47 4
64 20 80 32 32 43 25 38 -24 -4 -34 -2 -43 8 -39 20 8 25 32 22 125 -3 81 -1
90 34 159 61 123 68 145 68 208 0 57 -2 61 -31 76 -24 13 -28 19 -19 30 7 8
28 17 49 21 20 3 46 12 58 20 12 8 33 14 46 14 14 0 30 7 37 15 7 8 18 15 24
15 6 0 34 20 63 45 28 25 56 45 61 45 5 0 15 7 22 15 15 18 40 20 40 3z
m-2150 -53 c16 -26 20 -47 18 -86 -4 -64 -28 -82 -28 -21 0 23 -6 45 -15 52
-20 17 -20 90 1 90 1 0 12 -16 24 -35z m267 -1 c31 -35 35 -54 10 -54 -19 0
-107 64 -107 78 0 7 13 12 32 12 24 0 40 -9 65 -36z m4133 -25 c0 -16 -4 -29
-10 -29 -5 0 -10 16 -10 36 0 21 4 33 10 29 6 -3 10 -19 10 -36z m-4316 16 c3
-8 14 -15 24 -15 11 0 25 -7 32 -15 7 -8 22 -15 33 -15 22 0 87 -39 87 -52 0
-5 10 -8 23 -8 12 0 31 -7 41 -15 26 -20 62 -19 70 1 7 19 77 16 84 -3 2 -9
-10 -13 -42 -13 -34 0 -46 -4 -46 -15 0 -11 11 -15 40 -15 27 0 43 -5 46 -15
4 -9 19 -15 38 -15 18 0 41 -7 52 -15 24 -18 84 -20 84 -2 0 17 -78 47 -123
47 -27 0 -37 4 -37 15 0 14 20 15 158 12 139 -4 519 -42 532 -54 3 -3 7 -39
10 -81 5 -75 22 -105 33 -60 5 17 9 20 18 11 8 -8 7 -19 -5 -44 -9 -18 -16
-52 -16 -76 0 -23 -4 -43 -10 -43 -5 0 -10 4 -10 10 0 5 -10 18 -21 29 -12 11
-22 30 -23 43 -1 20 -6 22 -62 24 -68 1 -88 9 -80 30 3 8 1 26 -5 40 -9 25
-13 26 -60 22 -45 -5 -52 -3 -67 19 -14 23 -14 26 1 35 28 15 21 38 -12 38
-17 0 -33 -5 -36 -11 -4 -5 -18 -14 -31 -20 -14 -5 -30 -22 -35 -38 -8 -21
-21 -33 -46 -42 -35 -11 -103 -69 -103 -87 0 -13 26 -23 43 -16 7 2 21 18 31
34 19 34 41 39 50 13 3 -10 9 -24 12 -31 4 -9 -1 -11 -19 -7 -32 8 -43 -19
-22 -51 20 -31 19 -37 -5 -31 -28 7 -49 -27 -57 -93 -6 -55 -23 -71 -53 -52
-10 6 -35 14 -56 18 -22 3 -65 24 -96 45 -32 22 -62 39 -67 39 -16 0 -23 20
-12 34 9 10 2 22 -29 52 -41 40 -80 103 -80 129 0 8 -5 15 -10 15 -6 0 -14 8
-17 18 -4 9 -17 25 -30 35 -24 19 -63 94 -63 121 0 9 -7 16 -15 16 -11 0 -15
-11 -15 -39 0 -22 6 -44 15 -51 8 -7 15 -19 15 -26 0 -26 85 -164 101 -164 5
0 9 -5 9 -11 0 -5 11 -35 26 -64 21 -46 40 -67 99 -113 6 -4 38 -25 73 -46 47
-29 70 -37 91 -33 18 4 37 -1 56 -13 27 -18 28 -22 26 -82 -1 -35 -10 -78 -18
-96 -13 -27 -15 -55 -10 -154 6 -111 6 -120 -12 -125 -15 -4 -19 -19 -24 -106
-6 -94 -22 -157 -39 -157 -10 0 -58 -49 -58 -60 0 -43 37 -54 42 -12 4 40 22
33 26 -10 3 -35 0 -38 -34 -53 -20 -8 -43 -15 -51 -15 -14 0 -90 -30 -125 -50
-32 -18 -35 -11 -35 78 0 48 -6 130 -12 182 -34 287 -43 345 -52 363 -6 11
-11 44 -10 75 0 31 -6 69 -13 86 -8 17 -17 76 -21 131 -4 64 -12 106 -21 116
-8 8 -14 27 -14 41 0 14 -7 31 -15 38 -10 8 -15 31 -15 70 0 32 -7 71 -15 86
-8 16 -15 54 -15 84 0 30 -6 67 -14 81 -19 37 -21 169 -2 169 8 0 16 -7 20
-15z m277 -36 c15 -21 18 -34 11 -41 -15 -15 -67 35 -59 56 9 24 23 20 48 -15z
m1299 11 c20 -12 5 -17 -83 -24 -71 -6 -133 8 -108 24 19 11 172 12 191 0z
m123 -35 c-2 -8 -47 -21 -150 -41 -18 -4 -40 -3 -50 0 -27 11 3 26 50 26 25 0
40 5 44 15 4 12 18 15 57 13 28 -2 50 -7 49 -13z m-1169 -24 c8 -13 -19 -21
-70 -21 -41 0 -53 8 -37 23 10 10 101 8 107 -2z m889 -14 c20 -8 43 -21 50
-31 14 -20 34 -22 99 -11 46 7 47 7 72 -34 35 -56 34 -109 -4 -186 -16 -33
-30 -66 -30 -73 0 -7 -9 -22 -20 -34 -15 -16 -22 -18 -33 -10 -8 7 -17 9 -20
5 -12 -11 -8 -23 8 -23 10 0 15 -10 15 -30 0 -16 -4 -30 -8 -30 -5 0 -14 -11
-20 -25 -7 -14 -24 -30 -39 -36 -16 -6 -38 -16 -50 -21 -11 -6 -26 -7 -33 -3
-6 4 -19 0 -28 -8 -24 -20 -47 -26 -61 -17 -20 12 9 50 37 50 12 0 25 7 28 15
4 10 20 15 48 15 43 0 66 13 66 38 0 8 8 21 18 28 16 13 16 15 0 28 -14 10
-18 28 -18 78 0 39 -6 77 -15 94 -8 16 -15 38 -15 49 -1 41 -27 118 -43 127
-9 5 -55 10 -102 12 -47 1 -87 5 -90 8 -4 3 29 12 72 21 43 8 78 15 78 16 0 0
17 -5 38 -12z m-249 -73 c5 -13 14 -15 39 -9 17 4 62 9 98 12 72 5 84 -3 68
-44 -11 -29 -33 -29 -53 -1 -12 16 -19 19 -27 11 -8 -8 -7 -17 5 -34 21 -31
22 -172 1 -222 -8 -20 -15 -51 -15 -69 0 -18 -7 -42 -15 -52 -8 -11 -15 -30
-15 -42 0 -15 -8 -24 -24 -28 -37 -9 -59 3 -50 28 3 11 9 83 11 159 4 115 2
142 -11 162 -9 13 -16 40 -16 60 0 20 -7 47 -16 60 -14 22 -14 25 -1 25 8 0
18 -7 21 -16z m257 -111 c1 -10 2 -26 3 -36 1 -10 7 -21 13 -25 7 -5 13 -28
14 -52 2 -57 -63 -190 -92 -190 -10 0 -20 4 -23 8 -10 17 15 82 40 101 30 24
43 103 26 163 -5 20 -7 39 -4 42 11 11 22 6 23 -11z m-651 -18 c0 -9 -9 -15
-25 -15 -16 0 -25 6 -25 15 0 9 9 15 25 15 16 0 25 -6 25 -15z m6840 -263 c3
-136 4 -257 2 -270 -4 -25 -48 -52 -85 -52 -14 0 -30 -7 -37 -15 -16 -20 -80
-20 -80 -1 0 8 5 18 10 21 6 3 10 18 10 33 1 15 7 38 15 52 8 15 14 54 15 95
0 69 14 117 23 85 22 -73 34 -95 52 -95 28 0 47 72 37 139 l-8 51 -8 -63 c-5
-42 -11 -62 -19 -59 -17 5 -17 213 1 210 6 -2 18 -4 25 -5 8 -2 13 18 15 71 2
58 6 71 15 62 8 -8 13 -86 17 -259z m-6241 175 c1 -35 -3 -47 -11 -45 -18 6
-21 32 -13 87 6 37 9 42 16 26 4 -11 8 -42 8 -68z m-479 64 c0 -14 -18 -23
-30 -16 -6 4 -8 11 -5 16 8 12 35 12 35 0z m-115 -21 c13 0 26 -13 38 -39 9
-20 17 -41 17 -44 0 -13 -48 -7 -60 8 -7 8 -23 15 -36 15 -17 0 -25 7 -30 24
-8 33 3 49 30 42 11 -3 30 -6 41 -6z m125 -45 c7 -8 19 -15 28 -15 16 0 85
-39 90 -52 2 -4 12 -8 22 -8 24 0 36 -18 21 -33 -6 -6 -11 -18 -11 -27 0 -18
-58 -40 -105 -40 -23 0 -25 -2 -15 -15 15 -18 4 -37 -18 -33 -13 3 -17 15 -18
60 0 35 -7 66 -17 82 -34 52 -14 125 23 81z m1670 6 c0 -6 -4 -12 -9 -15 -13
-8 -42 4 -35 15 7 12 44 12 44 0z m-84 -36 c4 -10 20 -15 44 -15 47 0 61 -17
32 -41 -17 -13 -22 -28 -22 -63 l0 -46 -61 0 c-53 0 -62 3 -66 20 -4 13 -11
19 -22 16 -9 -3 -22 -2 -29 3 -11 6 -9 9 6 13 11 3 22 16 24 28 5 37 29 45 71
25 40 -19 89 -13 54 6 -29 17 -67 56 -60 62 11 11 23 8 29 -8z m-1712 -30 c3
-8 11 -15 18 -15 6 0 22 -10 35 -22 17 -16 23 -32 23 -64 0 -71 14 -94 55 -94
22 0 38 6 41 15 4 9 19 15 39 15 19 0 36 4 39 9 7 11 84 23 97 15 6 -4 6 -11
-1 -19 -15 -18 -4 -35 21 -35 38 0 20 -27 -23 -33 -48 -6 -78 6 -78 32 0 37
-15 31 -25 -11 l-11 -43 -59 -3 c-79 -4 -99 2 -114 35 -12 26 -13 27 -26 9
-27 -37 -98 7 -140 86 -18 35 -18 38 -2 56 18 20 23 62 7 62 -5 0 -10 3 -10 8
0 4 24 8 54 10 40 2 55 -2 60 -13z m1990 -30 c15 -8 34 -15 42 -15 26 0 25
-20 -2 -30 -30 -12 -23 -26 14 -32 37 -5 30 -23 -11 -26 -33 -3 -43 2 -79 38
-22 22 -51 43 -64 46 -13 3 -24 12 -24 20 0 19 86 19 124 -1z m4706 -7 c-1
-13 -9 -48 -20 -78 -11 -30 -20 -66 -20 -80 0 -34 -11 -70 -20 -70 -4 0 -11
36 -15 79 -5 63 -4 85 9 108 8 15 18 36 22 46 10 26 44 22 44 -5z m-7450 -32
c0 -24 7 -60 15 -79 9 -22 15 -67 15 -112 0 -42 5 -86 11 -97 6 -12 14 -60 17
-107 2 -47 9 -91 14 -98 5 -7 14 -54 18 -105 5 -51 16 -156 24 -233 37 -356
48 -527 37 -544 -18 -28 -31 1 -31 73 0 48 -5 79 -15 92 -9 12 -14 43 -15 85
0 41 -5 72 -15 85 -10 13 -14 44 -15 96 0 42 -4 80 -10 83 -5 3 -10 14 -10 23
0 9 -8 31 -17 47 -12 23 -16 59 -17 155 -1 87 -5 132 -15 149 -10 18 -15 84
-19 252 -3 124 -2 238 2 253 10 41 26 30 26 -18z m3310 14 c8 -5 11 -12 8 -16
-11 -10 -60 5 -53 16 8 12 26 12 45 0z m-1275 -9 c3 -5 30 -13 60 -16 31 -4
58 -11 61 -16 3 -5 20 -9 39 -9 44 0 49 -11 19 -43 -13 -14 -24 -31 -24 -37 0
-6 50 -11 138 -12 75 -1 151 -2 167 -2 23 -1 31 -6 33 -23 2 -13 7 -23 11 -23
4 0 7 10 7 23 -1 13 5 22 14 22 21 0 24 -32 6 -60 -21 -32 -21 -118 -1 -135
10 -9 15 -31 15 -72 0 -33 5 -69 11 -80 8 -14 8 -23 0 -31 -18 -18 -12 -52 14
-77 26 -25 35 -51 10 -30 -8 6 -19 9 -25 5 -16 -10 -12 -91 5 -105 8 -7 15
-19 15 -26 0 -8 16 -31 35 -51 31 -33 33 -38 18 -45 -30 -11 -87 -9 -115 6
-14 8 -46 17 -70 21 -24 4 -48 11 -54 16 -7 6 -36 12 -65 15 -30 3 -68 12 -86
20 -17 8 -46 14 -65 14 -18 0 -42 7 -52 15 -11 8 -33 15 -49 15 -15 0 -35 7
-43 15 -9 8 -31 15 -50 15 -20 0 -42 7 -50 15 -9 8 -29 15 -45 15 l-29 0 0 64
c0 35 6 81 14 102 7 22 16 73 20 114 4 41 12 81 18 87 6 7 14 50 19 95 18 180
25 208 49 208 10 0 21 -4 25 -9z m-934 -24 c-1 -12 -15 -9 -19 4 -3 6 1 10 8
8 6 -3 11 -8 11 -12z m1565 -11 c3 -13 17 -35 31 -48 21 -19 34 -23 81 -21 31
2 62 9 70 16 11 12 20 11 53 -6 36 -17 52 -37 30 -37 -15 0 -109 -94 -115
-117 -9 -28 5 -36 50 -27 33 6 35 8 20 20 -20 14 -13 36 23 68 20 18 23 18 38
3 14 -14 14 -18 3 -32 -8 -9 -15 -36 -16 -61 -2 -67 -14 -75 -95 -68 -53 5
-76 3 -104 -10 -20 -10 -43 -16 -53 -14 -25 5 -42 47 -42 106 0 29 -5 62 -10
73 -6 10 -14 45 -18 76 -7 57 -28 83 -34 41 -4 -28 -22 -27 -26 2 -5 34 25 60
69 60 32 0 40 -4 45 -24z m664 -23 c0 -8 -6 -21 -12 -28 -7 -8 -19 -21 -26
-30 -7 -8 -22 -15 -32 -15 -15 0 -20 7 -20 28 0 34 18 59 45 64 28 6 45 -1 45
-19z m-982 -25 c-3 -8 -21 -13 -43 -13 -22 0 -40 5 -42 13 -3 8 9 12 42 12 33
0 45 -4 43 -12z m1068 -12 c9 -36 -2 -46 -47 -46 -36 0 -39 2 -39 29 0 32 10
39 52 40 21 1 29 -5 34 -23z m3936 -145 c-1 -105 -6 -169 -13 -177 -6 -8 -30
-14 -52 -14 -22 0 -48 -6 -56 -14 -22 -19 -141 -27 -141 -9 0 18 24 56 70 112
11 13 20 28 20 33 0 5 6 15 13 22 6 8 19 24 27 36 8 12 23 33 33 45 9 13 17
28 17 34 0 6 5 11 10 11 6 0 10 6 10 13 0 8 9 24 20 37 11 13 20 27 20 32 0 5
5 8 12 6 8 -3 11 -50 10 -167z m-6757 120 c-9 -16 -25 -3 -18 15 4 10 9 12 15
6 6 -6 7 -15 3 -21z m3457 -3 c4 -25 28 -37 28 -14 0 20 16 21 23 2 3 -8 0
-20 -8 -26 -8 -6 -15 -21 -17 -32 -5 -35 -28 -34 -28 1 0 34 -14 39 -42 14
-13 -12 -18 -30 -18 -68 0 -35 -5 -57 -15 -65 -10 -8 -15 -30 -15 -61 0 -54
-10 -67 -32 -41 -25 29 -28 51 -12 92 9 22 13 47 10 56 -3 8 -1 46 5 84 8 49
15 67 25 63 7 -2 21 0 31 6 31 18 61 13 65 -11z m-1052 -3 c0 -8 -4 -15 -10
-15 -5 0 -10 7 -10 15 0 8 5 15 10 15 6 0 10 -7 10 -15z m-1508 -20 c0 -5 -5
-11 -11 -13 -6 -2 -11 4 -11 13 0 9 5 15 11 13 6 -2 11 -8 11 -13z m-838 -27
c38 -25 45 -48 21 -68 -8 -7 -15 -18 -15 -26 0 -7 -7 -17 -16 -22 -10 -6 -14
-20 -12 -43 2 -26 8 -35 26 -37 24 -4 30 -27 9 -35 -20 -8 -12 -227 9 -284 21
-55 14 -73 -30 -73 -18 0 -47 -7 -62 -15 -16 -8 -41 -15 -56 -15 -27 0 -28 1
-25 50 2 29 10 57 20 68 12 13 17 37 17 81 0 41 6 70 17 87 14 22 15 31 4 59
-13 36 1 161 20 180 5 5 9 23 9 40 0 39 10 75 20 75 5 0 24 -10 44 -22z m2751
12 c4 -6 1 -17 -5 -25 -7 -8 -10 -24 -7 -35 4 -15 -2 -24 -23 -35 -16 -8 -33
-15 -39 -15 -9 0 -13 97 -4 113 6 11 71 8 78 -3z m-2840 -18 c0 -18 -20 -15
-23 4 -3 10 1 15 10 12 7 -3 13 -10 13 -16z m893 -7 c7 -14 12 -39 12 -54 0
-16 7 -34 15 -41 8 -7 15 -23 15 -37 0 -13 7 -38 16 -54 16 -31 16 -94 0 -94
-5 0 -18 33 -30 72 -12 40 -27 78 -34 85 -6 6 -12 24 -12 39 0 15 -7 32 -15
39 -8 7 -15 25 -15 41 0 38 32 40 48 4z m-235 4 c-8 -8 -16 -8 -30 0 -16 9
-14 10 12 11 21 0 26 -3 18 -11z m161 -33 c7 -18 17 -53 21 -77 4 -24 14 -53
21 -64 19 -26 18 -89 -1 -105 -8 -7 -15 -21 -15 -32 0 -10 -7 -21 -15 -24 -19
-8 -20 -54 -1 -54 7 0 16 10 20 22 4 17 8 20 17 11 16 -16 7 -54 -18 -70 -21
-14 -25 -13 -58 20 -31 31 -35 41 -35 85 0 32 -5 54 -15 62 -8 7 -15 23 -15
35 0 12 -7 28 -16 36 -17 14 -16 28 8 114 9 35 20 53 38 62 38 19 49 16 64
-21z m1916 3 c0 -10 -7 -19 -15 -19 -15 0 -21 31 -9 43 11 10 24 -3 24 -24z
m-2480 -39 c11 -21 20 -48 20 -59 0 -10 7 -21 15 -25 8 -3 15 -14 15 -25 0
-10 7 -21 15 -25 19 -7 19 -35 1 -50 -10 -7 -20 -54 -29 -134 -8 -68 -19 -128
-25 -134 -10 -10 -45 53 -55 102 -22 100 -35 135 -48 135 -10 0 -16 -17 -20
-55 l-6 -55 -1 52 c-1 28 3 55 8 58 6 3 10 31 10 60 0 49 3 57 30 77 30 22 42
70 20 83 -18 11 -11 35 10 35 13 0 27 -14 40 -40z m378 13 c2 -13 -4 -33 -12
-45 -18 -25 -22 -98 -6 -98 6 0 10 -10 9 -22 l0 -23 -11 23 c-6 12 -16 21 -22
19 -15 -5 -20 -88 -6 -97 6 -4 10 -20 7 -36 l-4 -29 -8 33 c-4 18 -13 31 -19
29 -15 -5 -20 -67 -7 -80 14 -14 14 -47 1 -47 -5 0 -10 7 -10 15 0 8 -4 15 -9
15 -14 0 -23 -35 -16 -63 5 -17 2 -26 -9 -30 -20 -8 -22 -3 -31 60 -4 29 -11
55 -16 59 -5 3 -9 16 -9 30 0 14 -7 27 -15 30 -8 4 -15 14 -15 24 0 10 -7 25
-15 34 -8 8 -15 25 -15 37 0 12 -7 30 -16 40 -11 12 -14 27 -10 44 7 29 26 25
26 -6 0 -46 54 18 62 72 2 20 10 25 48 30 25 3 63 5 85 5 33 -1 41 -5 43 -23z
m-268 -1 c0 -11 -9 -27 -20 -37 -11 -10 -19 -25 -18 -33 2 -8 -2 -17 -8 -19
-15 -5 -9 73 7 93 16 20 39 18 39 -4z m60 -12 c0 -20 -5 -30 -15 -30 -10 0
-15 10 -15 30 0 20 5 30 15 30 10 0 15 -10 15 -30z m1610 -16 c0 -19 -4 -33
-8 -30 -8 5 -4 66 4 66 2 0 4 -16 4 -36z m1457 20 c12 -12 13 -20 5 -37 -20
-44 -34 -109 -24 -119 6 -6 -1 -21 -19 -41 -16 -17 -29 -37 -29 -43 0 -20 -34
-74 -47 -74 -6 0 -15 10 -19 22 l-7 23 -9 -25 c-7 -19 -5 -27 9 -38 14 -10 15
-16 5 -32 -9 -15 -9 -25 2 -47 16 -33 36 -113 36 -146 0 -33 -10 -40 -32 -20
-17 15 -17 18 -2 34 15 17 15 19 -10 30 -22 10 -29 9 -46 -6 -21 -19 -22 -18
-34 38 -10 43 -26 22 -26 -33 0 -47 -2 -50 -37 -66 -21 -9 -69 -31 -108 -49
-107 -50 -120 -53 -263 -65 -101 -8 -137 -8 -148 1 -22 18 -7 29 40 29 23 0
47 5 54 12 6 6 39 13 74 15 70 4 178 32 178 46 0 5 14 22 32 39 l31 29 -12 63
c-8 41 -9 70 -3 82 5 11 14 28 19 40 7 12 7 26 2 36 -6 10 -6 19 0 22 5 3 11
-1 15 -9 3 -10 19 -15 43 -15 21 0 47 -7 57 -15 11 -8 28 -15 37 -15 21 0 33
-31 24 -60 -8 -25 13 -27 22 -2 4 9 11 20 16 24 6 4 3 20 -7 43 -15 30 -16 42
-7 62 8 17 17 23 27 19 20 -8 49 8 84 47 18 20 25 36 19 42 -14 15 -11 85 6
101 8 9 15 26 15 38 0 37 13 44 37 20z m-3309 -21 c-3 -30 -25 -42 -34 -19 -9
22 2 46 21 46 12 0 15 -8 13 -27z m-60 -45 c-5 -32 -28 -35 -28 -4 0 17 5 26
16 26 10 0 14 -7 12 -22z m2277 -48 c-5 -8 -11 -8 -17 -2 -6 6 -7 16 -3 22 5
8 11 8 17 2 6 -6 7 -16 3 -22z m148 -35 c-1 -10 3 -27 8 -36 6 -12 4 -19 -7
-23 -8 -3 -17 1 -21 11 -4 9 -15 25 -25 35 -24 24 -14 40 20 36 20 -2 27 -8
25 -23z m-287 -20 c11 -24 23 -35 38 -34 21 0 21 0 -1 9 -15 6 -21 15 -17 25
7 18 18 19 43 3 15 -9 26 -9 47 0 22 11 29 10 45 -4 11 -9 19 -21 19 -26 0
-20 -46 -47 -82 -48 -20 0 -44 -3 -53 -6 -28 -11 4 -24 58 -24 40 0 53 5 78
29 16 16 29 37 29 45 0 26 27 18 34 -9 7 -29 46 -51 71 -41 12 4 15 13 11 30
-9 38 12 41 47 9 18 -17 40 -33 50 -36 27 -10 20 -27 -12 -27 -81 0 -80 -28 2
-32 35 -2 61 -7 60 -13 -4 -17 -90 -17 -122 0 -17 8 -48 15 -68 14 -97 -4
-320 8 -338 18 -11 7 -33 15 -49 18 -16 3 -30 14 -33 25 -3 11 -11 20 -19 20
-24 0 -26 21 -3 46 18 19 33 24 70 24 26 0 51 5 54 10 11 18 24 10 41 -25z
m799 -9 c8 -40 4 -66 -10 -69 -5 -1 -11 22 -13 51 -3 58 13 72 23 18z m-2345
-46 c5 -19 10 -50 10 -68 0 -43 30 -85 79 -110 43 -23 54 -19 85 31 12 19 16
44 15 75 -3 36 0 47 11 47 12 0 16 -21 20 -95 3 -52 4 -98 2 -102 -2 -5 -89
-8 -193 -8 -105 0 -189 3 -187 8 24 48 32 62 40 62 4 0 8 7 8 16 0 9 6 30 13
47 8 18 22 59 32 92 10 33 21 64 23 69 7 13 31 -23 42 -64z m6280 59 c0 -7
-10 -27 -21 -46 -19 -31 -25 -34 -54 -29 -18 4 -44 2 -59 -3 -32 -13 -56 -5
-56 18 0 25 20 41 55 41 16 1 41 7 55 15 30 17 80 19 80 4z m-265 -58 c3 -5
-7 -19 -21 -30 -27 -21 -101 -28 -152 -14 -37 9 -5 23 56 23 37 0 54 4 58 15
7 16 49 21 59 6z m-6365 -60 c0 -16 7 -34 15 -41 8 -7 15 -27 15 -46 0 -18 4
-35 9 -38 13 -8 51 -89 51 -108 0 -22 -73 -58 -116 -58 -33 0 -35 2 -32 28 3
25 7 27 58 32 69 6 72 24 5 28 -63 4 -71 12 -51 50 10 19 16 56 16 96 0 35 3
71 6 80 9 24 24 9 24 -23z m60 -12 c0 -19 5 -29 15 -29 10 0 15 -11 15 -35 0
-26 -4 -35 -16 -35 -13 0 -15 7 -10 31 5 25 2 32 -14 36 -14 4 -20 14 -20 32
0 15 3 31 6 34 12 12 24 -4 24 -34z m2640 5 c0 -8 -7 -14 -15 -14 -15 0 -21
21 -9 33 10 9 24 -2 24 -19z m-60 7 c0 -15 -16 -22 -34 -15 -25 9 -19 24 9 24
14 0 25 -4 25 -9z m3748 -42 c-2 -29 -7 -34 -28 -34 -33 0 -38 30 -9 61 28 29
42 19 37 -27z m-4613 21 c17 0 39 -6 50 -14 31 -21 92 -38 175 -47 41 -5 82
-9 90 -8 122 5 194 2 197 -8 4 -11 -27 -45 -69 -78 -7 -6 -40 -32 -72 -58 -65
-53 -59 -52 -222 -29 -104 14 -198 105 -174 168 11 28 6 44 -15 44 -15 0 -28
27 -19 42 4 6 10 6 17 -1 6 -6 25 -11 42 -11z m749 -6 c36 -14 12 -24 -54 -24
-56 0 -70 3 -70 15 0 11 13 15 54 15 30 0 61 -3 70 -6z m166 -35 c0 -4 -7 -12
-15 -19 -12 -10 -14 -25 -9 -72 5 -45 3 -62 -9 -76 -8 -9 -17 -26 -19 -37 -3
-21 -1 -20 -153 -44 -38 -6 -72 -16 -76 -22 -3 -6 -25 -15 -49 -20 -35 -8 -46
-7 -61 7 -37 34 -22 90 44 160 18 19 27 40 27 60 0 39 12 44 93 44 34 0 80 7
102 14 39 14 125 17 125 5z m-2874 -57 c5 -18 15 -37 22 -44 7 -7 12 -21 12
-33 0 -11 16 -34 35 -50 42 -37 45 -62 8 -71 -25 -5 -55 -17 -118 -44 -11 -5
-58 -18 -105 -30 -47 -12 -89 -25 -94 -31 -6 -5 -20 -9 -33 -9 -19 0 -23 5
-23 33 0 37 24 77 46 77 8 0 17 7 20 15 4 9 19 15 41 15 19 0 41 7 49 15 22
21 77 19 104 -5 12 -11 27 -17 31 -14 12 7 4 80 -15 129 -19 50 -20 88 -3 83
6 -3 17 -19 23 -36z m3244 -14 c0 -28 -13 -43 -29 -34 -5 4 -5 23 1 47 12 44
28 37 28 -13z m-727 10 c3 -22 0 -36 -9 -41 -8 -4 -14 -14 -14 -21 0 -16 -47
-39 -55 -27 -9 16 6 39 30 45 28 7 42 41 25 61 -10 12 -9 15 3 15 9 0 17 -12
20 -32z m-1745 -99 c14 -10 33 -19 42 -19 10 0 30 -6 45 -14 17 -9 41 -12 62
-9 27 5 38 2 45 -10 5 -10 18 -17 28 -17 25 0 36 -18 16 -26 -21 -8 -21 -63
-1 -70 31 -12 17 -58 -35 -114 -28 -30 -58 -65 -67 -78 -25 -36 -66 -20 -147
54 -37 35 -76 64 -85 64 -9 0 -23 6 -30 13 -9 9 -69 12 -234 12 -202 -1 -225
-2 -252 -20 -16 -11 -33 -25 -37 -31 -5 -8 -23 -10 -48 -7 -31 4 -41 2 -46
-11 -13 -34 11 -40 93 -22 43 10 92 19 110 20 17 1 39 9 50 18 16 14 39 15
173 11 85 -3 159 -9 165 -14 5 -5 17 -9 27 -9 9 0 47 -27 85 -60 48 -43 75
-60 95 -60 15 0 28 -4 28 -9 0 -14 -46 -48 -91 -68 -21 -9 -39 -20 -39 -25 0
-4 -7 -8 -15 -8 -13 0 -52 -18 -168 -76 -16 -8 -36 -14 -46 -14 -9 0 -25 -6
-36 -14 -11 -7 -36 -17 -55 -21 -19 -4 -41 -12 -49 -19 -10 -8 -113 -11 -345
-11 -302 0 -334 2 -370 19 -24 11 -51 16 -71 13 -22 -4 -37 0 -47 11 -8 10
-32 32 -53 50 -51 45 -34 60 26 22 26 -16 50 -26 53 -23 18 18 0 44 -54 77
-56 35 -60 40 -60 75 0 44 21 64 83 75 20 4 37 11 37 15 0 5 17 12 38 16 20 4
42 11 49 17 22 18 58 5 61 -22 5 -35 18 -45 31 -23 7 14 6 27 -5 48 -8 15 -13
29 -12 30 14 12 82 35 116 40 23 4 42 10 42 15 0 4 21 10 47 13 26 3 49 10 51
16 2 6 14 11 27 11 12 0 28 6 34 14 7 8 27 17 45 20 19 4 39 13 46 21 8 9 30
15 60 15 30 0 52 6 60 15 10 12 37 15 126 15 62 0 115 4 118 9 11 17 78 20
123 5 47 -16 118 -16 118 1 0 6 -21 12 -47 15 -27 3 -53 11 -60 18 -17 17
-110 15 -134 -3 -24 -18 -149 -21 -160 -3 -4 6 3 20 17 32 23 20 34 21 213 18
169 -3 192 -5 214 -23z m1603 -67 c-29 -20 -27 -28 14 -48 36 -17 56 -57 38
-75 -16 -16 -73 11 -84 40 -10 24 -11 25 -23 9 -19 -25 -189 -27 -184 -2 2 9
21 22 43 30 33 12 47 12 79 2 33 -10 40 -10 44 1 2 7 13 22 23 32 11 11 19 23
19 28 0 13 44 18 49 7 2 -6 -6 -16 -18 -24z m-363 1 c-4 -22 -22 -20 -26 1 -2
10 3 16 13 16 10 0 15 -7 13 -17z m1140 -35 c16 -16 15 -28 -3 -28 -9 0 -18
-7 -21 -15 -4 -8 -16 -15 -29 -15 -12 0 -28 -7 -35 -15 -7 -8 -23 -15 -36 -15
-15 0 -24 -6 -24 -15 0 -8 6 -15 14 -15 26 0 26 -16 0 -51 -31 -42 -92 -67
-176 -71 -35 -2 -67 -6 -73 -10 -5 -3 -41 -9 -80 -13 -38 -4 -80 -14 -92 -23
-27 -17 -88 -9 -96 12 -8 21 3 26 24 13 23 -14 37 -1 21 21 -7 9 -19 31 -27
47 -9 17 -21 38 -27 47 -10 14 -10 20 0 30 11 11 16 9 31 -11 16 -21 23 -22
72 -18 153 15 233 27 242 36 6 6 17 11 25 11 12 0 56 18 132 53 14 6 34 19 45
28 11 10 36 19 55 22 19 2 37 5 41 5 3 1 10 -3 17 -10z m-2098 -23 c0 -8 -4
-15 -10 -15 -5 0 -10 7 -10 15 0 8 5 15 10 15 6 0 10 -7 10 -15z m1045 -25 c0
-23 -89 -21 -93 2 -4 19 20 26 63 18 17 -3 30 -12 30 -20z m1115 -26 c0 -8 -7
-14 -15 -14 -15 0 -21 21 -9 33 10 9 24 -2 24 -19z m-1134 -76 l-1 -63 40 4
c22 1 44 7 50 12 12 12 52 12 60 -1 10 -16 67 -12 87 7 16 14 23 15 53 4 26
-9 39 -9 56 -1 30 17 51 -4 24 -24 -18 -13 -18 -15 -2 -39 9 -15 17 -31 17
-37 0 -15 -43 -30 -54 -19 -6 5 -23 9 -38 9 -30 0 -40 26 -13 36 8 4 15 17 15
30 0 15 -6 24 -15 24 -8 0 -15 -9 -15 -20 0 -12 -10 -34 -22 -50 -19 -27 -26
-29 -57 -24 -44 8 -123 42 -133 58 -5 8 -10 8 -18 0 -8 -8 -3 -20 19 -42 34
-33 28 -47 -16 -36 -39 10 -56 39 -68 113 -5 35 -16 66 -22 69 -15 4 -16 -28
-4 -100 7 -46 7 -48 -16 -48 -22 0 -23 3 -23 68 0 92 19 132 64 132 l33 0 -1
-62z m268 38 c31 -26 30 -26 -32 -46 -32 -10 -48 -11 -67 -2 -35 16 -73 15
-91 -3 -9 -8 -24 -15 -35 -15 -15 0 -19 7 -19 39 0 22 5 42 13 44 6 3 55 6
107 6 85 0 98 -2 124 -23z m-1349 -188 c-9 -51 -20 -97 -25 -103 -4 -5 -10
-35 -14 -65 -12 -93 -25 -132 -44 -128 -15 3 -17 16 -14 103 3 72 8 105 19
117 9 10 13 26 10 40 -4 15 2 36 16 59 23 37 60 78 66 73 2 -2 -4 -45 -14 -96z
m1920 21 c10 -15 5 -17 -61 -35 -70 -19 -173 -33 -306 -40 -85 -5 -98 -4 -98
10 0 13 12 16 68 16 41 0 75 5 87 14 12 8 57 15 117 18 58 2 103 9 110 16 15
15 74 16 83 1z m-945 -46 c-1 -24 -2 -26 -11 -10 -5 9 -7 22 -4 27 10 17 15
11 15 -17z m280 -18 c0 -9 -9 -15 -25 -15 -26 0 -34 15 -12 23 23 10 37 7 37
-8z m740 5 c0 -5 -4 -10 -8 -10 -5 0 -19 -9 -32 -20 -13 -11 -33 -20 -45 -20
-13 0 -28 -7 -35 -15 -7 -8 -22 -15 -34 -15 -11 0 -39 -7 -61 -15 -55 -20
-234 -20 -282 0 -19 8 -59 15 -87 15 -29 0 -57 5 -63 11 -6 6 -25 14 -43 18
-17 3 -32 11 -33 16 -3 17 95 17 156 0 81 -23 330 -24 372 -3 17 9 56 19 88
22 31 4 57 12 57 17 0 5 11 9 25 9 14 0 25 -4 25 -10z m-2090 -13 c0 -7 -6
-19 -12 -25 -16 -16 -36 -177 -25 -197 14 -25 -28 -65 -111 -108 -128 -65
-137 -70 -142 -77 -10 -14 -56 -24 -100 -21 -25 1 -75 -4 -110 -12 -36 -8 -94
-15 -129 -15 -46 -1 -69 -6 -83 -19 -19 -17 -20 -17 -33 0 -15 21 -25 21 -61
2 -37 -19 -58 -19 -101 1 -44 22 -62 8 -38 -29 16 -26 17 -26 123 -20 59 3
119 12 134 19 39 20 178 19 178 -1 0 -12 -13 -15 -57 -15 -32 -1 -69 -7 -83
-15 -18 -10 -60 -14 -148 -15 -123 0 -162 8 -162 35 0 15 -43 23 -138 29 -44
2 -52 0 -50 -13 2 -11 16 -17 43 -19 22 -1 56 -5 75 -8 34 -6 34 -7 10 -16
-34 -13 -155 -8 -186 9 -15 7 -35 13 -45 13 -11 0 -27 10 -37 21 -34 41 -43
48 -57 43 -21 -8 -19 -31 4 -51 33 -31 65 -53 76 -53 7 0 25 -6 41 -14 22 -11
71 -15 194 -14 91 0 170 0 175 -1 6 -1 11 -24 12 -53 1 -28 8 -55 15 -60 17
-12 168 0 185 14 20 16 17 42 -4 32 -10 -5 -49 -9 -88 -9 l-70 0 -3 43 -3 42
73 0 c40 0 91 7 113 15 22 8 59 14 81 15 24 0 47 6 54 15 7 8 24 15 39 15 14
0 35 7 45 15 11 8 30 15 42 15 13 0 25 4 28 9 3 5 18 12 33 16 16 3 42 17 60
31 17 13 36 24 42 24 5 0 16 6 23 13 7 7 24 18 38 25 14 6 33 17 42 24 14 10
20 10 30 0 10 -10 10 -19 -5 -43 -22 -40 -24 -141 -2 -159 17 -14 17 -56 0
-53 -5 1 -12 11 -15 23 -8 32 -24 25 -30 -12 -8 -50 -30 -78 -63 -78 -15 0
-52 -13 -82 -30 -30 -16 -60 -30 -68 -30 -8 0 -20 -7 -27 -15 -7 -8 -20 -15
-30 -15 -10 0 -31 -7 -46 -15 -39 -20 -104 -20 -104 0 0 10 10 15 28 15 15 0
33 5 40 12 6 6 23 12 38 14 14 2 34 10 43 18 10 9 22 16 28 16 6 0 24 7 40 15
15 7 50 24 76 37 79 38 97 49 97 59 0 30 -38 18 -192 -62 -31 -16 -38 -16 -48
-4 -8 10 -29 13 -68 12 -50 -2 -57 -5 -60 -25 -3 -16 4 -25 22 -32 38 -14 32
-30 -10 -30 -22 0 -41 -6 -48 -15 -10 -14 -44 -16 -236 -15 -342 2 -425 6
-454 25 -23 16 -24 20 -19 86 5 59 4 69 -10 69 -12 0 -17 -12 -19 -42 -3 -41
-5 -43 -38 -46 -19 -2 -53 1 -75 5 -34 7 -42 14 -52 43 -7 19 -12 77 -12 128
-1 69 -5 97 -16 108 -28 28 -15 185 18 212 9 7 26 1 62 -24 30 -20 62 -34 81
-34 18 0 44 -6 59 -14 22 -12 78 -15 254 -15 124 0 235 -1 246 -2 58 -3 232
16 250 27 11 8 29 14 42 14 12 0 25 5 28 10 3 6 15 10 27 10 21 0 57 14 153
61 33 16 65 29 72 29 6 0 18 6 25 13 7 6 30 21 51 31 20 10 51 32 69 48 35 31
48 35 48 15z m20 -311 c0 -14 -4 -28 -10 -31 -5 -3 -10 -21 -10 -39 0 -19 -7
-39 -15 -46 -8 -7 -15 -28 -15 -46 0 -35 -13 -46 -24 -18 -10 27 -6 68 9 88 8
11 15 35 15 54 0 21 7 40 18 48 25 19 32 17 32 -10z m-445 -366 c3 -5 -3 -10
-14 -10 -12 0 -21 5 -21 10 0 6 6 10 14 10 8 0 18 -4 21 -10z m245 -48 c-2
-53 -120 -171 -172 -172 -9 0 -23 -7 -32 -15 -8 -8 -25 -15 -38 -15 -13 0 -36
-7 -52 -15 -15 -8 -36 -15 -45 -15 -9 0 -29 -7 -45 -15 -15 -8 -47 -15 -70
-15 -22 1 -108 -3 -191 -7 -213 -12 -250 -11 -250 7 0 12 16 16 70 18 39 1 84
9 102 17 17 8 47 15 66 15 19 0 40 7 47 15 7 9 29 15 55 15 26 0 48 6 55 15 7
8 29 15 50 15 21 0 43 7 50 15 7 8 20 15 29 15 15 1 82 23 144 48 16 7 33 12
38 12 5 0 17 4 27 10 9 5 43 21 74 35 32 15 60 31 63 36 9 13 25 1 25 -19z
m-1226 9 c4 -5 1 -22 -5 -38 l-12 -28 -8 29 c-4 16 -6 33 -3 38 7 11 21 10 28
-1z m166 -56 c0 -8 -4 -15 -10 -15 -5 0 -10 7 -10 15 0 8 5 15 10 15 6 0 10
-7 10 -15z m198 -38 c23 -21 62 -22 110 -1 23 9 58 14 92 12 30 -1 60 0 65 4
16 10 30 -4 30 -27 0 -25 41 -33 58 -12 10 12 97 40 104 34 1 -2 0 -13 -4 -25
-4 -18 -13 -22 -43 -22 -21 0 -43 -7 -50 -15 -15 -18 -61 -20 -77 -4 -14 14
-144 25 -170 15 -31 -12 6 -26 70 -26 44 0 57 -3 57 -15 0 -11 -13 -15 -53
-15 -29 0 -58 -5 -63 -10 -17 -17 -183 -32 -279 -25 -69 5 -94 11 -107 25 -24
26 -23 62 3 78 18 11 26 11 55 -3 18 -8 36 -20 39 -25 7 -11 124 -14 149 -4
32 12 3 24 -62 24 -51 1 -72 5 -90 20 -39 32 -18 43 69 38 54 -3 84 -10 97
-21z"/>
<path d="M2597 5358 c-26 -14 -20 -28 13 -28 19 0 30 5 30 14 0 19 -22 26 -43
14z"/>
<path d="M2360 4388 c0 -7 4 -19 9 -27 11 -17 25 3 17 24 -7 18 -26 20 -26 3z"/>
<path d="M2368 4103 c-3 -16 -9 -36 -13 -46 -6 -16 -4 -18 16 -15 20 2 24 9
27 46 2 31 0 42 -11 42 -8 0 -17 -12 -19 -27z"/>
<path d="M4305 4290 c3 -5 15 -10 25 -10 10 0 22 5 25 10 4 6 -7 10 -25 10
-18 0 -29 -4 -25 -10z"/>
<path d="M4233 4273 c-24 -9 -13 -23 17 -23 32 0 40 14 14 24 -9 3 -16 6 -17
5 -1 0 -8 -3 -14 -6z"/>
<path d="M4030 4193 c-16 -7 -49 -44 -50 -55 0 -13 25 -9 61 9 45 21 44 20 29
38 -13 16 -17 17 -40 8z"/>
<path d="M4879 3328 c-6 -13 -25 -39 -40 -59 -29 -37 -37 -73 -20 -83 10 -6 3
-46 -8 -46 -3 0 -22 -14 -41 -30 -19 -16 -40 -34 -47 -40 -7 -5 -20 -10 -30
-10 -45 -1 -60 -52 -17 -58 23 -3 151 91 177 132 15 23 15 26 1 34 -14 8 -14
12 -3 33 8 13 20 29 27 37 6 7 12 19 12 27 0 7 7 16 16 19 10 4 14 15 12 33
-4 35 -23 40 -39 11z"/>
<path d="M5249 3332 c-15 -10 -52 -43 -83 -75 -32 -32 -62 -55 -68 -51 -7 5
-5 11 6 20 11 8 16 22 14 41 -4 38 -33 38 -33 0 -1 -16 -7 -32 -15 -37 -14 -9
-19 -65 -6 -77 4 -4 16 -2 26 5 24 15 30 15 30 2 0 -11 -36 -50 -46 -50 -10 0
-42 -45 -38 -52 3 -4 14 -2 24 4 33 21 34 -1 2 -46 -33 -46 -32 -56 3 -56 16
0 27 13 46 55 13 30 27 55 32 55 4 0 7 7 7 15 0 9 7 18 15 21 20 8 19 60 -1
68 -12 5 -4 17 36 56 28 27 60 50 70 50 20 0 40 27 40 54 0 20 -28 19 -61 -2z"/>
<path d="M4995 3310 c-3 -11 -13 -20 -21 -20 -8 0 -14 -7 -14 -15 0 -21 23
-19 64 6 39 23 44 34 20 43 -28 11 -42 6 -49 -14z"/>
<path d="M4970 3196 c-13 -17 -6 -36 15 -36 19 0 26 27 11 39 -10 8 -17 7 -26
-3z"/>
<path d="M260 3935 c0 -8 6 -15 14 -15 8 0 51 -36 95 -80 44 -44 84 -80 88
-80 4 0 15 5 23 11 13 9 12 12 -4 22 -11 7 -40 31 -64 55 -25 23 -47 42 -49
42 -2 0 -17 14 -33 30 -31 32 -70 40 -70 15z"/>
<path d="M3077 3854 c-8 -8 1 -24 14 -24 5 0 9 7 9 15 0 15 -12 20 -23 9z"/>
<path d="M2062 3798 c4 -46 28 -49 28 -4 0 26 -4 36 -16 36 -11 0 -14 -8 -12
-32z"/>
<path d="M3443 2243 c-28 -11 -11 -31 32 -37 24 -4 47 -11 50 -17 4 -5 17 -9
29 -9 13 0 29 -7 36 -15 7 -8 19 -15 28 -15 8 0 23 -7 33 -16 10 -9 23 -13 29
-9 13 8 -42 65 -61 65 -6 0 -17 7 -25 15 -9 8 -25 15 -37 15 -12 0 -31 7 -41
15 -20 15 -49 18 -73 8z"/>
<path d="M5030 2211 c0 -22 16 -36 24 -22 8 12 -3 41 -15 41 -5 0 -9 -9 -9
-19z"/>
<path d="M3930 2434 c0 -11 8 -14 27 -12 39 4 42 28 4 28 -21 0 -31 -5 -31
-16z"/>
<path d="M2295 2040 c3 -5 13 -10 21 -10 8 0 14 5 14 10 0 6 -9 10 -21 10 -11
0 -17 -4 -14 -10z"/>
<path d="M2388 2029 c-6 -4 -7 -12 -4 -18 5 -7 48 -11 118 -11 86 0 115 -4
128 -15 12 -11 42 -16 109 -17 67 -1 94 -5 98 -15 7 -17 33 -17 33 0 0 32 -37
48 -122 54 -45 2 -88 9 -93 13 -12 10 -252 18 -267 9z"/>
<path d="M2098 1793 c-38 -2 -68 -8 -68 -12 0 -5 -19 -11 -42 -14 -57 -6 -131
-26 -142 -37 -13 -13 12 -40 38 -40 12 0 31 6 42 14 11 8 38 17 60 21 21 4 54
14 73 22 23 10 48 13 77 9 24 -3 50 -3 59 0 16 7 21 34 6 34 -5 0 -15 1 -23 3
-7 2 -43 1 -80 0z"/>
<path d="M1566 1743 c-18 -58 41 -116 96 -95 21 8 35 7 56 -2 34 -17 112 -9
112 10 0 9 -11 14 -27 14 -16 0 -41 7 -57 15 -16 8 -53 18 -82 21 -48 6 -54 9
-54 30 0 29 -36 34 -44 7z"/>
<path d="M2005 1632 c-5 -6 -30 -15 -55 -21 -126 -29 -153 -38 -166 -55 -7
-11 -11 -23 -8 -27 8 -14 49 -11 80 6 16 8 37 15 46 15 9 0 20 5 23 10 3 6 25
10 47 10 24 0 49 7 59 16 15 13 23 14 54 4 31 -10 230 -9 240 2 2 2 -5 14 -16
27 -16 20 -25 22 -56 16 -43 -7 -70 -7 -168 1 -40 3 -74 1 -80 -4z"/>
<path d="M2626 1541 c-4 -5 -24 -12 -45 -16 -22 -4 -45 -13 -52 -21 -7 -8 -30
-14 -56 -14 -30 0 -45 -5 -49 -15 -5 -11 -21 -15 -59 -15 -36 0 -59 -5 -70
-16 -10 -11 -41 -18 -95 -21 -44 -3 -80 -9 -80 -12 0 -4 36 -7 81 -8 61 -1 82
2 86 13 4 10 23 14 67 14 38 1 68 6 80 15 11 8 36 15 56 15 20 0 41 5 48 12 7
7 31 13 53 13 31 1 47 7 60 24 11 13 16 27 13 32 -7 12 -31 12 -38 0z"/>
<path d="M1344 1421 c3 -52 10 -99 15 -104 6 -6 11 -45 11 -87 0 -52 5 -82 15
-96 8 -10 15 -27 15 -36 0 -10 5 -18 11 -18 8 0 9 12 4 38 -4 20 -9 82 -11
136 -2 60 -10 111 -19 129 -8 17 -15 44 -15 62 0 17 -7 40 -16 51 -14 17 -15
12 -10 -75z"/>
<path d="M1905 1390 c-3 -6 1 -13 10 -16 19 -8 30 0 20 15 -8 14 -22 14 -30 1z"/>
<path d="M1975 1390 c-11 -18 -2 -20 46 -11 30 6 35 9 17 10 -14 1 -33 4 -41
7 -8 3 -18 0 -22 -6z"/>
<path d="M1576 1361 c-3 -5 0 -13 7 -19 15 -13 42 1 33 17 -9 13 -33 15 -40 2z"/>
<path d="M1727 1364 c-9 -10 2 -24 19 -24 8 0 14 7 14 15 0 15 -21 21 -33 9z"/>
<path d="M1446 1331 c-9 -13 22 -22 52 -14 24 6 25 7 7 14 -28 11 -53 11 -59
0z"/>
<path d="M2007 1334 c-21 -21 -5 -33 41 -31 34 1 47 6 47 17 0 10 -12 16 -40
18 -23 2 -44 0 -48 -4z"/>
<path d="M8630 7031 c0 -17 4 -32 9 -36 12 -7 23 28 15 49 -10 26 -24 18 -24
-13z"/>
<path d="M8546 6688 c-5 -16 -12 -28 -16 -28 -12 0 -20 -28 -14 -45 9 -21 24
-8 24 20 0 13 5 25 11 27 6 2 9 15 7 28 l-4 25 -8 -27z"/>
<path d="M8616 6456 c-20 -31 -20 -65 -1 -90 12 -16 15 -56 15 -188 0 -103 4
-168 10 -168 18 0 21 46 15 206 -8 175 -8 198 -3 233 4 33 -16 37 -36 7z"/>
<path d="M8577 6073 c-8 -12 -3 -105 5 -119 4 -6 10 -36 14 -67 5 -41 2 -63
-10 -87 -19 -39 -21 -81 -4 -98 14 -14 12 -76 -4 -106 -10 -18 -12 -561 -4
-1516 0 -96 -2 -236 -5 -310 -7 -159 -2 -230 17 -230 8 0 17 12 21 28 9 34 7
564 -3 650 -4 43 -2 77 6 103 9 27 10 42 3 51 -7 9 -11 213 -12 612 -1 522 1
600 14 610 22 16 49 175 33 194 -8 9 -13 46 -13 92 0 50 -5 83 -14 94 -7 9
-15 30 -17 47 -4 36 -19 65 -27 52z"/>
<path d="M8302 5720 c4 -159 22 -159 26 0 2 102 0 120 -13 120 -13 0 -15 -18
-13 -120z"/>
<path d="M8663 5613 c-4 -10 -10 -20 -13 -23 -11 -8 4 -103 18 -108 9 -3 12
16 12 72 0 76 -5 92 -17 59z"/>
<path d="M8307 5537 c-3 -8 -6 -66 -6 -127 -1 -84 2 -111 12 -107 8 2 12 36
14 113 1 106 -7 155 -20 121z"/>
<path d="M7489 5427 c-19 -13 -42 -26 -51 -30 -10 -3 -18 -11 -18 -16 0 -5
-10 -13 -22 -17 -20 -6 -31 -13 -63 -41 -7 -7 -20 -13 -29 -13 -8 0 -19 -6
-23 -13 -4 -7 -20 -18 -35 -24 -20 -9 -28 -20 -28 -38 0 -16 6 -25 15 -25 8 0
15 5 15 10 0 6 5 10 10 10 6 0 39 20 74 45 36 25 68 45 71 45 4 0 17 8 30 18
12 9 33 24 45 32 38 25 70 57 70 69 0 18 -24 13 -61 -12z"/>
<path d="M7007 5363 c-14 -13 -6 -42 15 -57 12 -9 42 -16 66 -16 37 0 45 -4
60 -30 21 -37 40 -38 48 -4 10 40 -43 84 -101 84 -29 0 -45 5 -49 15 -6 15
-28 20 -39 8z"/>
<path d="M7700 5302 c-9 -4 -27 -15 -40 -25 -20 -14 -23 -21 -14 -34 9 -14 3
-20 -30 -38 -23 -12 -42 -29 -44 -38 -5 -24 28 -34 43 -14 7 10 21 17 31 17
25 0 74 46 74 69 0 12 10 21 26 25 17 5 24 12 22 24 -3 18 -42 26 -68 14z"/>
<path d="M8297 5263 c-13 -13 -7 -53 8 -53 10 0 15 10 15 30 0 29 -9 38 -23
23z"/>
<path d="M2580 5200 c0 -19 3 -21 12 -12 9 9 9 15 0 24 -9 9 -12 7 -12 -12z"/>
<path d="M2543 5163 c-4 -10 -17 -29 -30 -42 l-24 -25 -6 22 c-6 26 -21 29
-30 5 -4 -10 -15 -29 -25 -42 -10 -13 -18 -29 -18 -36 0 -21 31 -27 50 -10 9
8 21 15 27 15 15 0 53 45 53 63 0 10 7 20 15 23 17 7 21 44 5 44 -6 0 -14 -8
-17 -17z"/>
<path d="M6433 5161 c-24 -20 -31 -57 -12 -63 6 -2 9 -17 7 -33 l-4 -30 -12
28 c-13 30 -32 28 -32 -3 0 -11 5 -31 12 -45 14 -31 3 -45 -16 -19 -14 19 -15
19 -22 0 -5 -12 -3 -21 4 -24 15 -5 16 -42 2 -42 -5 0 -10 9 -10 20 0 30 -12
24 -50 -26 -19 -25 -43 -53 -52 -62 -22 -20 -23 -42 -3 -42 8 0 15 7 15 16 0
21 27 46 44 42 11 -2 4 -16 -23 -45 -39 -45 -61 -54 -61 -27 0 8 -5 12 -10 9
-8 -5 -7 -11 1 -21 15 -19 4 -30 -15 -15 -19 16 -32 -4 -16 -24 10 -12 9 -15
-3 -15 -8 0 -26 -15 -40 -32 -13 -18 -39 -49 -56 -68 -17 -19 -48 -58 -68 -87
-21 -28 -64 -68 -95 -90 -57 -37 -74 -63 -42 -63 9 0 23 8 30 18 13 16 13 16
14 0 0 -10 -3 -18 -7 -18 -11 0 -43 -58 -43 -76 0 -42 71 23 110 100 14 27 32
57 40 66 8 9 26 30 39 46 32 38 103 116 225 245 56 59 106 113 111 120 17 22
55 99 55 110 0 6 7 17 15 25 8 9 15 26 15 40 0 13 4 24 9 24 5 0 13 10 17 22
5 16 1 27 -16 40 -27 22 -29 22 -57 -1z m-93 -256 c0 -8 -4 -15 -10 -15 -5 0
-10 7 -10 15 0 8 5 15 10 15 6 0 10 -7 10 -15z"/>
<path d="M8279 5178 c-8 -32 -4 -143 7 -176 8 -24 14 -82 14 -131 0 -56 5 -99
14 -115 8 -16 14 -60 14 -109 0 -50 6 -93 15 -109 9 -19 14 -72 16 -181 2
-129 0 -156 -13 -166 -11 -10 -16 -32 -16 -76 0 -43 -5 -66 -15 -75 -9 -7 -15
-29 -15 -55 0 -26 -6 -48 -15 -55 -8 -7 -15 -29 -15 -50 0 -21 -7 -43 -15 -50
-8 -7 -15 -27 -15 -45 0 -21 -6 -35 -16 -39 -10 -4 -14 -16 -12 -38 3 -38 22
-40 26 -4 2 13 10 30 18 36 8 7 14 27 14 45 0 20 6 35 15 39 11 4 15 20 15 54
0 32 5 54 15 62 8 7 15 29 15 50 0 21 7 43 15 50 10 9 15 31 15 73 0 39 5 66
15 77 20 22 23 353 4 376 -7 8 -14 53 -16 101 -2 48 -9 93 -15 100 -6 7 -13
64 -15 126 -3 65 -9 118 -16 126 -12 14 -16 40 -16 119 -1 23 -5 42 -11 42 -5
0 -10 -1 -11 -2z"/>
<path d="M1344 5075 c-6 -55 -12 -107 -15 -115 -2 -9 4 -16 18 -18 25 -4 38
28 49 121 5 46 4 57 -8 57 -8 0 -19 12 -24 28 -8 23 -11 12 -20 -73z"/>
<path d="M1156 4854 c-3 -8 -3 -33 0 -53 10 -62 -25 -104 -55 -67 -10 12 -8
17 9 26 14 7 20 19 18 33 -3 19 -9 22 -53 22 -47 0 -49 -1 -56 -32 -3 -17 -27
-55 -53 -85 -88 -101 -42 -175 49 -78 29 30 29 32 11 45 -24 18 -14 45 17 45
37 0 57 -30 57 -83 0 -42 2 -47 23 -47 12 0 35 11 51 23 27 22 29 28 27 88 -2
35 -4 75 -5 89 -2 14 -4 40 -4 58 -2 34 -25 45 -36 16z m4 -191 c0 -5 -4 -14
-9 -21 -7 -11 -9 -11 -14 1 -3 8 -3 18 0 21 9 8 23 7 23 -1z"/>
<path d="M825 4600 c-3 -11 -11 -20 -16 -20 -19 0 -8 -28 18 -45 26 -17 27
-17 44 4 10 12 15 30 12 39 -16 44 -47 56 -58 22z"/>
<path d="M7695 4160 c-7 -23 1 -40 20 -40 8 0 17 5 20 10 9 15 -4 50 -20 50
-8 0 -16 -9 -20 -20z"/>
<path d="M8438 3919 c-25 -42 -22 -64 7 -77 29 -14 30 -13 40 61 5 41 4 47
-12 47 -10 0 -26 -14 -35 -31z"/>
<path d="M8461 3761 c-12 -12 -21 -26 -21 -32 0 -6 -7 -17 -15 -25 -8 -9 -15
-26 -15 -39 0 -13 -4 -27 -10 -30 -5 -3 -10 -19 -10 -34 0 -16 -7 -34 -15 -41
-8 -7 -15 -20 -15 -29 -1 -9 -9 -34 -20 -56 -11 -22 -19 -46 -20 -52 0 -7 -4
-13 -8 -13 -5 0 -16 -18 -26 -41 -10 -22 -24 -43 -32 -46 -8 -3 -14 -11 -14
-18 0 -6 -9 -23 -21 -36 -21 -24 -85 -114 -104 -147 -5 -10 -21 -33 -35 -52
-32 -45 -48 -71 -56 -92 -3 -10 -10 -18 -14 -18 -5 0 -13 -12 -19 -27 -6 -16
-20 -41 -30 -58 -11 -16 -30 -50 -43 -75 -13 -25 -26 -47 -29 -50 -3 -3 -16
-27 -30 -55 -13 -27 -30 -56 -36 -63 -7 -7 -13 -18 -13 -24 0 -6 -11 -26 -25
-44 -14 -18 -25 -37 -25 -43 0 -6 -9 -15 -20 -21 -11 -6 -20 -18 -20 -28 -1
-15 -2 -15 -15 2 -17 23 -35 13 -35 -20 0 -16 8 -28 23 -33 18 -8 28 -3 55 27
19 21 46 55 60 77 15 22 30 42 34 45 4 3 12 17 18 30 5 14 24 48 41 75 16 28
35 61 42 75 6 14 17 31 24 38 7 7 13 19 13 26 0 8 7 19 15 26 8 7 15 19 15 27
0 7 5 19 10 26 21 23 80 119 80 128 0 6 5 15 10 22 41 48 50 62 50 73 0 7 4
14 8 16 10 4 72 105 72 118 0 6 7 10 16 10 12 0 15 -7 11 -27 -6 -32 -31 -103
-52 -150 -8 -17 -15 -40 -15 -52 0 -12 -4 -21 -10 -21 -5 0 -13 -18 -16 -40
-4 -22 -10 -40 -14 -40 -4 0 -11 -17 -15 -37 -4 -20 -13 -46 -21 -57 -8 -11
-14 -28 -14 -38 0 -10 -4 -18 -10 -18 -5 0 -10 -5 -10 -11 0 -16 -42 -101 -57
-117 -7 -7 -13 -18 -13 -23 0 -5 -12 -28 -27 -52 -56 -87 -66 -117 -38 -117
19 0 55 36 55 55 0 8 4 15 9 15 5 0 13 10 17 22 3 12 13 28 20 36 8 7 14 19
14 26 0 8 7 19 15 26 8 7 15 18 15 25 0 12 78 154 98 178 9 10 8 17 0 25 -10
10 -10 17 -1 31 6 10 15 35 18 55 4 20 11 36 15 36 4 0 11 16 14 35 4 19 13
47 21 62 8 15 15 38 15 50 0 12 4 24 9 28 6 3 13 27 17 53 3 26 10 52 14 57 4
6 11 29 15 52 4 24 11 45 16 49 5 3 9 13 9 23 0 10 9 28 20 41 11 13 20 28 20
34 0 6 25 37 55 70 30 32 55 62 55 67 0 16 -23 10 -46 -12 -23 -22 -44 -19
-44 7 0 8 7 17 15 20 8 4 15 10 15 16 0 5 9 29 20 54 14 30 27 44 40 44 11 0
20 7 20 15 0 8 -4 15 -9 15 -5 0 -16 3 -24 6 -9 3 -25 -4 -36 -15z"/>
<path d="M8180 3644 c0 -9 -9 -27 -20 -42 -19 -23 -19 -27 -5 -41 15 -15 18
-14 35 9 24 31 27 90 5 90 -8 0 -15 -7 -15 -16z"/>
<path d="M8520 3571 c0 -12 5 -21 10 -21 6 0 10 6 10 14 0 8 -4 18 -10 21 -5
3 -10 -3 -10 -14z"/>
<path d="M8493 3475 c0 -22 2 -30 4 -17 2 12 2 30 0 40 -3 9 -5 -1 -4 -23z"/>
<path d="M8548 3456 c-7 -39 -4 -55 8 -44 3 3 4 23 2 44 l-3 39 -7 -39z"/>
<path d="M8457 3413 c-4 -3 -7 -23 -7 -44 0 -23 -5 -39 -15 -43 -9 -3 -14 -18
-13 -42 1 -25 -4 -39 -15 -46 -10 -5 -17 -19 -17 -32 0 -13 -7 -29 -15 -36 -8
-7 -15 -25 -15 -40 0 -16 -7 -30 -15 -34 -8 -3 -15 -14 -15 -25 0 -10 -7 -21
-15 -25 -8 -3 -15 -15 -15 -26 0 -11 -7 -23 -15 -26 -16 -7 -21 -44 -6 -44 14
0 81 106 81 129 0 12 4 21 9 21 11 0 57 91 53 106 -1 6 5 17 13 24 9 7 15 29
15 52 0 22 7 46 15 54 8 9 15 31 15 50 0 32 -8 42 -23 27z"/>
<path d="M8250 2925 c0 -8 5 -15 10 -15 6 0 10 7 10 15 0 8 -4 15 -10 15 -5 0
-10 -7 -10 -15z"/>
<path d="M8210 2885 c0 -8 7 -15 15 -15 8 0 15 7 15 15 0 8 -7 15 -15 15 -8 0
-15 -7 -15 -15z"/>
<path d="M928 1387 c-21 -12 -38 -27 -38 -33 0 -19 53 -28 65 -11 5 7 22 17
38 21 30 7 36 30 11 40 -24 9 -36 7 -76 -17z"/>
</g>
</svg>
