 <svg version="1.0" xmlns="http://www.w3.org/2000/svg" width="700.000000pt" height="700.000000pt" viewBox="0 0 700.000000 700.000000" preserveAspectRatio="xMidYMid meet">
<metadata>
Created by potrace 1.12, written by Peter Selinger 2001-2015
</metadata>
<g transform="translate(0.000000,700.000000) scale(0.100000,-0.100000)" fill="#ffffff" stroke="none">
<path d="M2740 6928 c1 -17 37 -98 45 -98 3 0 -1 13 -10 30 -20 39 -21 67 0
50 14 -11 105 -155 105 -165 0 -2 -7 -2 -16 2 -9 3 9 -18 40 -47 36 -34 53
-57 47 -63 -5 -5 -40 -8 -78 -5 -50 2 -84 11 -128 33 -48 24 -55 30 -37 33 12
2 22 6 22 10 -1 12 -71 43 -82 36 -6 -4 -21 6 -33 22 -13 16 -27 26 -31 22 -4
-5 1 -17 11 -28 25 -27 15 -26 -104 16 -108 37 -161 39 -161 6 0 -12 3 -13 12
-4 7 7 25 12 40 12 38 0 274 -78 288 -95 15 -18 105 -65 125 -65 8 0 15 -4 15
-10 0 -5 -8 -10 -17 -10 -10 0 -23 -4 -29 -8 -7 -4 47 -8 120 -10 72 -1 140
-6 151 -11 11 -5 33 -14 48 -20 19 -8 27 -17 23 -26 -3 -10 3 -17 20 -21 34
-9 43 3 16 22 -56 39 -122 130 -122 168 0 8 -5 18 -12 22 -8 5 -9 -5 -5 -34 3
-23 2 -42 -2 -42 -17 0 -113 111 -151 175 -23 39 -51 80 -63 93 -22 24 -47 29
-47 10z m-65 -198 c3 -5 -1 -10 -9 -10 -9 0 -16 5 -16 10 0 6 4 10 9 10 6 0
13 -4 16 -10z m245 -25 c19 -19 32 -35 29 -35 -3 0 -20 16 -39 35 -19 19 -32
35 -29 35 3 0 20 -16 39 -35z m65 -85 c4 -6 -12 -9 -42 -9 l-48 2 40 7 c22 4
41 8 42 9 1 0 5 -3 8 -9z"></path>
<path d="M2810 6793 c13 -18 26 -30 29 -28 3 3 -8 18 -23 33 l-29 27 23 -32z"></path>
<path d="M3243 6762 c-35 -19 -61 -37 -59 -40 6 -6 126 61 126 70 0 10 7 13
-67 -30z"></path>
<path d="M2161 6737 c-14 -18 -1 -89 18 -95 10 -3 12 0 6 14 -4 11 -10 30 -12
44 -4 22 -2 21 19 -10 44 -67 102 -110 121 -91 8 8 6 11 -9 11 -11 0 -33 14
-49 30 -21 22 -24 30 -13 30 20 0 81 -21 149 -53 120 -54 195 -67 214 -37 8
13 -12 41 -43 64 l-27 19 28 -29 c42 -46 36 -57 -26 -52 -35 3 -86 20 -152 51
-55 25 -118 50 -140 55 -30 6 -41 13 -45 32 -7 29 -23 36 -39 17z"></path>
<path d="M3075 6683 c11 -2 30 -16 42 -31 13 -15 23 -21 23 -14 0 20 -39 52
-62 51 -21 -1 -21 -2 -3 -6z"></path>
<path d="M2080 6646 c0 -8 73 -130 106 -177 37 -53 36 -55 -38 -141 -27 -32
-60 -83 -75 -114 -22 -50 -25 -63 -17 -113 4 -31 8 -93 8 -138 1 -44 4 -79 9
-76 4 2 7 12 8 21 2 40 20 -52 30 -156 9 -95 9 -130 -6 -225 -9 -61 -20 -119
-23 -127 -8 -21 -9 -330 -1 -330 13 0 20 112 14 198 -7 80 6 222 22 262 10 24
19 -50 12 -93 -3 -20 -2 -40 2 -43 18 -11 22 32 12 125 -11 102 -4 136 38 190
10 13 19 30 19 37 0 28 -17 12 -41 -37 l-24 -52 -12 104 c-17 150 -17 152 6
139 21 -10 81 -3 81 11 0 10 -26 36 -42 41 -16 6 -11 94 7 131 7 15 10 27 5
27 -10 0 -26 -49 -35 -106 -6 -37 -3 -44 19 -62 33 -26 33 -32 -2 -32 -33 0
-62 27 -62 57 0 11 -7 40 -15 63 -8 23 -15 68 -15 99 0 63 29 122 99 201 l40
45 1 -43 c0 -24 7 -69 16 -99 15 -53 15 -55 -5 -77 -30 -32 -26 -44 5 -15 23
21 25 29 19 69 -23 169 -16 206 30 156 32 -34 33 -93 1 -88 -11 2 -15 -1 -11
-7 11 -19 35 -12 44 12 5 12 7 25 4 30 -10 16 15 5 34 -15 29 -32 36 -63 22
-90 -11 -21 -11 -22 4 -9 10 7 17 18 17 24 0 15 91 147 101 147 5 0 2 -14 -6
-31 -9 -17 -14 -33 -12 -36 3 -2 19 24 36 59 32 67 68 101 106 101 13 0 26 6
29 13 3 8 1 14 -4 14 -6 0 -10 4 -10 9 0 18 88 44 127 38 21 -3 30 -3 20 -1
-25 8 -11 24 21 24 21 0 24 -2 12 -10 -11 -7 -12 -10 -2 -10 42 0 46 -54 10
-125 -22 -42 -31 -75 -21 -75 5 0 13 10 18 22 10 21 120 86 131 76 5 -6 -41
-88 -77 -140 -21 -29 -26 -52 -6 -28 7 8 26 23 42 33 137 83 235 91 235 20 0
-38 -25 -77 -69 -106 -23 -15 -41 -32 -41 -37 0 -15 16 -12 30 5 19 23 29 18
27 -11 -1 -15 3 -28 8 -30 6 -2 10 10 10 27 0 22 8 37 26 51 26 20 109 37 109
23 0 -13 -56 -109 -105 -181 -25 -36 -45 -73 -44 -82 0 -11 4 -8 10 8 5 14 56
70 112 124 110 107 147 151 147 175 0 8 -13 -5 -29 -30 -27 -41 -161 -181
-161 -167 0 3 20 37 45 75 25 37 45 73 45 79 0 13 -41 26 -62 20 -7 -2 -25 -7
-39 -10 l-26 -6 15 44 c15 40 15 45 -2 71 -17 25 -22 27 -71 23 -29 -3 -77
-16 -106 -31 -29 -14 -55 -24 -57 -22 -2 2 10 24 28 50 30 43 34 75 10 75 -6
0 -34 -12 -62 -26 l-51 -26 7 24 c4 12 10 46 13 73 5 47 3 52 -21 65 -21 11
-34 12 -57 3 -22 -8 -29 -8 -29 0 0 9 -2 9 -8 1 -4 -6 -29 -18 -55 -27 -26 -9
-65 -30 -87 -47 -21 -17 -44 -29 -51 -28 -7 2 -17 -6 -23 -18 -6 -11 -18 -28
-27 -37 -9 -9 -34 -45 -55 -81 -21 -36 -41 -66 -44 -66 -14 0 -124 123 -113
127 9 3 8 13 -4 38 -15 31 -19 33 -51 28 -30 -5 -34 -4 -29 10 4 11 -1 20 -14
27 -11 6 -17 15 -15 19 3 4 -5 18 -18 30 -13 12 -31 40 -41 62 -10 21 -22 39
-27 39 -4 0 -8 -2 -8 -4z"></path>
<path d="M3156 6632 c-7 -11 40 -22 92 -22 44 0 35 12 -12 15 -19 2 -44 6 -55
10 -10 3 -22 2 -25 -3z"></path>
<path d="M3290 6608 c0 -10 99 -9 165 2 39 6 27 7 -57 6 -59 0 -108 -4 -108
-8z"></path>
<path d="M3520 6595 c7 -11 32 -39 54 -62 43 -47 32 -59 -16 -18 -16 14 -38
25 -48 25 -25 0 -50 -10 -50 -21 0 -12 55 -39 81 -39 39 0 102 -24 106 -40 4
-14 88 -40 131 -40 17 0 52 37 52 55 0 21 -28 19 -88 -6 l-50 -21 -31 23 c-23
17 -28 26 -20 36 9 10 7 13 -6 13 -9 0 -42 26 -73 58 -31 31 -50 48 -42 37z
m25 -78 c10 -8 14 -16 9 -19 -14 -8 -75 12 -69 22 9 14 38 12 60 -3z m265 -65
c0 -17 -25 -32 -54 -32 l-31 1 35 19 c39 21 50 24 50 12z"></path>
<path d="M3397 6426 c-69 -19 -72 -28 -12 -38 19 -3 85 -89 85 -110 0 -6 -8
-7 -17 -4 -13 4 -11 0 6 -14 21 -18 41 -26 41 -17 0 19 -80 144 -98 153 -25
12 -19 24 14 24 13 0 26 5 29 10 3 6 5 10 3 9 -2 0 -24 -6 -51 -13z"></path>
<path d="M3508 6433 c23 -2 59 -2 80 0 20 2 1 4 -43 4 -44 0 -61 -2 -37 -4z"></path>
<path d="M3179 6391 c-23 -19 -24 -19 -5 -40 20 -23 76 -42 116 -40 15 1 8 5
-19 10 -46 9 -91 33 -91 49 0 15 37 30 57 24 15 -5 15 -4 3 5 -21 15 -35 14
-61 -8z"></path>
<path d="M3261 6387 c2 -1 13 -9 24 -17 19 -14 19 -14 6 3 -7 9 -18 17 -24 17
-6 0 -8 -1 -6 -3z"></path>
<path d="M3904 6347 c-23 -17 -62 -60 -88 -94 -49 -65 -68 -75 -85 -45 -6 9
-11 12 -11 6 0 -11 32 -44 42 -44 4 0 28 30 56 68 27 37 67 80 89 95 40 27 40
28 71 10 27 -16 66 -76 85 -133 5 -13 5 -13 6 0 2 44 -85 171 -117 170 -4 0
-26 -15 -48 -33z"></path>
<path d="M3340 6336 c0 -3 9 -10 20 -16 11 -6 20 -8 20 -6 0 3 -9 10 -20 16
-11 6 -20 8 -20 6z"></path>
<path d="M3402 6294 c10 -10 20 -15 24 -12 3 4 -5 12 -18 18 -22 12 -22 12 -6
-6z"></path>
<path d="M2422 6227 c-23 -34 -49 -73 -59 -87 -10 -13 -12 -21 -5 -16 16 9
115 156 110 162 -3 2 -23 -24 -46 -59z"></path>
<path d="M4071 6175 c1 -19 18 -51 18 -35 0 8 -4 22 -9 30 -5 8 -9 11 -9 5z"></path>
<path d="M2331 6139 c-7 -12 -10 -23 -8 -26 3 -3 11 5 17 17 15 28 8 35 -9 9z"></path>
<path d="M4091 6110 c0 -8 4 -22 9 -30 12 -18 12 -2 0 25 -6 13 -9 15 -9 5z"></path>
<path d="M2283 6038 c-18 -34 -31 -64 -29 -66 6 -6 68 107 64 118 -2 5 -18
-18 -35 -52z"></path>
<path d="M3246 5940 c-32 -22 -62 -40 -67 -40 -5 0 -9 -7 -9 -15 0 -8 -5 -15
-11 -15 -6 0 -9 9 -6 20 6 25 -7 34 -38 26 -17 -4 -36 -32 -76 -108 -28 -57
-65 -122 -81 -145 -16 -24 -26 -43 -23 -43 8 0 93 134 118 187 33 71 57 103
76 103 14 0 17 -7 13 -30 -3 -22 0 -30 11 -30 9 0 21 8 26 18 6 10 11 12 11 4
0 -7 4 -11 10 -7 5 3 7 11 4 18 -4 12 84 77 105 77 16 0 13 -16 -4 -30 -8 -7
-15 -25 -15 -41 0 -43 31 -46 103 -11 75 37 156 56 203 49 19 -3 36 -1 40 5
11 18 -184 3 -204 -15 -26 -22 -79 -47 -101 -47 -31 0 -34 17 -12 56 12 19 21
39 21 45 0 19 -37 7 -94 -31z"></path>
<path d="M4137 5956 c-4 -9 2 -44 13 -76 27 -80 27 -136 0 -143 -15 -4 -20
-14 -20 -40 0 -19 -9 -65 -20 -101 -17 -53 -27 -69 -50 -81 -17 -9 -30 -20
-30 -26 0 -7 -6 -6 -17 2 -9 8 -14 9 -10 2 4 -7 -6 -23 -25 -38 -31 -25 -26
-27 21 -7 11 4 12 -2 7 -34 -4 -21 -14 -51 -22 -67 -22 -41 -124 -104 -192
-117 -65 -13 -126 -34 -156 -56 -28 -19 -63 -18 -74 4 -18 34 -51 189 -63 292
-13 114 -21 134 -39 100 -6 -12 -9 -24 -6 -28 3 -3 6 0 6 6 0 7 5 12 11 12 5
0 8 -3 6 -7 -16 -26 62 -390 86 -405 22 -14 46 -8 113 27 36 19 80 35 98 35
41 0 164 59 198 96 27 30 48 89 48 136 0 35 37 49 58 22 13 -19 13 -19 10 0
-2 10 5 23 15 30 15 9 22 6 43 -17 13 -15 24 -34 24 -41 0 -27 -104 -225 -166
-313 -35 -51 -60 -93 -55 -93 14 0 135 188 185 287 55 110 58 142 16 180 l-30
27 47 29 c27 17 70 41 96 55 27 13 47 26 45 28 -9 8 -65 -15 -123 -49 -33 -19
-61 -34 -63 -33 -7 8 34 162 46 172 15 11 19 105 5 127 -4 6 -12 37 -18 66 -8
38 -14 49 -18 37z"></path>
<path d="M3860 5885 c-6 -8 -10 -20 -7 -27 4 -8 6 -7 6 5 2 28 46 21 74 -13
27 -31 32 -49 42 -145 7 -62 44 -160 52 -137 3 7 0 19 -6 26 -17 20 -29 69
-37 145 -7 73 -15 93 -52 134 -29 30 -53 34 -72 12z"></path>
<path d="M3625 5665 l-30 -14 30 7 c33 7 37 7 172 4 l93 -2 24 -39 c14 -21 40
-49 58 -62 l33 -22 -35 34 c-19 20 -46 49 -60 66 -25 31 -26 31 -140 36 -86 4
-123 2 -145 -8z"></path>
<path d="M3215 5624 c-108 -23 -285 -69 -305 -81 -18 -10 -20 -12 -5 -9 11 3
63 17 115 30 128 33 141 34 168 12 12 -11 22 -23 22 -26 0 -4 -28 -13 -62 -20
-45 -10 -72 -23 -100 -48 -21 -19 -38 -40 -38 -47 0 -7 -24 -31 -54 -54 -30
-22 -74 -63 -98 -91 -51 -59 -118 -167 -118 -189 0 -9 14 11 31 44 51 99 141
200 212 236 20 11 37 25 37 31 0 22 45 77 70 88 14 5 43 14 65 19 22 5 47 12
56 15 12 6 21 -6 37 -51 23 -64 44 -170 44 -222 0 -50 -120 -169 -221 -219
-67 -33 -83 -37 -154 -37 -73 0 -81 2 -98 25 -11 14 -20 44 -22 67 -1 26 -5
38 -12 32 -13 -13 11 -99 36 -124 16 -17 32 -20 94 -19 68 0 83 4 155 41 84
43 109 46 168 22 33 -14 35 -13 58 16 20 25 24 41 24 102 0 57 5 81 25 119 14
26 25 59 25 73 0 19 9 31 33 45 19 11 27 21 19 23 -7 3 -19 -1 -27 -7 -12 -10
-17 -7 -25 16 -26 73 -35 86 -61 99 -15 8 -36 15 -46 15 -17 1 -73 42 -73 55
0 3 23 5 50 5 28 0 50 5 50 10 0 10 -36 12 -75 4z m104 -107 c18 -15 41 -70
41 -97 0 -13 -10 -24 -25 -30 -14 -5 -25 -17 -25 -25 0 -33 -17 -4 -23 38 -3
23 -13 56 -21 72 -9 17 -16 38 -16 49 0 15 5 17 27 11 16 -4 34 -12 42 -18z
m37 -173 c-7 -27 -36 -77 -42 -72 -2 2 -5 17 -8 34 -5 24 -1 33 22 47 35 22
35 21 28 -9z m-46 -187 c0 -39 -19 -82 -44 -99 -7 -5 -63 14 -85 29 -8 6 112
122 121 117 4 -3 8 -24 8 -47z"></path>
<path d="M2830 5484 c0 -8 5 -12 10 -9 6 3 10 10 10 16 0 5 -4 9 -10 9 -5 0
-10 -7 -10 -16z"></path>
<path d="M2721 5423 c-53 -106 -101 -272 -99 -343 l1 -45 7 55 c19 137 98 349
135 363 19 8 20 27 0 27 -8 0 -28 -26 -44 -57z"></path>
<path d="M3663 5350 c-26 -11 -28 -19 -10 -43 15 -20 40 -4 49 31 7 24 -2 27
-39 12z"></path>
<path d="M2930 5202 c-44 -30 -63 -62 -36 -62 8 0 16 -6 19 -12 3 -10 7 -10
20 1 10 7 17 18 17 23 0 6 12 19 26 30 20 16 23 23 12 29 -18 12 -29 10 -58
-9z"></path>
<path d="M2131 5065 c-1 -38 -3 -79 -5 -90 -2 -11 -1 -14 1 -7 3 8 12 11 20 8
12 -5 13 -2 7 11 -4 10 -11 47 -14 83 l-7 65 -2 -70z"></path>
<path d="M4010 5056 c-12 -33 -13 -46 -1 -46 9 0 22 61 15 69 -2 2 -8 -8 -14
-23z"></path>
<path d="M2651 5052 c-6 -12 -11 -40 -11 -64 0 -53 -20 -162 -60 -338 -17 -74
-42 -207 -55 -295 -13 -88 -31 -194 -39 -236 -8 -42 -18 -110 -21 -150 -4 -41
-15 -105 -25 -144 -11 -38 -24 -110 -30 -160 -5 -49 -13 -108 -16 -130 l-7
-40 -21 65 -21 65 -40 -1 c-22 -1 -60 -7 -84 -13 -37 -10 -49 -9 -85 7 -22 11
-49 22 -59 26 -16 5 -18 19 -16 148 2 124 15 284 33 396 2 17 1 32 -3 32 -9 0
-29 -174 -43 -391 l-11 -177 -45 -6 c-51 -7 -64 -2 -55 21 4 11 3 14 -5 9 -8
-5 -10 1 -7 21 61 335 74 388 94 401 12 8 21 19 21 25 0 7 -4 7 -12 -1 -7 -7
-16 -12 -21 -12 -13 0 2 39 24 61 21 21 25 55 8 61 -6 2 -1 40 15 108 29 126
43 235 27 225 -6 -3 -11 -12 -11 -19 0 -8 -20 -19 -45 -25 -52 -13 -262 -152
-320 -211 -34 -35 -36 -40 -20 -46 12 -5 33 1 56 14 68 40 74 30 29 -50 -68
-121 -159 -304 -186 -376 -30 -77 -35 -183 -18 -382 8 -105 11 -115 30 -118
20 -3 20 -4 7 -107 -7 -57 -25 -164 -39 -237 -14 -73 -32 -169 -40 -213 -8
-44 -16 -152 -18 -240 -1 -89 -5 -166 -9 -172 -4 -5 3 -19 15 -29 21 -19 78
-132 78 -155 0 -6 -14 -27 -30 -46 -16 -18 -30 -38 -30 -44 0 -20 31 -20 64 0
19 12 36 18 38 14 5 -14 101 -90 133 -106 28 -15 23 -16 -90 -10 -66 3 -118 3
-115 0 3 -2 64 -8 135 -12 72 -3 137 -8 145 -10 15 -5 321 -35 348 -35 23 0 5
13 -21 16 -12 1 -69 5 -127 9 -57 4 -113 11 -124 15 -18 6 -16 8 10 14 47 12
123 53 167 91 27 24 44 32 51 25 22 -22 60 -9 108 36 27 25 52 44 55 41 9 -10
-7 -44 -35 -75 -29 -31 -114 -92 -130 -92 -5 0 -14 15 -20 33 l-12 32 6 -40
c7 -48 19 -64 38 -50 7 6 38 27 69 47 73 48 109 102 109 162 0 27 5 50 14 57
21 17 82 97 62 81 -13 -10 -17 -10 -22 4 -5 13 -9 15 -18 6 -23 -23 -25 -12
-6 28 11 22 22 66 25 98 5 54 3 61 -18 75 -20 15 -21 19 -10 40 7 13 24 36 39
53 75 81 103 128 132 217 15 49 6 60 -60 67 l-49 5 45 60 c54 72 64 103 39
122 -18 12 -18 14 7 40 18 19 29 44 33 78 6 47 5 53 -32 100 l-38 50 1 95 c1
52 11 153 23 223 12 70 20 133 17 140 -3 8 -5 7 -6 -3 -3 -49 -48 -280 -49
-255 -4 114 43 481 67 520 4 5 7 17 7 25 0 8 4 45 9 83 6 45 5 71 -2 80 -10
12 2 137 24 240 7 33 33 36 60 5 23 -26 114 -227 125 -275 9 -44 -6 -32 -30
22 -11 25 -22 45 -25 45 -11 0 28 -86 55 -120 15 -19 30 -48 33 -63 4 -16 20
-41 37 -56 l30 -27 -16 -69 c-21 -87 -13 -104 55 -130 31 -12 66 -36 88 -60
31 -34 43 -40 84 -43 33 -2 57 2 74 12 23 16 28 15 87 -9 34 -13 78 -27 97
-30 19 -4 4 5 -33 18 -73 26 -105 47 -71 47 20 0 123 33 159 50 11 5 65 28
119 50 112 47 166 78 214 123 38 36 40 52 11 83 -20 21 -20 26 -9 73 7 28 9
59 6 68 -6 14 -11 12 -39 -14 -18 -17 -40 -33 -49 -36 -10 -4 -18 -11 -18 -16
0 -5 -26 -26 -57 -45 -64 -40 -65 -48 -1 -13 65 35 77 43 97 61 18 16 19 16
23 -21 3 -23 0 -46 -9 -58 -7 -11 -13 -25 -13 -32 0 -21 31 -15 37 7 6 24 26
21 31 -4 7 -37 -86 -101 -250 -172 -102 -44 -151 -58 -89 -25 38 20 29 34 -17
25 -19 -4 -29 -11 -26 -19 4 -8 -12 -19 -43 -29 -68 -22 -133 -31 -133 -18 0
6 3 12 8 15 4 2 0 1 -8 -1 -39 -13 -90 -12 -123 1 -28 12 -38 24 -46 54 -6 21
-11 48 -11 60 0 22 -16 40 -27 29 -3 -3 -8 -24 -10 -48 -4 -35 -1 -47 16 -62
23 -21 27 -36 11 -36 -15 0 -59 48 -78 85 -21 41 -32 94 -21 101 5 3 7 10 4
15 -4 5 8 10 24 11 17 1 38 2 48 2 33 2 85 -132 62 -160 -7 -8 -7 -14 -1 -14
5 0 15 7 22 15 18 21 57 19 93 -7 21 -14 27 -16 19 -6 -8 10 -11 22 -7 28 4 6
-6 10 -24 10 -17 0 -31 5 -31 11 0 7 -10 9 -25 5 -27 -7 -32 -1 -38 45 -1 15
-9 35 -17 45 -14 16 -13 17 8 12 12 -4 22 -3 22 2 0 4 -12 11 -27 15 l-28 8
40 18 c22 11 65 26 95 36 30 9 50 18 43 20 -6 2 -45 -7 -85 -21 -41 -14 -82
-26 -91 -26 -24 0 -58 75 -64 142 -3 32 -9 58 -12 58 -3 0 -19 -30 -35 -65
-16 -36 -34 -65 -41 -65 -15 0 -45 33 -45 50 0 19 -44 135 -85 225 -42 92 -79
145 -102 145 -10 0 -13 5 -8 18 23 58 65 280 65 344 0 26 5 59 10 74 13 32 6
44 -9 16z m-593 -577 c4 -28 -40 -236 -59 -283 -5 -13 -9 -40 -9 -61 0 -44
-23 -72 -42 -53 -23 23 -138 7 -138 -20 0 -11 8 -10 57 8 42 16 73 14 73 -6 0
-5 -7 -10 -15 -10 -8 0 -15 -4 -15 -10 0 -12 2 -12 34 0 31 12 32 10 11 -97
-30 -153 -45 -238 -45 -265 0 -32 -24 -58 -54 -58 -12 0 -31 -7 -42 -15 -16
-13 -17 -14 -1 -9 23 8 56 -21 54 -47 -1 -12 -11 -22 -24 -25 -28 -7 -53 -40
-53 -70 0 -21 70 -94 90 -94 31 0 16 -36 -49 -120 -66 -85 -80 -119 -44 -106
10 4 13 1 10 -12 -3 -9 -15 -64 -28 -122 -14 -67 -31 -117 -46 -137 -30 -41
-29 -53 3 -53 22 0 25 -4 21 -22 -47 -190 -55 -300 -25 -347 25 -40 -54 -154
-97 -138 -8 4 -21 0 -28 -8 -12 -12 -17 -8 -32 26 -10 21 -23 43 -29 48 -8 7
-11 66 -9 184 2 179 1 172 73 552 6 28 15 94 21 148 5 54 18 130 28 168 13 50
14 69 6 69 -7 0 -18 -27 -24 -60 -18 -90 -37 -80 -45 23 -18 246 -18 283 -2
348 20 77 94 234 182 385 35 61 64 116 64 123 0 16 -29 13 -79 -9 -24 -11 -46
-19 -48 -17 -9 10 191 159 273 202 59 31 78 29 82 -10z m842 -259 c0 -12 11
-44 24 -69 26 -52 13 -64 -26 -25 -13 13 -31 21 -40 20 -23 -4 -23 8 4 62 22
47 38 51 38 12z m804 -3 c-4 -16 -11 -32 -17 -38 -6 -7 -8 -2 -3 15 3 14 6 31
6 38 0 6 5 12 10 12 6 0 8 -11 4 -27z m-1204 -120 c-11 -17 -11 -17 -6 0 3 10
6 24 7 30 0 9 2 9 5 0 3 -7 0 -20 -6 -30z m358 19 c2 -7 -2 -10 -12 -6 -9 3
-16 11 -16 16 0 13 23 5 28 -10z m44 -200 l21 -34 -42 21 c-42 22 -48 38 -34
90 6 22 6 22 20 -10 7 -18 23 -48 35 -67z m68 48 c0 -5 -2 -10 -4 -10 -3 0 -8
5 -11 10 -3 6 -1 10 4 10 6 0 11 -4 11 -10z m74 -114 c44 -15 55 -41 22 -50
-15 -4 -28 1 -43 20 -13 14 -23 29 -23 35 0 11 -3 11 44 -5z m86 -26 c0 -5 -4
-10 -10 -10 -5 0 -10 5 -10 10 0 6 5 10 10 10 6 0 10 -4 10 -10z m70 0 c-20
-5 -39 -5 -44 1 -6 5 7 9 35 8 l44 -1 -35 -8z m-747 -77 c-8 -120 -23 -267
-28 -271 -3 -3 -9 -1 -14 4 -12 13 29 324 43 324 1 0 1 -26 -1 -57z m-417
-132 c-9 -13 -75 -14 -96 -1 -13 8 -13 10 0 14 25 9 85 12 94 5 4 -4 5 -12 2
-18z m96 -6 c2 -5 -16 -11 -39 -13 -37 -3 -43 0 -43 16 0 10 3 21 6 25 8 8 73
-16 76 -28z m187 -19 c10 -11 9 -21 -3 -45 -29 -55 -12 -91 42 -91 19 0 20 -7
18 -115 -1 -89 2 -118 13 -124 11 -7 7 -13 -18 -25 -17 -9 -31 -20 -31 -25 0
-12 25 -21 56 -21 37 0 29 -16 -18 -35 -49 -19 -78 -42 -78 -62 0 -20 17 -16
23 7 3 12 28 30 63 46 59 27 100 32 117 15 12 -12 -31 -78 -103 -154 -33 -36
-60 -70 -60 -77 0 -8 15 -11 43 -9 77 4 107 0 107 -16 0 -21 -117 -136 -132
-130 -14 4 -64 -52 -55 -61 9 -9 44 14 115 74 65 54 66 55 37 17 -16 -22 -53
-68 -82 -103 -29 -34 -53 -68 -53 -76 0 -7 12 -18 26 -25 26 -11 26 -14 20
-69 -8 -65 -50 -148 -103 -204 -24 -24 -33 -41 -27 -50 5 -7 9 -20 9 -28 1
-22 -46 -70 -67 -70 -23 0 -35 46 -19 73 10 15 10 18 0 15 -7 -2 -20 -18 -29
-36 -29 -54 -91 -110 -155 -139 -97 -45 -185 -35 -269 32 -20 15 -20 15 0 30
18 15 18 15 -7 9 -21 -4 -30 1 -52 30 l-27 35 46 31 46 32 23 -22 c16 -15 49
-27 97 -36 95 -17 143 -17 200 0 60 19 222 100 208 104 -5 2 -52 -17 -103 -41
-123 -60 -184 -71 -285 -51 -101 21 -136 50 -129 109 2 22 16 66 31 98 25 54
28 57 64 57 49 0 85 20 92 50 7 28 2 50 -11 50 -4 0 -6 -7 -2 -16 11 -29 -17
-62 -59 -69 -22 -4 -41 -5 -44 -2 -2 2 14 32 37 66 29 44 38 66 31 73 -10 10
-18 -2 -70 -104 -8 -16 -18 -28 -23 -28 -13 0 -11 34 3 48 7 7 8 12 2 12 -20
0 -35 -39 -23 -61 15 -30 4 -35 -15 -7 -19 29 -16 96 10 221 22 113 22 113 72
78 46 -34 92 -50 92 -32 0 6 -9 11 -19 11 -11 0 -32 11 -48 24 -15 12 -38 28
-51 35 -35 18 -21 80 38 166 60 89 76 121 83 167 l5 36 -41 5 c-30 3 -46 0
-54 -11 -7 -9 -16 -13 -19 -9 -3 3 16 33 42 67 76 95 81 106 66 130 -10 17 -9
25 4 45 16 24 16 29 0 77 -21 67 -20 73 9 54 30 -20 36 -20 61 0 18 15 18 15
-7 10 -18 -4 -35 0 -50 13 -33 27 -19 35 44 27 l54 -7 0 -166 c0 -150 1 -167
18 -179 10 -8 26 -14 34 -14 12 1 11 3 -4 12 -11 6 -22 13 -25 15 -2 2 -5 69
-6 149 -2 80 0 143 3 140 3 -3 22 2 42 11 56 24 153 51 187 52 17 1 37 -5 43
-13z m-252 -23 c-9 -9 -19 -14 -23 -11 -10 10 6 28 24 28 15 0 15 -1 -1 -17z
m302 -85 c1 -12 -34 -9 -46 3 -9 9 -8 20 4 43 l16 31 13 -35 c7 -19 13 -38 13
-42z m-464 -7 c7 -42 -7 -81 -28 -81 -17 0 -67 52 -67 70 0 23 32 50 61 50 24
0 28 -5 34 -39z m525 -37 c0 -8 -4 -12 -10 -9 -5 3 -10 13 -10 21 0 8 5 12 10
9 6 -3 10 -13 10 -21z m-1 -50 c12 -15 21 -31 21 -37 0 -15 -51 -87 -59 -83
-9 6 -1 146 9 146 5 0 18 -12 29 -26z m86 -85 c11 -11 -38 -56 -72 -65 -40
-11 -44 6 -11 47 31 39 55 44 83 18z m11 -55 c-3 -9 -6 -18 -6 -20 0 -2 -10
-4 -22 -4 -20 0 -21 1 -3 20 22 24 40 26 31 4z m-37 -51 c-41 -51 -41 -51 -72
-42 -16 5 -32 10 -34 13 -8 8 71 45 96 46 21 0 22 -2 10 -17z m-609 -66 c0
-22 -12 -50 -35 -83 -19 -27 -35 -54 -35 -60 0 -6 -7 -17 -15 -24 -20 -16 -19
-7 1 76 12 46 20 62 27 55 18 -18 25 -13 19 14 -4 25 12 55 29 55 5 0 9 -15 9
-33z m635 -227 c0 -12 -13 -14 -70 -12 -76 4 -80 5 -70 22 4 7 32 10 73 8 52
-2 67 -6 67 -18z m-760 -59 c-3 -6 -11 -11 -17 -11 -6 0 -6 6 2 15 14 17 26
13 15 -4z m585 -542 c-16 -31 -41 -59 -52 -59 -13 0 1 39 25 72 25 33 45 22
27 -13z m-640 -4 c0 -8 -7 -15 -15 -15 -16 0 -20 12 -8 23 11 12 23 8 23 -8z
m-35 -37 l30 -3 -40 -27 -40 -28 -8 22 c-4 13 -5 33 -2 46 5 21 8 22 18 9 7
-9 26 -17 42 -19z m-55 -113 c0 -14 -40 -38 -49 -29 -6 5 30 44 41 44 4 0 8
-7 8 -15z"></path>
<path d="M1647 2912 c-19 -20 -23 -72 -7 -72 6 0 8 10 4 24 -4 17 0 28 16 39
12 9 29 13 36 10 8 -3 14 0 14 6 0 18 -45 13 -63 -7z"></path>
<path d="M2200 2210 c0 -5 5 -10 10 -10 6 0 10 5 10 10 0 6 -4 10 -10 10 -5 0
-10 -4 -10 -10z"></path>
<path d="M3345 4973 c-10 -14 -28 -58 -40 -97 -13 -39 -33 -94 -46 -123 -20
-46 -21 -55 -9 -77 19 -37 100 -56 100 -25 0 6 -9 7 -20 4 -45 -14 -97 55 -54
72 12 4 13 8 3 13 -9 6 -7 16 8 42 11 18 28 64 38 101 13 50 22 67 34 65 11
-2 17 6 19 25 4 34 -11 35 -33 0z"></path>
<path d="M4002 4924 c-2 -75 -4 -82 -24 -89 -20 -6 -20 -8 -5 -12 23 -6 22
-19 -7 -99 -13 -36 -20 -62 -15 -57 6 6 21 44 34 84 l23 74 48 13 c59 15 322
38 331 28 4 -3 1 -12 -6 -19 -8 -8 -51 -12 -129 -13 -147 -1 -222 -23 -222
-65 0 -23 18 -35 33 -20 8 8 6 11 -7 11 -33 0 -10 25 40 42 59 21 180 22 315
5 139 -19 194 -58 156 -112 -14 -18 -16 -16 -41 33 -14 29 -30 52 -35 52 -5 0
1 -19 13 -42 13 -24 42 -113 65 -198 51 -187 50 -184 56 -178 3 3 -6 47 -20
99 -14 52 -30 108 -34 124 -4 17 -11 40 -15 53 -5 16 -3 22 7 22 7 0 20 18 27
40 12 36 11 42 -6 61 -27 30 -69 46 -144 55 -61 7 -63 8 -42 22 26 17 29 42 5
43 -84 5 -286 -6 -330 -17 -30 -8 -56 -14 -58 -14 -2 0 -6 35 -8 78 l-3 77 -2
-81z"></path>
<path d="M2131 4820 c-21 -218 -24 -255 -18 -250 7 7 40 346 35 362 -3 7 -10
-44 -17 -112z"></path>
<path d="M3550 4830 c0 -5 5 -10 10 -10 17 0 11 -69 -10 -112 -24 -50 -24 -48
-5 -48 8 0 15 8 15 19 0 10 7 35 15 54 8 20 15 52 15 72 0 28 -4 35 -20 35
-11 0 -20 -4 -20 -10z"></path>
<path d="M3880 4537 c-19 -34 -58 -97 -87 -140 -29 -43 -53 -81 -53 -85 0 -3
25 29 56 73 60 87 128 204 122 210 -2 2 -19 -24 -38 -58z"></path>
<path d="M4600 4559 c0 -9 18 -43 40 -76 52 -76 78 -169 89 -310 5 -61 13
-117 17 -125 5 -7 11 -85 14 -172 6 -205 25 -223 24 -23 -1 100 -6 159 -17
193 -9 27 -20 100 -26 162 -11 119 -42 218 -88 278 -12 17 -23 35 -23 41 0 5
-7 18 -15 29 -12 16 -14 16 -15 3z"></path>
<path d="M2102 4433 c1 -122 6 -108 10 35 2 45 0 82 -4 82 -5 0 -7 -53 -6
-117z"></path>
<path d="M3838 4334 c-5 -7 -3 -35 2 -64 16 -85 12 -151 -10 -188 -11 -18 -25
-30 -30 -27 -6 3 -10 -1 -10 -9 0 -8 5 -18 10 -21 16 -10 11 -66 -9 -111 -23
-51 -85 -88 -185 -110 -158 -35 -192 -50 -51 -23 28 5 61 11 75 13 34 3 123
52 151 82 26 28 49 111 39 139 -6 15 -1 33 16 60 19 32 24 53 23 105 -1 87
-12 168 -21 154z"></path>
<path d="M2083 4295 c-17 -18 -16 -23 2 -41 13 -14 15 -11 15 20 0 40 0 41
-17 21z"></path>
<path d="M3272 4288 c-7 -7 -12 -16 -12 -21 0 -6 -8 -16 -17 -23 -10 -7 -15
-16 -10 -20 7 -8 77 53 77 68 0 12 -24 10 -38 -4z"></path>
<path d="M3455 4100 c-13 -6 -15 -9 -5 -9 8 0 22 4 30 9 18 12 2 12 -25 0z"></path>
<path d="M3390 4080 c-8 -5 -10 -10 -5 -10 6 0 17 5 25 10 8 5 11 10 5 10 -5
0 -17 -5 -25 -10z"></path>
<path d="M3315 4060 c-28 -7 -28 -8 -5 -9 14 0 32 4 40 9 17 11 8 11 -35 0z"></path>
<path d="M3258 4043 c7 -3 16 -2 19 1 4 3 -2 6 -13 5 -11 0 -14 -3 -6 -6z"></path>
<path d="M2938 4033 c6 -2 18 -2 25 0 6 3 1 5 -13 5 -14 0 -19 -2 -12 -5z"></path>
<path d="M3135 4030 c-34 -6 -36 -7 -10 -8 17 0 48 3 70 7 33 7 35 9 10 8 -16
0 -48 -3 -70 -7z"></path>
<path d="M3273 3893 c9 -2 25 -2 35 0 9 3 1 5 -18 5 -19 0 -27 -2 -17 -5z"></path>
<path d="M3228 3883 c7 -3 16 -2 19 1 4 3 -2 6 -13 5 -11 0 -14 -3 -6 -6z"></path>
<path d="M4034 3753 c-10 -21 -22 -39 -25 -41 -9 -4 -1 -89 11 -126 13 -43 31
-425 35 -761 2 -154 7 -323 10 -375 6 -82 -4 -203 -19 -217 -2 -2 -32 -8 -65
-13 -67 -9 -157 -53 -363 -178 -64 -39 -186 -105 -270 -147 -194 -98 -214
-110 -263 -155 -39 -37 -69 -47 -150 -53 -19 -1 -29 2 -27 11 1 6 -2 12 -8 12
-5 0 -10 -4 -10 -9 0 -13 -122 -71 -149 -71 -12 0 -21 -3 -21 -8 0 -14 84 0
110 18 31 22 70 35 70 22 0 -5 -23 -19 -51 -32 -28 -13 -52 -28 -55 -32 -3 -4
34 11 82 34 50 24 103 42 124 43 29 1 50 12 99 53 35 29 92 68 127 88 60 33
72 36 162 40 56 2 114 10 137 19 22 8 29 13 15 9 -14 -3 -54 -8 -90 -10 l-65
-5 39 15 c50 19 66 34 47 45 -11 7 -9 10 8 16 11 3 25 3 31 0 5 -3 48 21 94
55 46 33 111 74 144 90 33 16 64 35 69 43 15 25 124 70 179 75 29 2 58 10 64
17 19 23 32 178 21 241 -14 73 -14 476 -1 453 10 -18 44 -145 58 -224 l10 -50
0 40 c1 49 -7 90 -47 224 -28 97 -31 123 -42 353 -6 137 -9 252 -5 255 19 19
39 -74 30 -144 -4 -36 -3 -53 5 -53 7 0 11 28 11 81 0 68 -4 87 -26 124 -28
48 -32 81 -22 165 l7 55 -14 -45 -13 -45 -1 37 c-1 20 5 43 12 50 17 17 29 48
18 48 -4 0 -16 -17 -27 -37z m-604 -1853 c-20 -13 -33 -13 -25 0 3 6 14 10 23
10 15 0 15 -2 2 -10z"></path>
<path d="M3408 3753 c7 -3 16 -2 19 1 4 3 -2 6 -13 5 -11 0 -14 -3 -6 -6z"></path>
<path d="M4785 3583 c5 -38 12 -57 13 -44 5 31 -7 111 -16 111 -4 0 -3 -30 3
-67z"></path>
<path d="M4752 3386 c-17 -22 -18 -37 -14 -126 4 -79 1 -104 -10 -118 -21 -24
-29 -50 -18 -57 6 -4 10 5 10 19 0 14 5 28 11 32 13 8 4 -470 -11 -562 -6 -32
-9 -72 -9 -89 3 -70 29 154 38 319 7 130 13 181 23 187 10 6 10 11 0 21 -18
18 -17 317 2 363 17 41 6 46 -22 11z"></path>
<path d="M4697 2390 c-11 -101 -35 -249 -42 -261 -4 -6 -19 -15 -33 -21 -21
-9 -23 -12 -10 -15 9 -2 26 1 37 7 20 10 21 8 21 -43 0 -32 -5 -59 -12 -65
-29 -23 -90 -52 -98 -47 -5 3 -46 -1 -91 -10 -45 -8 -113 -15 -153 -15 -84 0
-116 -7 -116 -26 0 -16 17 -19 22 -3 5 14 128 25 128 11 0 -6 -9 -14 -20 -17
-17 -5 -29 -25 -15 -25 16 0 55 26 55 37 0 9 16 13 55 13 30 0 55 -4 55 -9 0
-14 -149 -107 -313 -196 -208 -113 -370 -209 -375 -223 -2 -7 3 -12 12 -12 11
0 326 167 431 229 6 3 -1 -4 -15 -17 -35 -32 -142 -101 -225 -146 -38 -21
-153 -93 -255 -161 -108 -72 -248 -154 -335 -197 -82 -41 -193 -99 -245 -130
-130 -74 -188 -101 -205 -94 -22 8 -99 134 -114 186 -12 39 -37 93 -86 180 -8
14 -23 68 -35 120 -12 52 -24 105 -27 118 -4 16 -1 22 11 22 20 0 29 -19 51
-107 10 -40 22 -70 27 -67 4 3 4 14 -2 24 -5 10 -15 40 -20 67 -12 57 -46 116
-62 111 -22 -8 -25 -45 -8 -113 32 -130 32 -125 15 -125 -21 0 -19 -17 9 -53
14 -18 28 -45 31 -60 4 -15 32 -66 61 -113 30 -48 54 -89 54 -94 0 -4 8 -16
18 -28 9 -11 33 -41 52 -66 19 -25 39 -45 44 -46 5 0 3 7 -4 15 -10 12 -9 15
6 16 11 0 75 31 144 70 69 38 199 106 288 150 90 44 196 102 235 128 40 26
117 78 172 115 55 37 129 84 165 104 96 53 213 130 364 240 73 53 147 104 164
114 21 11 29 22 26 35 -4 15 7 21 57 37 93 29 99 38 99 153 0 53 5 147 11 208
6 62 9 123 7 136 -2 13 -7 -5 -11 -41z m-487 -685 c0 -2 -10 -9 -22 -15 -22
-11 -22 -10 -4 4 21 17 26 19 26 11z m-50 -29 c0 -6 -157 -94 -230 -130 -88
-43 -20 5 78 55 45 24 95 51 110 61 26 17 42 22 42 14z"></path>
<path d="M6499 2076 c-2 -2 -166 -6 -364 -10 -198 -3 -520 -11 -715 -17 -195
-6 -417 -9 -492 -6 -147 5 -191 -6 -60 -16 166 -13 336 -13 422 1 36 5 202 12
370 16 168 3 454 9 635 13 182 5 414 8 518 8 103 0 187 3 187 8 0 7 -493 11
-501 3z"></path>
<path d="M3365 2040 c-27 -5 -77 -11 -110 -15 -33 -3 -116 -12 -185 -20 -69
-8 -190 -19 -270 -25 -80 -6 -183 -15 -230 -20 -47 -4 -148 -7 -225 -6 -83 2
-111 0 -70 -3 65 -6 57 -7 -120 -24 -215 -20 -309 -22 -300 -7 3 5 1 10 -4 10
-6 0 -11 -4 -11 -9 0 -5 -30 -12 -67 -16 -38 -3 -77 -10 -88 -16 -11 -5 -90
-13 -175 -19 -85 -6 -163 -13 -173 -16 -11 -4 -24 1 -31 11 -14 19 -71 23
-166 11 -173 -20 -329 -27 -619 -26 -346 1 -521 -7 -521 -23 0 -5 9 -6 22 -2
13 5 207 10 433 11 284 2 464 8 587 20 168 16 228 14 228 -5 0 -5 -37 -14 -83
-20 -117 -17 -140 -22 -130 -31 4 -4 33 -4 63 1 301 46 472 60 760 62 191 1
294 6 292 12 -2 6 -7 9 -10 8 -4 0 -59 -4 -122 -8 -77 -4 -110 -3 -100 4 9 5
143 12 305 15 262 5 440 17 453 31 3 3 -30 2 -73 -2 -64 -5 -77 -4 -73 8 5 14
39 19 263 34 174 12 603 63 622 74 17 10 17 10 -2 9 -11 0 -42 -4 -70 -8z
m-860 -111 c-37 -11 -282 -24 -274 -15 7 7 172 23 254 24 45 0 47 -1 20 -9z"></path>
<path d="M4002 2001 c-6 -16 -20 -32 -32 -36 -12 -4 -19 -9 -17 -12 3 -2 19 3
36 12 22 11 31 23 31 40 0 33 -6 32 -18 -4z"></path>
<path d="M3878 1943 c6 -2 18 -2 25 0 6 3 1 5 -13 5 -14 0 -19 -2 -12 -5z"></path>
<path d="M3803 1933 c9 -2 23 -2 30 0 6 3 -1 5 -18 5 -16 0 -22 -2 -12 -5z"></path>
<path d="M2960 1730 c-9 -6 -10 -10 -3 -10 6 0 15 5 18 10 8 12 4 12 -15 0z"></path>
<path d="M2825 1690 c-11 -5 -33 -11 -49 -15 -19 -4 -26 -9 -19 -16 11 -11 93
17 93 32 0 10 1 10 -25 -1z"></path>
<path d="M5383 1588 c-71 -82 -135 -147 -221 -221 -52 -45 -89 -83 -83 -85 15
-5 51 17 51 31 0 7 30 38 68 69 37 31 98 89 137 127 38 39 75 71 82 71 6 0 28
-16 49 -35 20 -19 39 -35 42 -35 3 0 29 -18 57 -39 50 -38 292 -161 316 -161
7 0 -49 31 -123 68 -120 60 -244 139 -234 149 5 5 87 -37 111 -57 40 -33 93
-58 206 -95 104 -34 241 -94 263 -115 4 -4 -1 -21 -12 -37 -11 -15 -37 -55
-57 -88 -21 -33 -61 -92 -91 -130 -51 -67 -93 -155 -74 -155 5 0 12 10 16 23
4 12 17 36 29 52 165 226 186 252 205 240 17 -11 11 -32 -17 -62 -16 -16 -55
-76 -88 -133 -120 -206 -165 -272 -184 -268 -22 4 -38 77 -20 89 8 5 9 9 3 9
-16 0 -34 -22 -34 -43 0 -14 -4 -17 -17 -12 -36 15 -53 17 -53 7 0 -16 25 -32
71 -45 55 -16 60 -33 12 -47 -21 -5 -49 -19 -63 -30 -23 -19 -24 -21 -7 -31
26 -15 21 -28 -19 -45 -27 -11 -44 -13 -64 -5 -18 6 -31 6 -38 -1 -6 -6 -16
-7 -22 -3 -9 6 -9 9 0 15 8 5 7 9 -4 13 -9 4 -16 2 -16 -4 0 -6 -5 -7 -10 -4
-6 4 -8 10 -6 14 3 3 -8 7 -22 6 -17 0 -26 5 -24 13 1 8 -2 11 -8 7 -5 -3 -10
-2 -10 4 0 5 -39 22 -87 36 -100 31 -201 79 -209 100 -3 7 -12 11 -20 8 -8 -3
-20 0 -28 6 -8 7 -30 11 -49 9 -19 -1 -42 4 -51 11 -15 12 -15 16 -1 31 31 34
10 87 -44 110 -17 7 -28 17 -25 22 3 5 -2 18 -11 28 -21 23 -4 35 27 19 37
-19 88 -72 88 -91 0 -10 5 -18 10 -18 21 0 8 32 -30 74 -22 24 -40 46 -40 50
0 11 44 0 48 -13 4 -13 63 -45 102 -55 16 -4 11 1 -14 15 -30 16 -36 23 -25
30 12 7 11 9 -1 9 -20 0 -80 63 -80 84 0 28 20 27 62 -3 43 -32 58 -38 58 -22
0 5 -25 23 -55 40 -44 25 -55 36 -55 56 0 27 -6 30 -29 16 -12 -8 -12 -12 -2
-25 8 -10 11 -26 7 -42 -6 -22 -11 -25 -32 -20 -39 10 -51 -6 -15 -18 45 -15
41 -28 -13 -43 -46 -14 -61 -38 -31 -49 10 -4 13 -13 10 -24 -4 -13 2 -20 23
-28 39 -13 62 -39 62 -68 0 -20 -5 -24 -29 -24 -39 0 -47 -16 -17 -32 167 -89
279 -138 341 -148 68 -11 255 -94 255 -114 0 -5 -7 -14 -17 -21 -9 -7 -13 -17
-9 -23 11 -18 26 -14 26 7 0 15 17 23 86 42 95 26 123 49 91 74 -17 12 -17 14
5 29 12 9 30 16 39 16 15 0 16 -6 8 -42 -12 -55 -32 -71 -118 -94 -109 -28
-88 -42 27 -18 12 2 22 -1 22 -7 0 -13 89 62 90 76 0 6 19 29 42 50 l41 40
-21 -38 c-28 -48 -29 -77 -3 -77 11 0 23 5 26 10 3 6 -1 10 -9 10 -9 0 -16 5
-16 12 0 16 68 137 95 170 13 15 40 60 60 100 21 40 47 87 59 103 31 41 38 65
25 81 -7 9 -7 19 1 34 6 11 8 25 4 31 -3 6 1 18 9 27 13 15 13 21 0 55 -8 20
-21 37 -29 37 -8 0 -11 6 -8 15 4 8 13 15 21 15 33 0 3 24 -87 70 -52 27 -122
56 -155 65 -83 23 -180 63 -218 90 -61 44 -189 116 -195 111 -9 -10 -31 15
-25 30 10 27 -36 14 -64 -18z m702 -547 c-3 -5 2 -17 11 -26 15 -15 15 -20
-11 -68 -59 -110 -75 -133 -120 -171 -26 -21 -44 -41 -41 -44 3 -3 15 3 26 13
39 36 19 -1 -33 -58 -35 -38 -56 -55 -65 -49 -13 9 12 72 52 127 20 28 102
158 155 248 13 20 25 37 27 37 3 0 3 -4 -1 -9z m-884 -331 c71 -42 86 -57 47
-44 -24 7 -138 74 -138 80 0 11 29 0 91 -36z"></path>
<path d="M2755 1580 c-3 -6 1 -7 9 -4 18 7 21 14 7 14 -6 0 -13 -4 -16 -10z"></path>
<path d="M1689 1449 c13 -11 22 -21 20 -22 -25 -19 -108 -61 -124 -63 -12 -1
-46 -17 -76 -35 -30 -19 -63 -36 -74 -38 -11 -1 -36 -19 -56 -40 -19 -20 -48
-46 -63 -59 -29 -23 -29 -21 -11 -107 5 -22 4 -26 -4 -15 -20 29 -24 -2 -12
-83 22 -134 46 -175 154 -254 43 -32 48 -39 41 -62 -4 -14 -8 -46 -9 -71 -1
-25 -5 -57 -9 -72 -7 -24 -5 -28 13 -28 12 0 30 5 41 12 28 18 32 7 15 -42
-24 -68 -21 -83 15 -75 34 7 34 6 19 -44 -13 -43 2 -90 30 -98 10 -2 24 -19
32 -36 19 -43 74 -79 108 -70 36 9 130 59 231 125 112 72 389 238 398 238 3 0
-23 -30 -58 -66 -75 -76 -197 -170 -241 -186 -16 -6 -28 -12 -26 -14 9 -9 77
23 132 63 33 24 112 94 175 156 63 61 148 134 188 161 40 27 70 51 67 54 -2 3
-28 -11 -57 -31 -28 -20 -54 -35 -56 -32 -2 2 7 18 22 35 14 18 24 35 21 39
-7 12 183 181 203 181 14 0 62 40 62 52 0 6 -11 -1 -26 -17 -14 -15 -28 -25
-31 -22 -3 4 10 19 28 34 59 48 80 73 74 83 -4 6 -17 2 -33 -11 -41 -31 -125
-115 -145 -143 -9 -14 -54 -58 -100 -98 -45 -40 -81 -79 -80 -88 3 -25 -62
-93 -123 -129 -33 -19 -88 -52 -124 -74 -36 -23 -84 -52 -108 -66 -24 -14 -74
-46 -110 -70 -71 -47 -179 -108 -249 -142 -39 -18 -45 -19 -73 -4 -37 19 -63
57 -54 79 3 9 1 16 -5 16 -12 0 -15 39 -3 56 4 6 12 13 19 15 8 3 -1 25 -24
63 -27 44 -33 61 -23 64 9 3 7 9 -9 21 -16 12 -22 29 -24 58 0 23 -5 39 -9 37
-4 -3 -8 -12 -8 -20 0 -17 -22 -18 -38 -2 -30 30 1 101 40 90 17 -4 20 -2 15
11 -3 9 -2 19 2 21 5 3 6 16 4 30 -3 13 0 27 6 30 6 4 11 2 11 -5 0 -7 7 -4
15 7 13 17 14 17 15 2 0 -10 5 -18 11 -18 6 0 9 7 5 15 -3 8 -3 15 0 15 13 0
80 -33 96 -47 10 -9 18 -12 18 -6 0 12 -33 43 -47 43 -18 0 -63 48 -58 62 3 8
43 45 90 83 46 39 84 76 85 83 0 15 107 85 132 87 10 1 37 15 60 32 24 17 46
31 51 32 11 2 10 7 -12 66 -44 116 -112 250 -120 236 -5 -7 -14 -10 -20 -6
-15 9 -111 -15 -133 -33 -16 -13 -18 -13 -18 1 0 9 -8 22 -18 29 -10 7 -21 21
-25 31 -4 11 -17 17 -34 17 l-28 -1 24 -20z m61 -72 c0 -17 -15 -31 -57 -56
-32 -19 -74 -46 -93 -60 -24 -18 -72 -34 -147 -52 -62 -14 -113 -23 -113 -19
0 11 81 65 160 105 41 22 94 52 117 67 40 27 109 49 126 41 4 -2 7 -14 7 -26z
m160 23 c9 -5 19 -5 26 0 11 10 76 -114 108 -207 l15 -42 -37 -26 c-20 -14
-104 -70 -187 -124 -82 -54 -165 -114 -184 -134 -19 -20 -38 -34 -43 -31 -11
7 -74 106 -110 173 -28 52 -48 65 -48 33 0 -9 8 -22 19 -29 10 -6 32 -35 49
-65 17 -29 43 -72 57 -95 l26 -43 -26 -26 c-15 -15 -30 -23 -35 -18 -5 5 -34
72 -65 149 -32 77 -66 157 -76 177 -22 44 -23 44 -6 51 6 3 48 21 92 39 78 33
174 88 291 165 102 68 107 70 134 53z m-511 -234 c-15 -13 -69 -35 -69 -27 0
5 12 14 28 19 28 11 48 15 41 8z m-29 -64 c10 -10 40 -69 65 -132 25 -63 58
-141 72 -173 24 -53 25 -59 10 -74 -14 -14 -20 -13 -66 21 -54 40 -105 95 -96
104 2 3 14 -3 25 -13 24 -21 26 -6 6 33 -11 23 -56 216 -56 243 0 15 20 10 40
-9z m-16 -198 c10 -25 -1 -29 -14 -5 -6 12 -7 21 -1 21 5 0 12 -7 15 -16z
m366 2 c0 -2 -8 -10 -17 -17 -16 -13 -17 -12 -4 4 13 16 21 21 21 13z m-170
-190 c0 -2 -7 -9 -15 -16 -13 -11 -14 -10 -9 4 5 14 24 23 24 12z m-37 -66
c-3 -11 -10 -23 -16 -27 -7 -4 -8 0 -4 11 4 10 7 22 7 27 0 5 4 9 9 9 5 0 7
-9 4 -20z m-3 -111 c0 -5 -4 -9 -10 -9 -5 0 -10 7 -10 16 0 8 5 12 10 9 6 -3
10 -10 10 -16z m75 -96 c5 -20 3 -23 -19 -23 -30 0 -29 0 -16 36 11 29 23 24
35 -13z m43 -63 c10 -16 10 -25 1 -42 -7 -12 -15 -33 -19 -47 l-7 -26 -11 26
c-7 18 -7 38 1 67 13 48 17 50 35 22z"></path>
<path d="M2581 1352 c-34 -27 -35 -27 -177 -24 -84 2 -169 -2 -206 -9 -71 -14
-120 -42 -111 -64 7 -20 20 -19 25 3 9 32 99 52 233 53 66 1 128 1 138 0 27
-2 20 -17 -13 -31 -17 -7 -33 -17 -36 -22 -3 -5 13 0 36 12 22 11 51 20 63 18
14 -2 22 2 22 12 0 8 17 23 38 32 20 9 37 24 37 33 0 21 -10 18 -49 -13z"></path>
<path d="M5050 1203 c0 -5 30 -30 67 -58 36 -27 76 -58 89 -68 13 -10 24 -17
24 -14 0 6 -168 147 -175 147 -3 0 -5 -3 -5 -7z"></path>
<path d="M5286 999 c-17 -17 -17 -18 8 -34 26 -17 88 -35 116 -34 8 1 -1 5
-20 10 -61 17 -91 31 -87 43 4 12 43 13 70 1 9 -4 17 -3 17 2 0 5 -19 14 -43
19 -35 9 -45 7 -61 -7z"></path>
<path d="M5438 923 c7 -3 16 -2 19 1 4 3 -2 6 -13 5 -11 0 -14 -3 -6 -6z"></path>
<path d="M5625 920 c-18 -8 -17 -9 8 -9 15 -1 27 4 27 9 0 12 -8 12 -35 0z"></path>
<path d="M3260 813 c-267 -44 -303 -55 -325 -100 -6 -11 -17 -28 -24 -37 -8
-9 -9 -16 -3 -16 5 0 24 17 41 38 l30 37 -6 -82 c-4 -55 -2 -98 7 -129 10 -36
11 -49 2 -52 -18 -6 -15 -52 3 -52 8 0 15 -9 15 -20 0 -11 -7 -20 -15 -20 -8
0 -15 -6 -15 -14 0 -19 45 -26 83 -13 67 21 70 24 21 20 -51 -5 -51 -5 -57 27
-4 18 -5 35 -2 40 2 4 0 22 -6 41 -23 72 -26 113 -17 190 l11 79 36 9 c84 22
197 31 366 30 99 0 204 4 234 10 93 19 94 18 86 -36 -4 -27 -3 -44 1 -40 9 8
45 99 41 103 -1 1 -49 -4 -107 -12 -146 -19 -289 -19 -296 1 -4 8 -9 14 -13
14 -3 -1 -44 -8 -91 -16z"></path>
<path d="M5650 781 c0 -6 -10 -16 -22 -21 -16 -6 -18 -9 -7 -9 19 -1 45 26 35
36 -3 3 -6 1 -6 -6z"></path>
<path d="M3090 721 c0 -6 -7 -11 -15 -11 -8 0 -15 -4 -15 -10 0 -5 5 -10 11
-10 8 0 10 -36 7 -126 -3 -69 -1 -119 3 -112 5 7 9 36 9 63 0 28 3 80 7 118 6
67 6 67 37 68 17 1 42 5 56 9 21 7 17 8 -22 9 -25 1 -53 4 -62 7 -9 3 -16 1
-16 -5z"></path>
<path d="M3753 714 c-7 -3 -12 -15 -12 -27 1 -16 3 -17 6 -6 6 24 29 27 93 15
l55 -11 -2 -65 c0 -36 -4 -73 -9 -84 -4 -10 -2 -27 5 -37 9 -15 7 -39 -9 -111
-11 -51 -20 -101 -19 -113 1 -18 10 12 40 135 6 25 12 97 13 160 1 102 3 115
18 112 9 -1 19 2 22 7 9 14 -175 36 -201 25z"></path>
<path d="M3374 702 c4 -7 -6 -9 -29 -5 -20 3 -46 1 -58 -6 -12 -6 -47 -14 -77
-19 -40 -5 -56 -12 -58 -25 -3 -12 3 -17 22 -17 l26 0 1 -112 c1 -62 4 -100 8
-83 5 25 8 18 20 -46 11 -63 11 -83 0 -112 -7 -20 -10 -39 -7 -42 8 -9 128 27
122 36 -2 4 4 8 13 8 191 0 468 10 468 16 0 9 -55 9 -371 -1 l-191 -7 -6 39
c-4 22 -13 75 -22 119 -20 107 -20 175 0 175 9 0 15 9 15 24 0 27 30 37 90 30
70 -8 320 0 358 12 36 11 25 23 -15 16 -54 -10 -263 -9 -292 2 -16 5 -21 5
-17 -2z m-81 -439 c-7 -2 -19 -2 -25 0 -7 3 -2 5 12 5 14 0 19 -2 13 -5z"></path>
<path d="M2660 692 c0 -4 5 -23 10 -42 6 -21 7 -43 1 -55 -20 -45 -40 -130
-32 -135 5 -3 9 -54 10 -115 1 -112 8 -172 20 -179 3 -2 5 66 5 152 -1 87 2
162 6 167 14 19 20 151 9 184 -10 28 -29 43 -29 23z"></path>
<path d="M3429 603 c-63 -21 -77 -30 -76 -47 0 -12 -1 -54 -3 -94 -2 -40 1
-77 7 -83 6 -6 8 12 6 48 -2 32 2 78 9 103 13 42 17 46 68 64 43 15 68 17 113
12 64 -8 66 -13 42 -81 -8 -22 -14 -56 -13 -75 0 -25 2 -28 5 -10 2 14 13 55
25 92 14 43 19 71 13 77 -6 5 -35 11 -65 15 -44 5 -70 1 -131 -21z"></path>
<path d="M2429 400 c-6 -5 -5 -10 3 -17 12 -10 119 4 131 17 8 7 -122 7 -134
0z"></path>
<path d="M2352 383 c-23 -8 -40 -19 -36 -24 7 -11 34 -12 34 -1 0 5 15 16 33
25 40 20 25 20 -31 0z"></path>
<path d="M2601 383 c-15 -13 -25 -41 -36 -97 -20 -106 -45 -134 -124 -139
l-56 -3 59 -2 c49 -2 65 2 91 22 28 21 33 33 44 105 8 49 21 91 33 106 23 29
19 32 -11 8z"></path>
<path d="M1829 384 c-1 -5 -1 -13 0 -18 1 -5 -8 -19 -20 -32 -23 -25 -53 -31
-64 -14 -7 12 -45 13 -45 2 0 -14 66 -30 82 -21 9 5 29 22 47 38 26 25 29 30
16 41 -8 7 -16 9 -16 4z"></path>
<path d="M3473 358 c-24 -5 -43 -13 -43 -18 0 -4 21 -1 48 7 26 8 62 13 80 11
17 -2 32 0 32 4 0 10 -64 8 -117 -4z"></path>
<path d="M2490 320 c0 -5 5 -10 11 -10 5 0 7 5 4 10 -3 6 -8 10 -11 10 -2 0
-4 -4 -4 -10z"></path>
<path d="M2222 155 c3 -146 9 -182 21 -134 4 13 10 18 18 13 7 -4 17 0 25 11
11 14 25 17 83 13 40 -2 71 0 71 6 0 5 19 6 43 3 23 -3 49 -2 57 3 19 12 16
12 -99 10 -87 -2 -94 0 -81 15 12 15 11 15 -13 4 -15 -7 -27 -16 -27 -21 0
-10 -41 -10 -57 0 -8 5 -13 47 -15 120 -2 84 -6 112 -16 112 -10 0 -12 -33
-10 -155z"></path>
<path d="M2460 120 c-26 -5 -4 -6 53 -3 67 4 97 2 97 -5 0 -6 7 -9 15 -6 56
22 -59 31 -165 14z"></path>
<path d="M2388 103 c7 -3 16 -2 19 1 4 3 -2 6 -13 5 -11 0 -14 -3 -6 -6z"></path>
</g>
</svg>
